<svg xmlns="http://www.w3.org/2000/svg" xmlns:xlink="http://www.w3.org/1999/xlink" width="200" zoomAndPan="magnify" viewBox="0 0 150 149.999998" height="200" preserveAspectRatio="xMidYMid meet" version="1.2"><defs><clipPath id="11b29fc2ef"><path d="M 0 0 L 149.25 0 L 149.25 150 L 0 150 Z M 0 0 "/></clipPath><clipPath id="4865b425e7"><path d="M 82.808594 123.703125 L 87.105469 123.703125 L 87.105469 127.347656 L 82.808594 127.347656 Z M 82.808594 123.703125 "/></clipPath><clipPath id="caef5eaa5a"><path d="M 87.09375 125.023438 C 85.144531 128.023438 83.34375 127.425781 82.96875 126.824219 C 82.59375 126.148438 82.96875 124.351562 83.492188 123.898438 C 84.09375 123.449219 86.492188 124.050781 86.492188 124.050781 "/></clipPath></defs><g id="755ec64329"><g clip-rule="nonzero" clip-path="url(#11b29fc2ef)"><path style=" stroke:none;fill-rule:nonzero;fill:#cdddec;fill-opacity:1;" d="M 149.191406 74.757812 C 149.191406 75.976562 149.160156 77.199219 149.101562 78.417969 C 149.039062 79.636719 148.949219 80.851562 148.832031 82.066406 C 148.710938 83.285156 148.5625 84.496094 148.382812 85.703125 C 148.203125 86.910156 147.996094 88.113281 147.757812 89.308594 C 147.519531 90.507812 147.25 91.699219 146.953125 92.882812 C 146.65625 94.066406 146.332031 95.242188 145.976562 96.410156 C 145.625 97.578125 145.242188 98.738281 144.828125 99.886719 C 144.417969 101.035156 143.980469 102.175781 143.511719 103.304688 C 143.042969 104.429688 142.550781 105.546875 142.027344 106.648438 C 141.507812 107.753906 140.957031 108.84375 140.382812 109.921875 C 139.808594 110.996094 139.207031 112.058594 138.578125 113.105469 C 137.949219 114.152344 137.296875 115.183594 136.617188 116.199219 C 135.941406 117.214844 135.238281 118.210938 134.511719 119.191406 C 133.785156 120.171875 133.03125 121.136719 132.257812 122.078125 C 131.484375 123.023438 130.6875 123.945312 129.867188 124.851562 C 129.046875 125.757812 128.207031 126.640625 127.34375 127.503906 C 126.480469 128.367188 125.59375 129.207031 124.691406 130.027344 C 123.785156 130.847656 122.863281 131.644531 121.917969 132.417969 C 120.972656 133.195312 120.011719 133.945312 119.03125 134.671875 C 118.050781 135.398438 117.054688 136.101562 116.039062 136.78125 C 115.023438 137.457031 113.992188 138.113281 112.945312 138.738281 C 111.898438 139.367188 110.835938 139.96875 109.757812 140.542969 C 108.683594 141.121094 107.59375 141.667969 106.488281 142.191406 C 105.386719 142.710938 104.269531 143.207031 103.140625 143.671875 C 102.011719 144.140625 100.875 144.578125 99.726562 144.992188 C 98.574219 145.402344 97.417969 145.785156 96.25 146.140625 C 95.082031 146.496094 93.90625 146.820312 92.71875 147.117188 C 91.535156 147.414062 90.34375 147.679688 89.148438 147.917969 C 87.949219 148.15625 86.75 148.367188 85.539062 148.542969 C 84.332031 148.722656 83.121094 148.871094 81.90625 148.992188 C 80.691406 149.113281 79.476562 149.203125 78.253906 149.261719 C 77.035156 149.320312 75.816406 149.351562 74.59375 149.351562 C 73.375 149.351562 72.152344 149.320312 70.933594 149.261719 C 69.714844 149.203125 68.5 149.113281 67.285156 148.992188 C 66.070312 148.871094 64.855469 148.722656 63.648438 148.542969 C 62.441406 148.367188 61.238281 148.15625 60.042969 147.917969 C 58.84375 147.679688 57.652344 147.414062 56.46875 147.117188 C 55.285156 146.820312 54.109375 146.496094 52.941406 146.140625 C 51.773438 145.785156 50.613281 145.402344 49.464844 144.992188 C 48.316406 144.578125 47.175781 144.140625 46.046875 143.671875 C 44.921875 143.207031 43.804688 142.710938 42.703125 142.191406 C 41.597656 141.667969 40.507812 141.121094 39.429688 140.542969 C 38.355469 139.96875 37.292969 139.367188 36.246094 138.738281 C 35.199219 138.113281 34.167969 137.457031 33.152344 136.78125 C 32.136719 136.101562 31.140625 135.398438 30.160156 134.671875 C 29.179688 133.945312 28.214844 133.195312 27.273438 132.417969 C 26.328125 131.644531 25.40625 130.847656 24.5 130.027344 C 23.59375 129.207031 22.710938 128.367188 21.847656 127.503906 C 20.984375 126.640625 20.144531 125.757812 19.324219 124.851562 C 18.503906 123.945312 17.707031 123.023438 16.933594 122.078125 C 16.15625 121.136719 15.40625 120.171875 14.679688 119.191406 C 13.953125 118.210938 13.25 117.214844 12.570312 116.199219 C 11.894531 115.183594 11.242188 114.152344 10.613281 113.105469 C 9.984375 112.058594 9.382812 110.996094 8.808594 109.921875 C 8.234375 108.84375 7.683594 107.753906 7.160156 106.648438 C 6.640625 105.546875 6.144531 104.429688 5.679688 103.304688 C 5.210938 102.175781 4.773438 101.035156 4.359375 99.886719 C 3.949219 98.738281 3.566406 97.578125 3.210938 96.410156 C 2.859375 95.242188 2.53125 94.066406 2.234375 92.882812 C 1.9375 91.699219 1.671875 90.507812 1.433594 89.308594 C 1.195312 88.113281 0.988281 86.910156 0.808594 85.703125 C 0.628906 84.496094 0.480469 83.285156 0.359375 82.066406 C 0.238281 80.851562 0.148438 79.636719 0.0898438 78.417969 C 0.03125 77.199219 0 75.976562 0 74.757812 C 0 73.535156 0.03125 72.316406 0.0898438 71.097656 C 0.148438 69.878906 0.238281 68.660156 0.359375 67.445312 C 0.480469 66.230469 0.628906 65.019531 0.808594 63.8125 C 0.988281 62.605469 1.195312 61.402344 1.433594 60.203125 C 1.671875 59.007812 1.9375 57.816406 2.234375 56.632812 C 2.53125 55.449219 2.859375 54.269531 3.210938 53.101562 C 3.566406 51.933594 3.949219 50.777344 4.359375 49.625 C 4.773438 48.476562 5.210938 47.339844 5.679688 46.210938 C 6.144531 45.082031 6.640625 43.964844 7.160156 42.863281 C 7.683594 41.757812 8.234375 40.667969 8.808594 39.59375 C 9.382812 38.515625 9.984375 37.453125 10.613281 36.40625 C 11.242188 35.359375 11.894531 34.328125 12.570312 33.3125 C 13.25 32.296875 13.953125 31.300781 14.679688 30.320312 C 15.40625 29.339844 16.15625 28.378906 16.933594 27.433594 C 17.707031 26.492188 18.503906 25.566406 19.324219 24.660156 C 20.144531 23.757812 20.984375 22.875 21.847656 22.011719 C 22.710938 21.148438 23.59375 20.304688 24.5 19.484375 C 25.40625 18.664062 26.328125 17.867188 27.273438 17.09375 C 28.214844 16.320312 29.179688 15.570312 30.160156 14.839844 C 31.140625 14.113281 32.136719 13.410156 33.152344 12.734375 C 34.167969 12.054688 35.199219 11.402344 36.246094 10.773438 C 37.292969 10.148438 38.355469 9.546875 39.429688 8.96875 C 40.507812 8.394531 41.597656 7.84375 42.703125 7.324219 C 43.804688 6.800781 44.921875 6.308594 46.046875 5.839844 C 47.175781 5.371094 48.316406 4.933594 49.464844 4.523438 C 50.613281 4.109375 51.773438 3.726562 52.941406 3.375 C 54.109375 3.019531 55.285156 2.695312 56.46875 2.398438 C 57.652344 2.101562 58.84375 1.832031 60.042969 1.59375 C 61.238281 1.355469 62.441406 1.148438 63.648438 0.96875 C 64.855469 0.789062 66.070312 0.640625 67.285156 0.519531 C 68.5 0.402344 69.714844 0.3125 70.933594 0.25 C 72.152344 0.191406 73.375 0.160156 74.59375 0.160156 C 75.816406 0.15625 77.039062 0.183594 78.257812 0.238281 C 79.480469 0.292969 80.699219 0.378906 81.917969 0.492188 C 83.132812 0.609375 84.347656 0.753906 85.554688 0.929688 C 86.765625 1.105469 87.96875 1.308594 89.167969 1.546875 C 90.367188 1.78125 91.5625 2.042969 92.746094 2.335938 C 93.933594 2.632812 95.113281 2.953125 96.28125 3.304688 C 97.453125 3.65625 98.613281 4.039062 99.765625 4.449219 C 100.917969 4.855469 102.058594 5.292969 103.1875 5.757812 C 104.316406 6.226562 105.4375 6.71875 106.542969 7.238281 C 107.648438 7.757812 108.738281 8.304688 109.820312 8.882812 C 110.898438 9.457031 111.960938 10.054688 113.011719 10.683594 C 114.058594 11.308594 115.09375 11.960938 116.109375 12.640625 C 117.125 13.320312 118.125 14.019531 119.109375 14.75 C 120.089844 15.476562 121.054688 16.226562 122 17 C 122.945312 17.777344 123.871094 18.574219 124.773438 19.394531 C 125.679688 20.214844 126.566406 21.058594 127.429688 21.921875 C 128.292969 22.785156 129.136719 23.671875 129.957031 24.578125 C 130.777344 25.484375 131.574219 26.40625 132.351562 27.351562 C 133.125 28.296875 133.875 29.261719 134.601562 30.246094 C 135.332031 31.226562 136.03125 32.226562 136.710938 33.242188 C 137.390625 34.257812 138.042969 35.292969 138.667969 36.339844 C 139.296875 37.390625 139.894531 38.453125 140.472656 39.535156 C 141.046875 40.613281 141.59375 41.703125 142.113281 42.808594 C 142.632812 43.914062 143.128906 45.035156 143.59375 46.164062 C 144.058594 47.292969 144.496094 48.433594 144.90625 49.585938 C 145.3125 50.738281 145.695312 51.898438 146.046875 53.070312 C 146.398438 54.238281 146.71875 55.417969 147.015625 56.605469 C 147.308594 57.789062 147.570312 58.984375 147.808594 60.183594 C 148.042969 61.382812 148.246094 62.585938 148.421875 63.796875 C 148.597656 65.007812 148.742188 66.21875 148.859375 67.4375 C 148.972656 68.652344 149.058594 69.871094 149.113281 71.09375 C 149.171875 72.3125 149.195312 73.535156 149.191406 74.757812 Z M 149.191406 74.757812 "/></g><path style=" stroke:none;fill-rule:nonzero;fill:#006f82;fill-opacity:1;" d="M 130.257812 124.417969 C 129.40625 125.375 128.527344 126.308594 127.625 127.21875 C 126.722656 128.132812 125.796875 129.019531 124.847656 129.882812 C 123.898438 130.75 122.929688 131.589844 121.9375 132.402344 C 120.945312 133.214844 119.933594 134.003906 118.902344 134.765625 C 117.871094 135.527344 116.820312 136.261719 115.75 136.972656 C 114.679688 137.679688 113.59375 138.359375 112.488281 139.011719 C 111.382812 139.660156 110.261719 140.285156 109.125 140.878906 C 107.988281 141.472656 106.835938 142.035156 105.667969 142.570312 C 104.503906 143.105469 103.324219 143.609375 102.128906 144.082031 C 100.9375 144.554688 99.734375 145 98.519531 145.410156 C 97.304688 145.820312 96.078125 146.203125 94.84375 146.550781 C 93.609375 146.898438 92.367188 147.214844 91.117188 147.5 C 89.863281 147.78125 88.609375 148.035156 87.34375 148.253906 C 86.078125 148.472656 84.8125 148.660156 83.535156 148.8125 C 82.261719 148.96875 80.988281 149.089844 79.707031 149.175781 C 78.425781 149.265625 77.144531 149.320312 75.863281 149.339844 C 74.578125 149.363281 73.296875 149.351562 72.015625 149.308594 C 70.734375 149.261719 69.453125 149.1875 68.175781 149.074219 C 66.898438 148.964844 65.621094 148.824219 64.351562 148.644531 C 63.082031 148.46875 61.816406 148.261719 60.554688 148.019531 C 59.296875 147.777344 58.042969 147.503906 56.796875 147.199219 C 55.550781 146.894531 54.3125 146.554688 53.085938 146.1875 C 51.855469 145.816406 50.636719 145.414062 49.429688 144.980469 C 48.222656 144.550781 47.027344 144.085938 45.84375 143.59375 C 44.660156 143.097656 43.488281 142.574219 42.332031 142.019531 C 41.175781 141.464844 40.035156 140.878906 38.90625 140.265625 C 37.78125 139.652344 36.671875 139.011719 35.578125 138.339844 C 34.484375 137.667969 33.40625 136.96875 32.351562 136.242188 C 31.292969 135.515625 30.253906 134.765625 29.234375 133.984375 C 28.21875 133.203125 27.21875 132.398438 26.242188 131.566406 C 25.265625 130.738281 24.308594 129.878906 23.375 129 C 22.445312 128.121094 21.535156 127.214844 20.648438 126.289062 C 21.792969 124.515625 23.007812 122.714844 24.320312 120.941406 C 37.261719 103.363281 63.144531 99.105469 63.144531 99.105469 L 63.980469 98.925781 L 76.070312 96.289062 L 76.226562 96.316406 L 86.878906 98.648438 L 89 99.109375 C 89 99.109375 114.882812 103.367188 127.8125 120.941406 C 128.667969 122.097656 129.476562 123.257812 130.257812 124.417969 Z M 130.257812 124.417969 "/><path style=" stroke:none;fill-rule:nonzero;fill:#2c3e50;fill-opacity:1;" d="M 97.019531 56.175781 C 111.921875 51.296875 114.882812 39.414062 111.007812 35.890625 C 107.128906 32.367188 98.601562 35.890625 98.601562 35.890625 C 98.601562 35.890625 103.289062 28.558594 100.089844 24.253906 C 96.886719 19.953125 94.46875 28.730469 86.585938 29.453125 C 78.703125 30.175781 66.84375 25.921875 61.039062 31.816406 C 55.238281 37.707031 57.707031 43.074219 57.707031 43.074219 C 57.707031 43.074219 45.554688 43.539062 48.183594 55.703125 C 50.8125 67.867188 59.011719 80.457031 63.71875 85.382812 C 68.425781 90.3125 80.902344 71.710938 80.902344 71.710938 Z M 97.019531 56.175781 "/><path style=" stroke:none;fill-rule:nonzero;fill:#ffc4b5;fill-opacity:1;" d="M 78.949219 110.351562 C 71.734375 110.929688 67.582031 107.160156 64.792969 102.773438 C 64.066406 101.644531 63.792969 100.414062 63.972656 99.082031 C 64.523438 94.628906 64.847656 90.15625 64.9375 85.667969 C 65.019531 82.425781 65.03125 78.710938 64.890625 74.546875 L 87.480469 82.957031 L 87.050781 94.125 L 86.875 99.101562 L 86.765625 101.84375 C 86.765625 101.84375 88.007812 109.621094 78.949219 110.351562 Z M 78.949219 110.351562 "/><path style=" stroke:none;fill-rule:nonzero;fill:#ff8286;fill-opacity:1;" d="M 86.871094 99.097656 C 75.875 98.960938 67.632812 90.597656 64.9375 85.667969 C 65.019531 82.425781 65.03125 78.710938 64.890625 74.542969 L 87.480469 82.953125 L 87.050781 94.125 Z M 86.871094 99.097656 "/><path style=" stroke:none;fill-rule:nonzero;fill:#ffc4b5;fill-opacity:1;" d="M 101.199219 46.984375 C 78.707031 55.9375 68.699219 54.863281 68.699219 54.863281 C 68.699219 54.863281 69.378906 68.148438 67.4375 68.695312 C 65.492188 69.238281 67.378906 63.492188 63.480469 61.265625 C 59.582031 59.035156 53.492188 63.234375 54.878906 68.746094 C 56.265625 74.261719 63.671875 72.757812 63.671875 72.757812 C 63.671875 72.757812 68.757812 94.578125 87.707031 94.074219 C 106.652344 93.570312 103.886719 63.398438 102.742188 58.78125 C 101.601562 54.164062 101.199219 46.984375 101.199219 46.984375 Z M 101.199219 46.984375 "/><g clip-rule="nonzero" clip-path="url(#4865b425e7)"><g clip-rule="nonzero" clip-path="url(#caef5eaa5a)"><path style=" stroke:none;fill-rule:nonzero;fill:#006f82;fill-opacity:1;" d="M 79.96875 120.898438 L 90.101562 120.898438 L 90.101562 130.726562 L 79.96875 130.726562 Z M 79.96875 120.898438 "/></g></g></g></svg>