<svg xmlns="http://www.w3.org/2000/svg" xmlns:xlink="http://www.w3.org/1999/xlink" width="270" zoomAndPan="magnify" viewBox="0 0 202.5 141.000003" height="188" preserveAspectRatio="xMidYMid meet" version="1.2"><defs><clipPath id="944f9ff168"><path d="M 44.539062 100.832031 L 48.769531 100.832031 L 48.769531 104.453125 L 44.539062 104.453125 Z M 44.539062 100.832031 "/></clipPath><clipPath id="2279b91629"><path d="M 48.757812 102.144531 C 46.894531 105.125 45.109375 104.527344 44.734375 103.933594 C 44.363281 103.335938 44.660156 101.476562 45.257812 101.027344 C 45.851562 100.582031 48.234375 101.175781 48.234375 101.175781 "/></clipPath></defs><g id="a543eb52e6"><path style=" stroke:none;fill-rule:evenodd;fill:#007084;fill-opacity:1;" d="M 60.726562 34.601562 L 40.160156 45.171875 L 40.175781 139.730469 L 60.742188 139.730469 Z M 60.726562 34.601562 "/><path style=" stroke:none;fill-rule:evenodd;fill:#007084;fill-opacity:1;" d="M 70.773438 48.714844 L 70.789062 139.730469 L 91.351562 139.730469 L 91.335938 59.273438 Z M 70.773438 48.714844 "/><path style=" stroke:none;fill-rule:evenodd;fill:#007084;fill-opacity:1;" d="M 121.945312 48.785156 L 101.367188 59.273438 L 101.398438 139.75 L 121.960938 139.730469 Z M 121.945312 48.785156 "/><path style=" stroke:none;fill-rule:evenodd;fill:#007084;fill-opacity:1;" d="M 30.113281 50.339844 L 9.570312 60.914062 L 9.582031 139.730469 L 30.160156 139.730469 Z M 30.113281 50.339844 "/><path style=" stroke:none;fill-rule:evenodd;fill:#007084;fill-opacity:1;" d="M 131.996094 97.375 L 131.996094 139.730469 L 152.574219 139.730469 L 152.558594 108.640625 C 151.875 108.527344 151.195312 108.382812 150.511719 108.191406 L 150.496094 108.191406 C 143.496094 106.320312 137.09375 102.503906 131.996094 97.375 Z M 131.996094 97.375 "/><path style=" stroke:none;fill-rule:nonzero;fill:#007084;fill-opacity:1;" d="M 161.019531 47.261719 C 162.996094 47.230469 164.972656 47.496094 166.886719 48 C 178.53125 51.125 185.445312 63.105469 182.324219 74.765625 C 179.203125 86.410156 167.222656 93.339844 155.558594 90.214844 C 143.917969 87.078125 136.988281 75.097656 140.109375 63.453125 C 141.636719 57.746094 145.410156 52.894531 150.570312 50.019531 C 153.761719 48.234375 157.363281 47.289062 161.019531 47.261719 Z M 162.445312 35.878906 C 161.617188 35.847656 160.792969 35.847656 159.949219 35.894531 C 154.71875 36.082031 149.609375 37.503906 145.035156 40.0625 C 137.179688 44.429688 131.441406 51.808594 129.105469 60.492188 C 124.359375 78.234375 134.886719 96.472656 152.628906 101.222656 C 158.683594 102.820312 165.074219 102.671875 171.054688 100.8125 L 171.722656 102.136719 C 173.484375 105.984375 178.082031 106.988281 181.816406 104.824219 C 185.550781 102.671875 186.988281 98.175781 184.546875 94.730469 L 183.761719 93.539062 C 188.378906 89.269531 191.703125 83.78125 193.347656 77.714844 C 198.097656 59.980469 187.570312 41.746094 169.835938 36.996094 C 167.410156 36.34375 164.945312 35.964844 162.445312 35.878906 Z M 162.445312 35.878906 "/><path style=" stroke:none;fill-rule:nonzero;fill:#007084;fill-opacity:1;" d="M 187.191406 104.578125 C 186.144531 105.679688 184.867188 106.695312 183.386719 107.554688 C 181.902344 108.410156 180.394531 109.007812 178.902344 109.351562 L 186.59375 126.257812 C 188.691406 130.515625 192.78125 130.4375 195.671875 128.769531 C 198.5625 127.097656 200.679688 123.582031 198.050781 119.664062 Z M 187.191406 104.578125 "/><path style=" stroke:none;fill-rule:evenodd;fill:#007084;fill-opacity:1;" d="M 96.347656 30.246094 C 99.890625 30.246094 102.691406 33.03125 102.691406 36.578125 C 102.691406 40.121094 99.890625 42.90625 96.347656 42.90625 C 92.804688 42.90625 90 40.121094 90 36.578125 C 90 33.03125 92.804688 30.246094 96.347656 30.246094 Z M 14.503906 30.246094 C 18.046875 30.246094 20.847656 33.03125 20.847656 36.578125 C 20.847656 40.121094 18.046875 42.90625 14.503906 42.90625 C 10.960938 42.90625 8.15625 40.121094 8.15625 36.578125 C 8.15625 33.03125 10.960938 30.246094 14.503906 30.246094 Z M 147.621094 7.054688 C 151.164062 7.054688 153.953125 9.855469 153.953125 13.398438 C 153.953125 16.925781 151.164062 19.730469 147.621094 19.730469 C 144.078125 19.730469 141.277344 16.929688 141.277344 13.398438 C 141.277344 9.859375 144.078125 7.054688 147.621094 7.054688 Z M 58.882812 7.054688 C 62.425781 7.054688 65.214844 9.855469 65.214844 13.398438 C 65.214844 16.925781 62.425781 19.730469 58.882812 19.730469 C 55.339844 19.730469 52.539062 16.929688 52.539062 13.398438 C 52.539062 9.859375 55.339844 7.054688 58.882812 7.054688 Z M 58.882812 0.128906 C 51.59375 0.128906 45.582031 6.09375 45.582031 13.398438 C 45.582031 13.835938 45.667969 14.269531 45.710938 14.703125 L 22.929688 26.4375 C 20.632812 24.519531 17.710938 23.300781 14.507812 23.300781 C 7.214844 23.300781 1.222656 29.28125 1.222656 36.574219 C 1.222656 43.863281 7.21875 49.859375 14.507812 49.859375 C 21.792969 49.859375 27.765625 43.863281 27.765625 36.574219 C 27.765625 35.019531 27.445312 33.554688 26.953125 32.160156 L 48.222656 21.222656 C 50.664062 24.503906 54.527344 26.683594 58.882812 26.683594 C 63.253906 26.683594 67.128906 24.488281 69.554688 21.183594 L 84.730469 30.332031 C 83.714844 32.203125 83.074219 34.308594 83.074219 36.574219 C 83.074219 43.863281 89.058594 49.859375 96.347656 49.859375 C 103.632812 49.859375 109.632812 43.863281 109.632812 36.574219 C 109.632812 36.34375 109.574219 36.125 109.574219 35.894531 L 137.292969 21.617188 C 139.738281 24.664062 143.441406 26.683594 147.621094 26.683594 C 154.914062 26.683594 160.90625 20.6875 160.90625 13.398438 C 160.90625 6.09375 154.910156 0.128906 147.621094 0.128906 C 140.332031 0.128906 134.347656 6.09375 134.347656 13.398438 C 134.347656 14.023438 134.46875 14.632812 134.550781 15.242188 L 107.382812 29.226562 C 104.988281 25.667969 100.917969 23.300781 96.347656 23.300781 C 93.894531 23.300781 91.609375 24.027344 89.636719 25.207031 L 72.023438 14.558594 C 72.054688 14.167969 72.136719 13.789062 72.136719 13.398438 C 72.136719 6.09375 66.171875 0.128906 58.882812 0.128906 Z M 58.882812 0.128906 "/><g clip-rule="nonzero" clip-path="url(#944f9ff168)"><g clip-rule="nonzero" clip-path="url(#2279b91629)"><path style=" stroke:none;fill-rule:nonzero;fill:#007084;fill-opacity:1;" d="M 41.757812 98.050781 L 51.816406 98.050781 L 51.816406 107.804688 L 41.757812 107.804688 Z M 41.757812 98.050781 "/></g></g></g></svg>