<svg width="24" height="29" viewBox="0 0 24 29" fill="none" xmlns="http://www.w3.org/2000/svg">
<path fill-rule="evenodd" clip-rule="evenodd" d="M12.75 7.00029C10.922 7.00029 9.411 7.16129 8.248 7.35729L8.114 7.38029C7.104 7.54929 6.264 7.69029 5.607 8.49829C5.187 9.01729 5.05 9.57829 5.019 10.2033L4.527 10.3673C4.064 10.5213 3.657 10.6573 3.336 10.8073C2.988 10.9693 2.669 11.1773 2.425 11.5163C2.181 11.8553 2.084 12.2233 2.04 12.6043C2 12.9573 2 13.3843 2 13.8733V14.0183C2 14.4203 2 14.7753 2.03 15.0723C2.062 15.3933 2.133 15.7063 2.31 16.0083C2.489 16.3113 2.727 16.5253 2.993 16.7093C3.238 16.8793 3.548 17.0523 3.9 17.2473L6.54 18.7143C7.08 19.7753 7.821 20.7213 8.84 21.4043C9.727 22.0003 10.792 22.3743 12.053 22.4733C12.0191 22.5618 12.0011 22.6555 12 22.7503V24.5003H10.57C10.1654 24.5003 9.77334 24.6405 9.46047 24.897C9.14761 25.1535 8.9333 25.5105 8.854 25.9073L8.635 27.0003H6.75C6.55109 27.0003 6.36032 27.0793 6.21967 27.22C6.07902 27.3606 6 27.5514 6 27.7503C6 27.9492 6.07902 28.14 6.21967 28.2806C6.36032 28.4213 6.55109 28.5003 6.75 28.5003H18.75C18.9489 28.5003 19.1397 28.4213 19.2803 28.2806C19.421 28.14 19.5 27.9492 19.5 27.7503C19.5 27.5514 19.421 27.3606 19.2803 27.22C19.1397 27.0793 18.9489 27.0003 18.75 27.0003H16.865L16.646 25.9073C16.5667 25.5105 16.3524 25.1535 16.0395 24.897C15.7267 24.6405 15.3346 24.5003 14.93 24.5003H13.5V22.7503C13.4989 22.6555 13.4809 22.5618 13.447 22.4733C14.708 22.3733 15.773 22.0003 16.66 21.4053C17.68 20.7213 18.42 19.7753 18.96 18.7143L21.6 17.2473C21.952 17.0523 22.262 16.8793 22.507 16.7093C22.772 16.5253 23.011 16.3113 23.189 16.0093C23.367 15.7063 23.439 15.3933 23.47 15.0723C23.5 14.7753 23.5 14.4203 23.5 14.0183V13.8733C23.5 13.3853 23.5 12.9573 23.46 12.6043C23.416 12.2233 23.32 11.8543 23.075 11.5163C22.831 11.1773 22.512 10.9693 22.165 10.8063C21.842 10.6563 21.436 10.5213 20.973 10.3673L20.481 10.2033C20.451 9.57729 20.314 9.01729 19.893 8.49829C19.237 7.68929 18.397 7.54829 17.387 7.38029L17.252 7.35729C15.7639 7.11277 14.258 6.99335 12.75 7.00029ZM15.335 27.0003L15.175 26.2013C15.1637 26.1446 15.1331 26.0937 15.0884 26.057C15.0438 26.0204 14.9878 26.0003 14.93 26.0003H10.57C10.5122 26.0003 10.4562 26.0204 10.4116 26.057C10.3669 26.0937 10.3363 26.1446 10.325 26.2013L10.165 27.0003H15.335ZM5.038 11.7783L5.052 11.7733C5.124 13.2933 5.295 14.9733 5.723 16.5433L4.657 15.9523C4.268 15.7353 4.024 15.5993 3.848 15.4773C3.686 15.3643 3.633 15.2973 3.604 15.2473C3.574 15.1973 3.542 15.1193 3.522 14.9233C3.50133 14.6111 3.49399 14.2981 3.5 13.9853V13.9123C3.5 13.3733 3.501 13.0323 3.53 12.7743C3.558 12.5363 3.602 12.4473 3.642 12.3933C3.681 12.3383 3.751 12.2683 3.968 12.1673C4.204 12.0573 4.528 11.9493 5.038 11.7783ZM20.448 11.7723C20.377 13.2923 20.205 14.9723 19.778 16.5423L20.843 15.9513C21.232 15.7343 21.476 15.5983 21.652 15.4763C21.814 15.3633 21.867 15.2963 21.896 15.2463C21.926 15.1963 21.958 15.1183 21.978 14.9223C21.999 14.7083 22 14.4293 22 13.9843V13.9113C22 13.3723 21.999 13.0313 21.97 12.7733C21.942 12.5353 21.898 12.4463 21.858 12.3923C21.819 12.3373 21.749 12.2673 21.532 12.1663C21.296 12.0563 20.972 11.9473 20.462 11.7763L20.448 11.7723ZM8.498 8.83629C9.90352 8.6062 11.3258 8.49381 12.75 8.50029C14.49 8.50029 15.917 8.65329 17.002 8.83629C18.209 9.04029 18.462 9.11629 18.729 9.44429C18.991 9.76629 19.016 10.0723 18.962 11.4273C18.872 13.6853 18.574 16.1233 17.652 17.9773C17.196 18.8913 16.6 19.6393 15.825 20.1593C15.054 20.6763 14.059 21.0003 12.75 21.0003C11.441 21.0003 10.447 20.6763 9.676 20.1593C8.9 19.6393 8.304 18.8913 7.849 17.9763C6.926 16.1233 6.629 13.6863 6.539 11.4263C6.485 10.0723 6.509 9.76629 6.772 9.44429C7.038 9.11629 7.291 9.04029 8.498 8.83629Z" fill="#006E82"/>
</svg>
