<svg width="38" height="40" viewBox="0 0 38 40" fill="none" xmlns="http://www.w3.org/2000/svg">
<g filter="url(#filter0_d_1539_1008)">
<circle cx="19.3334" cy="17.3333" r="14.6667" fill="white"/>
</g>
<path fill-rule="evenodd" clip-rule="evenodd" d="M10.8339 11.1945C11.0345 11.2285 11.2362 11.2536 11.439 11.27C11.4489 11.3264 11.4784 11.3789 11.5238 11.4207C11.5692 11.4624 11.6283 11.4916 11.6934 11.5042C12.1469 11.593 12.5828 11.7451 12.9799 11.9557C13.3472 12.1483 13.627 12.443 13.772 12.7915C13.814 12.8979 13.8398 13.0075 13.8494 13.1202V14.1619C13.8473 14.2253 13.8617 14.2884 13.8914 14.3465C13.9211 14.4047 13.9655 14.4566 14.0214 14.4984C14.0773 14.5403 14.1433 14.5711 14.2147 14.5886C14.2861 14.6062 14.3612 14.6101 14.4346 14.6001C14.535 14.585 14.6276 14.544 14.6998 14.4825C14.772 14.421 14.8204 14.3421 14.8383 14.2563V13.7105C14.9047 13.5216 14.9928 13.3399 15.1027 13.1655C15.1942 12.9993 15.3041 12.8428 15.4324 12.6961C15.6204 12.5101 15.8439 12.3514 16.0928 12.2267C16.3656 12.0867 16.6482 11.9612 16.939 11.8508C17.105 11.7847 17.501 11.7007 17.7311 11.5883C17.8756 11.5313 18.0009 11.4439 18.095 11.3342C18.1819 11.2426 18.2236 11.1257 18.2112 11.0082C18.1988 10.8908 18.1333 10.7821 18.0286 10.7052C17.9217 10.6165 17.7814 10.5629 17.6326 10.5541C17.4606 10.5627 17.2881 10.5627 17.116 10.5541L16.5319 10.4238C16.3455 10.3684 16.1652 10.2988 15.9932 10.216C15.6112 10.0845 15.2958 9.842 15.1027 9.53129C14.9117 9.15627 14.7786 8.76165 14.7067 8.35735C14.6793 8.24707 14.6092 8.1479 14.5076 8.0759C14.387 8.00979 13.8594 7.87757 13.7819 8.3479V8.93063C13.7627 9.10592 13.7223 9.27905 13.6613 9.44724C13.6171 9.61283 13.5511 9.77244 13.4633 9.92607C13.3631 10.1029 13.2201 10.2596 13.0437 10.3858C12.8673 10.512 12.6616 10.6048 12.4401 10.658C11.9412 10.7693 11.4208 10.7918 10.9113 10.7241C10.8749 10.7191 10.8376 10.7204 10.8017 10.7278C10.7659 10.7353 10.7321 10.7487 10.7024 10.7674C10.6727 10.7862 10.6476 10.8097 10.6287 10.8368C10.6098 10.8639 10.5975 10.8939 10.5923 10.9251C10.5872 10.9563 10.5894 10.9881 10.5988 11.0186C10.6082 11.0491 10.6246 11.0776 10.6471 11.1026C10.6696 11.1276 10.6977 11.1485 10.7298 11.1641C10.7618 11.1797 10.7972 11.1907 10.8339 11.1945ZM12.9799 11.0991C13.4707 10.9347 13.8791 10.6295 14.1348 10.2358L14.3328 10.029L14.4644 10.2264C14.741 10.5815 15.1193 10.8686 15.564 11.0622C15.7196 11.1378 15.8811 11.2036 16.0485 11.2596C15.8033 11.3666 15.5678 11.4891 15.3439 11.6261C15.0826 11.7885 14.8527 11.9848 14.6625 12.2078C14.5858 12.2834 14.5198 12.3649 14.4644 12.4525C14.274 12.1334 13.999 11.8565 13.6613 11.644C13.3715 11.4646 13.0529 11.3229 12.7155 11.2218L12.9799 11.0991ZM28.7976 18.1257C28.7976 16.5853 28.6206 15.2235 28.5774 14.5567C28.5743 14.521 28.5617 14.4864 28.5407 14.4555C28.5196 14.4245 28.4905 14.3981 28.4557 14.3782C28.4071 14.1938 28.3052 14.0227 28.1593 13.8805C27.956 13.7052 27.7177 13.5622 27.4557 13.4583C27.1068 13.3172 26.7362 13.2189 26.3551 13.1665C26.3138 13.16 26.2713 13.1608 26.2304 13.1688C26.1895 13.1767 26.1509 13.1917 26.1169 13.2129C26.083 13.234 26.0544 13.2608 26.033 13.2916C26.0116 13.3224 25.9977 13.3566 25.9922 13.3922C25.9846 13.4268 25.9851 13.4623 25.9938 13.4967C26.0024 13.5311 26.0191 13.5637 26.0426 13.5925C26.0662 13.6214 26.0963 13.6459 26.1312 13.6647C26.166 13.6835 26.2049 13.6962 26.2455 13.702C26.5169 13.7492 26.7773 13.8244 27.0265 13.9277C27.2588 14.0127 27.4657 14.1411 27.6316 14.3036C27.6841 14.365 27.7211 14.4351 27.7402 14.5094C27.7592 14.5837 27.7599 14.6606 27.7422 14.7352C27.7358 14.8054 27.7117 14.8737 27.6716 14.9353C27.6315 14.9969 27.5764 15.0504 27.5099 15.0922C27.0661 15.3224 26.5652 15.4606 26.0475 15.4955C25.2195 15.5962 24.3789 15.5962 23.5508 15.4955C23.3908 15.477 23.2326 15.4486 23.0774 15.4105C22.9203 15.3712 22.766 15.3245 22.615 15.2707L22.032 14.9977C21.9482 14.9562 21.8749 14.9008 21.8164 14.8348C21.7579 14.7688 21.7154 14.6935 21.6913 14.6133C21.6996 14.5149 21.7347 14.4195 21.7938 14.3347C21.853 14.2499 21.9346 14.1781 22.032 14.1251C22.4468 13.8522 22.9221 13.6539 23.4291 13.5423C23.938 13.4111 24.4756 13.3761 25.0022 13.4385C25.0717 13.4471 25.1425 13.4327 25.2 13.3982C25.2576 13.3638 25.2975 13.3118 25.3116 13.253C25.3258 13.1943 25.3131 13.1331 25.2761 13.082C25.2391 13.031 25.1807 12.994 25.1128 12.9785C24.5086 12.8598 23.8807 12.8598 23.2765 12.9785C22.6598 13.0693 22.0693 13.2607 21.5375 13.5423C21.3157 13.6523 21.128 13.8061 20.9902 13.9908C20.8524 14.1755 20.7685 14.3858 20.7455 14.6039C20.7273 14.9238 20.8487 15.2381 21.0862 15.486C20.9424 16.3133 20.8119 17.3655 20.7455 18.4827C20.7455 18.9984 20.7455 19.5245 20.6791 20.06C20.6127 20.5955 20.6791 21.1215 20.6791 21.6372C20.6791 22.1547 20.6791 22.5769 20.7565 23.0652C20.7007 23.0323 20.6415 23.0038 20.5796 22.9802C20.2309 22.8395 19.8607 22.7415 19.48 22.6893C19.3983 22.6798 19.3156 22.6978 19.2491 22.7393C19.1826 22.7808 19.1376 22.8427 19.1234 22.912C19.1092 22.9813 19.1271 23.0526 19.1731 23.1109C19.2192 23.1692 19.2899 23.21 19.3705 23.2248C19.6419 23.272 19.9022 23.3472 20.1515 23.4505C20.3849 23.5374 20.5939 23.6658 20.7676 23.8264C20.8126 23.8831 20.8421 23.9457 20.8561 24.0143V24.071C20.8561 24.2108 20.7787 24.3524 20.7455 24.5026L20.6238 24.615C20.1852 24.8475 19.6873 24.9862 19.1725 25.0192C18.3408 25.1209 17.4964 25.1209 16.6647 25.0192C16.4988 25.0192 16.345 24.9626 16.1912 24.9342C16.0364 24.8964 15.8859 24.8492 15.7399 24.7926L15.147 24.5583C15.0493 24.5151 14.9653 24.4525 14.902 24.3757C14.8386 24.299 14.7978 24.2103 14.783 24.1173C14.7922 24.0177 14.8278 23.9211 14.887 23.8349C14.9462 23.7487 15.0275 23.6751 15.1249 23.6196C15.5471 23.3519 16.0244 23.1542 16.5319 23.0368C17.0395 22.9123 17.5721 22.8805 18.095 22.9433C18.1664 22.9569 18.2412 22.9457 18.303 22.9122C18.3648 22.8788 18.4086 22.8258 18.4247 22.7648C18.4408 22.7025 18.4278 22.6373 18.3886 22.583C18.3494 22.5288 18.2869 22.4896 18.2145 22.4739C17.6052 22.3657 16.9764 22.3657 16.3671 22.4739C15.7519 22.5719 15.1631 22.7659 14.6304 23.0463C14.4083 23.1561 14.2204 23.3099 14.0824 23.4946C13.9444 23.6793 13.8603 23.8896 13.8372 24.1078C13.8295 24.2873 13.8671 24.4667 13.9478 24.6339C13.9478 24.7841 13.8815 24.9248 13.8594 25.0749C13.8483 25.2128 13.8483 25.3507 13.8594 25.4886C13.8483 25.629 13.8483 25.7697 13.8594 25.9108C13.8984 26.1595 13.9611 26.4038 14.0474 26.6437C13.9974 26.6877 13.9694 26.7467 13.9694 26.808C13.9694 26.8693 13.9974 26.9283 14.0474 26.9723C14.3092 27.171 14.6013 27.3384 14.9158 27.4701C15.2189 27.5941 15.5305 27.7005 15.8505 27.7893C16.2111 27.8787 16.5777 27.9413 16.9501 27.9772C17.3166 28.0074 17.6835 28.0074 18.0508 27.9772C18.8225 27.8985 19.5693 27.6943 20.251 27.3756C20.2899 27.3622 20.3251 27.3421 20.3546 27.3167C20.3842 27.2913 20.4073 27.261 20.4227 27.2277C20.4382 27.1944 20.4455 27.1588 20.4443 27.123C20.4431 27.0873 20.4334 27.052 20.4158 27.0196C20.4006 26.9859 20.3774 26.9553 20.3477 26.9297C20.3179 26.9041 20.2823 26.884 20.243 26.8707C20.2038 26.8574 20.1617 26.8512 20.1195 26.8524C20.0773 26.8536 20.0358 26.8623 19.9977 26.8779C19.4921 27.0184 18.9668 27.1007 18.4357 27.1225C18.0402 27.1452 17.6432 27.1452 17.2477 27.1225C16.8499 27.1093 16.4533 27.0778 16.0596 27.0281C15.706 27.0036 15.3559 26.9502 15.0142 26.8684L14.7288 26.7655C14.7288 26.4746 14.7952 26.1932 14.8173 25.9013V25.5254L15.2344 25.686C15.4195 25.759 15.6101 25.8182 15.8063 25.8636L16.4114 25.9769C17.3481 26.1031 18.3021 26.1031 19.2388 25.9769C19.7101 25.9079 20.1658 25.7786 20.5917 25.5916C20.5876 25.6387 20.5876 25.6861 20.5917 25.7332C20.6581 26.0421 20.7455 26.3433 20.8229 26.672C20.8292 26.744 20.8685 26.811 20.9323 26.8584C20.9961 26.9058 21.0792 26.9298 21.1636 26.9251C21.2049 26.9237 21.2454 26.9152 21.2828 26.9002C21.3202 26.8852 21.3537 26.8639 21.3813 26.8377C21.4089 26.8115 21.4301 26.7808 21.4437 26.7475C21.4572 26.7142 21.4628 26.6789 21.4601 26.6437C21.4601 26.3991 21.5265 26.1743 21.5707 25.9391C22.1251 26.2156 22.7257 26.4181 23.3517 26.5398C23.7145 26.6128 24.0814 26.6506 24.4524 26.6531C24.8211 26.6594 25.188 26.6342 25.5531 26.5776C26.4355 26.4548 27.2826 26.1904 28.0498 25.7984C28.0872 25.7835 28.1206 25.7623 28.1482 25.7361C28.1757 25.7099 28.1968 25.6792 28.2101 25.6458C28.2235 25.6125 28.2288 25.5772 28.2257 25.5421C28.2227 25.5069 28.2114 25.4727 28.1925 25.4414C28.1748 25.4084 28.1495 25.3789 28.1179 25.3547C28.0864 25.3304 28.0493 25.312 28.0091 25.3004C27.9688 25.2889 27.9263 25.2846 27.884 25.2877C27.8417 25.2908 27.8006 25.3014 27.7633 25.3186C27.0188 25.5576 26.2367 25.6964 25.4424 25.7323H24.4303C24.1006 25.7323 23.7599 25.7323 23.4291 25.6662C22.7831 25.6186 22.1471 25.4989 21.5375 25.3101V24.9342C21.4608 24.47 21.4608 23.9988 21.5375 23.5346C22.0973 23.8113 22.7013 24.0162 23.3296 24.1456C24.0857 24.2717 24.8633 24.2717 25.6194 24.1456C26.3863 24.0298 27.128 23.8145 27.8186 23.5072C27.8186 24.0984 27.8186 24.5867 27.8739 24.9059C27.8635 24.9551 27.8692 25.0058 27.8902 25.0525C27.9111 25.0992 27.9467 25.14 27.993 25.1707C28.0393 25.2013 28.0945 25.2206 28.1526 25.2264C28.2108 25.2321 28.2697 25.2242 28.323 25.2034C28.3868 25.1774 28.4387 25.1341 28.4707 25.0803C28.5027 25.0265 28.513 24.9652 28.5 24.9059C28.5553 24.2486 28.6659 22.8867 28.7434 21.3463V19.8163C28.7434 19.2997 28.8197 18.6235 28.7976 18.1257ZM21.6802 20.0042V18.4355C21.674 18.3541 21.674 18.2723 21.6802 18.1909C22.209 18.4412 22.7754 18.6282 23.3639 18.7453C23.726 18.8183 24.0925 18.8561 24.4634 18.8586C24.8322 18.8637 25.1987 18.8385 25.563 18.7831C26.2992 18.676 27.0118 18.4731 27.6759 18.1815V20.0883C26.9674 20.3042 26.2258 20.4308 25.4745 20.4642H24.4634C24.1338 20.4642 23.792 20.4642 23.4623 20.4075C22.8285 20.3573 22.2043 20.2406 21.6039 20.06L21.6802 20.0042ZM22.1647 16.0876C22.5421 16.2224 22.9374 16.3169 23.3418 16.3691C24.2747 16.4911 25.2241 16.4911 26.157 16.3691C26.7969 16.2864 27.4042 16.0739 27.9281 15.7495C27.9281 16.2756 27.8396 16.8857 27.8075 17.5628C27.0828 17.7893 26.3226 17.9221 25.552 17.9567H24.5409C24.2101 17.9567 23.8694 17.9567 23.5398 17.9C22.9061 17.8432 22.2824 17.7233 21.6813 17.543V15.8902L22.1647 16.0876ZM25.5531 23.1313H24.5409C24.2101 23.1313 23.8694 23.1313 23.5398 23.0746C22.8783 23.0208 22.2276 22.8944 21.6039 22.6987V20.6993C22.138 20.9567 22.7113 21.1496 23.3075 21.2726C23.671 21.3362 24.0379 21.374 24.4081 21.3859C24.7776 21.391 25.1445 21.3658 25.5088 21.3104C26.2404 21.2009 26.9485 20.9981 27.6095 20.7088V21.1791C27.6095 21.7231 27.6095 22.2492 27.6648 22.7186C26.9875 22.9409 26.2756 23.0771 25.552 23.1228L25.5531 23.1313Z" fill="black"/>
<path fill-rule="evenodd" clip-rule="evenodd" d="M16.3339 21.6004C16.3753 21.6042 16.4171 21.6008 16.457 21.5904C16.4968 21.5801 16.5338 21.5629 16.5657 21.5401C16.5976 21.5173 16.6238 21.4892 16.6427 21.4575C16.6616 21.4258 16.6728 21.3912 16.6757 21.3558C16.7718 20.9123 16.8306 20.4635 16.8516 20.0128V19.4499C16.8401 19.2643 16.818 19.0793 16.7852 18.8955C16.7351 18.5789 16.6616 18.2654 16.5651 17.9567C16.5872 17.7885 16.5684 17.6182 16.5098 17.4565C16.4511 17.2948 16.354 17.1451 16.2243 17.017C16.0212 16.8373 15.7783 16.6939 15.5097 16.5948C15.1639 16.4472 14.7921 16.349 14.4091 16.304C14.3686 16.297 14.3269 16.2972 14.2865 16.3043C14.2461 16.3115 14.2078 16.3255 14.1739 16.3457C14.14 16.3658 14.1113 16.3915 14.0893 16.4213C14.0674 16.4512 14.0527 16.4845 14.0462 16.5193C14.0306 16.5903 14.0485 16.6636 14.0959 16.7234C14.1434 16.7832 14.2166 16.8246 14.2996 16.8385C14.5732 16.8801 14.8335 16.9556 15.0805 17.0652C15.3173 17.1464 15.5285 17.2758 15.6967 17.4401C15.7975 17.5628 15.8373 17.7146 15.8073 17.8623C15.7983 17.9343 15.7721 18.0041 15.7302 18.0671C15.6883 18.1301 15.6317 18.1851 15.5639 18.2287C15.1225 18.4561 14.6261 18.5943 14.1126 18.633C13.2809 18.7346 12.4365 18.7346 11.6048 18.633C11.4314 18.5943 11.262 18.5438 11.0982 18.4818C10.9443 18.4474 10.7934 18.4035 10.6469 18.3506L10.0528 18.1163C9.95613 18.0731 9.87344 18.0101 9.81208 17.933C9.75072 17.8559 9.71258 17.767 9.70105 17.6743C9.70899 17.5755 9.74283 17.4795 9.80008 17.3933C9.85733 17.3072 9.93653 17.2331 10.0318 17.1766C10.4562 16.9145 10.9331 16.7206 11.4389 16.6043C11.9454 16.4767 12.4783 16.4445 13.0009 16.5098C13.0754 16.5236 13.1532 16.5115 13.2173 16.4763C13.2814 16.441 13.3265 16.3855 13.3427 16.3219C13.3526 16.26 13.3355 16.1971 13.2948 16.1453C13.254 16.0934 13.1923 16.0561 13.1214 16.0405C12.5159 15.9322 11.8907 15.9322 11.2851 16.0405C10.6699 16.1337 10.0807 16.325 9.54839 16.6043C9.32339 16.7109 9.13304 16.8637 8.99456 17.0489C8.85608 17.2341 8.77383 17.4458 8.75524 17.6649C8.74086 17.8349 8.77073 18.0049 8.84374 18.1626C8.75746 18.6241 8.69846 19.0875 8.66675 19.5528V20.4926C8.66675 20.8307 8.66675 21.1027 8.73312 21.4313C8.79949 22.1265 8.91011 22.7555 8.9975 23.2447C8.96317 23.2992 8.95322 23.3625 8.9695 23.4228C8.98578 23.4831 9.02719 23.5362 9.086 23.5724L9.17339 23.6291C9.19701 23.6588 9.22704 23.6845 9.26189 23.7046C9.50525 23.8941 9.7689 24.0597 10.0528 24.2014C10.2077 24.2807 10.3729 24.3374 10.5484 24.3714C10.7158 24.4186 10.888 24.4466 11.065 24.4555C11.4647 24.4926 11.8644 24.4926 12.2641 24.4555C12.31 24.4625 12.3571 24.4608 12.4021 24.4506C12.4471 24.4403 12.489 24.4218 12.5247 24.3963C12.5604 24.3708 12.5892 24.3388 12.6089 24.3028C12.6286 24.2668 12.6388 24.2275 12.6388 24.1877C12.6388 24.1479 12.6286 24.1086 12.6089 24.0726C12.5892 24.0366 12.5604 24.0047 12.5247 23.9791C12.489 23.9536 12.4471 23.9351 12.4021 23.9248C12.3571 23.9146 12.31 23.913 12.2641 23.92C11.857 23.835 11.5274 23.7226 11.1646 23.6385L10.4931 23.4496L9.6568 23.1786V21.488C10.2014 21.7509 10.7869 21.9468 11.3958 22.0698C11.7564 22.1378 12.1259 22.1756 12.4953 22.1831C12.8641 22.1875 13.2306 22.1623 13.5949 22.1076C14.4128 21.9843 15.2011 21.7462 15.9279 21.403C15.9366 21.4401 15.9546 21.4751 15.9805 21.5057C16.0064 21.5364 16.0398 21.5619 16.0782 21.5806C16.1167 21.5993 16.1594 21.6108 16.2035 21.6142C16.2476 21.6176 16.2921 21.6129 16.3339 21.6004ZM13.617 21.2245H12.6059C12.2652 21.2245 11.9467 21.2245 11.6059 21.1584C10.9604 21.1078 10.3249 20.9882 9.71433 20.8023V18.8861L9.84596 18.9522C9.99862 19.0214 10.1561 19.0841 10.3183 19.1401C10.5042 19.2106 10.6948 19.2701 10.8902 19.3186C11.0857 19.3652 11.2837 19.4027 11.4843 19.431C12.4214 19.5527 13.3746 19.5527 14.3117 19.431C14.8576 19.3617 15.3813 19.1988 15.8516 18.9522V20.06C15.8516 20.2395 15.9511 20.605 15.9843 20.8212C15.2278 21.0685 14.4267 21.2048 13.617 21.2245ZM19.2719 7.50363C19.7222 7.50363 20.1403 7.65474 20.5917 7.71991H20.6912V7.77658C20.7391 8.18772 20.8195 8.59447 20.9324 8.9968C20.9382 9.06813 20.9755 9.13493 21.0366 9.1838C21.0977 9.23267 21.1783 9.26 21.262 9.2603C21.3467 9.25303 21.4252 9.21913 21.4822 9.1652C21.5393 9.11126 21.5708 9.04114 21.5706 8.96846C21.5706 8.56519 21.7034 8.17985 21.7465 7.76713H21.8129C22.2938 7.73023 22.769 7.65144 23.2311 7.53197C23.3081 7.51215 23.3736 7.46833 23.4146 7.4092C23.4556 7.35007 23.469 7.27995 23.4523 7.21274C23.4392 7.14781 23.4 7.08882 23.3414 7.04589C23.2829 7.00297 23.2087 6.97882 23.1315 6.97758C22.6975 6.96903 22.2644 6.94065 21.8339 6.89258C21.8339 6.46097 21.7675 6.0388 21.7675 5.60624C21.7745 5.55346 21.7613 5.50016 21.7297 5.45435C21.6982 5.40854 21.6502 5.3727 21.5928 5.35219C21.5539 5.33976 21.5126 5.33367 21.4711 5.33425C21.3974 5.32894 21.3241 5.34716 21.2652 5.38536C21.2064 5.42357 21.1662 5.47905 21.1525 5.54108C20.9954 5.9283 20.8671 6.32276 20.7675 6.72447V6.84724C20.2645 6.87402 19.7645 6.93338 19.2719 7.0248C19.2352 7.0247 19.1989 7.0311 19.1652 7.0436C19.1316 7.05609 19.1013 7.07442 19.0764 7.0974C19.0514 7.12039 19.0323 7.14754 19.0203 7.17715C19.0083 7.20675 19.0036 7.23817 19.0065 7.26941C19.0095 7.32942 19.0382 7.38639 19.0871 7.42955C19.136 7.47271 19.2018 7.49907 19.2719 7.50363Z" fill="black"/>
<defs>
<filter id="filter0_d_1539_1008" x="0.666748" y="2.66666" width="37.3333" height="37.3333" filterUnits="userSpaceOnUse" color-interpolation-filters="sRGB">
<feFlood flood-opacity="0" result="BackgroundImageFix"/>
<feColorMatrix in="SourceAlpha" type="matrix" values="0 0 0 0 0 0 0 0 0 0 0 0 0 0 0 0 0 0 127 0" result="hardAlpha"/>
<feOffset dy="4"/>
<feGaussianBlur stdDeviation="2"/>
<feComposite in2="hardAlpha" operator="out"/>
<feColorMatrix type="matrix" values="0 0 0 0 0 0 0 0 0 0 0 0 0 0 0 0 0 0 0.25 0"/>
<feBlend mode="normal" in2="BackgroundImageFix" result="effect1_dropShadow_1539_1008"/>
<feBlend mode="normal" in="SourceGraphic" in2="effect1_dropShadow_1539_1008" result="shape"/>
</filter>
</defs>
</svg>
