<svg width="390" height="337" viewBox="0 0 390 337" fill="none" xmlns="http://www.w3.org/2000/svg">
<g clip-path="url(#clip0_1253_1524)">
<path d="M268.078 104.167C268.065 111.782 265.788 119.221 261.535 125.545C257.283 131.868 251.247 136.792 244.189 139.694C237.131 142.595 229.37 143.344 221.885 141.845C214.401 140.346 207.53 136.667 202.142 131.274C196.754 125.88 193.09 119.013 191.614 111.543C190.138 104.072 190.916 96.3324 193.85 89.3028C196.784 82.2731 201.742 76.2691 208.096 72.05C214.451 67.8309 221.917 65.5861 229.551 65.5996C234.623 65.5955 239.646 66.5912 244.331 68.5296C249.016 70.468 253.271 73.3109 256.851 76.8948C260.432 80.4788 263.267 84.7331 265.193 89.4134C267.12 94.0937 268.1 99.1076 268.078 104.167Z" fill="#F2F2F2"/>
<path d="M332.314 126.609L337.741 116.273C332.874 110.411 316.908 103.302 316.908 103.302L295.298 83.682C295.068 82.8067 294.611 82.0072 293.973 81.3642C293.334 80.7211 292.537 80.2572 291.662 80.019C290.787 79.7808 289.864 79.7768 288.987 80.0074C288.11 80.238 287.309 80.6951 286.665 81.3326C286.021 81.9701 285.557 82.7655 285.319 83.6388C285.081 84.5121 285.079 85.4325 285.311 86.3073C285.543 87.1821 286.002 87.9804 286.642 88.6219C287.282 89.2635 288.08 89.7255 288.956 89.9616L312.301 117.891L332.314 126.609Z" fill="#9E616A"/>
<path d="M329.685 125.896L337.348 128.33C342.92 130.099 348.925 129.966 354.413 127.951C356.073 127.334 357.527 126.267 358.611 124.869C359.695 123.472 360.365 121.8 360.546 120.042C360.776 117.658 360.089 115.275 358.625 113.377C357.161 111.478 355.028 110.205 352.659 109.815C345.473 108.637 336.214 108.056 332.911 111.977L332.877 112.017L329.685 125.896Z" fill="#0B92AA"/>
<path d="M274.568 157.539C295.885 157.539 313.165 140.302 313.165 119.04C313.165 97.7772 295.885 80.5405 274.568 80.5405C253.252 80.5405 235.972 97.7772 235.972 119.04C235.972 140.302 253.252 157.539 274.568 157.539Z" fill="white"/>
<path d="M258.817 103.981C258.287 106.82 257.418 109.585 256.229 112.218C249.421 126.585 268.81 121.902 275.739 121.902C283.315 121.902 290.563 125.876 289.456 108.219C288.983 100.677 283.315 94.5365 275.739 94.5365C269.268 94.5365 260.17 97.4055 258.817 103.981Z" fill="#2F2E41"/>
<path d="M274.604 121.899C280.76 121.899 285.751 116.921 285.751 110.78C285.751 104.639 280.76 99.6611 274.604 99.6611C268.448 99.6611 263.457 104.639 263.457 110.78C263.457 116.921 268.448 121.899 274.604 121.899Z" fill="#FFB6B6"/>
<path d="M267.034 99.4458C268.987 98.258 271.225 97.6155 273.512 97.5854C275.8 97.5553 278.053 98.1388 280.037 99.2748C282.021 100.411 283.663 102.058 284.79 104.043C285.918 106.029 286.49 108.28 286.446 110.561C280.767 111.984 274.799 113.072 268.742 110.901L267.312 107.409L266.469 110.904C264.624 111.656 262.774 112.292 260.925 110.897C260.85 108.622 261.374 106.367 262.446 104.357C263.518 102.348 265.1 100.654 267.034 99.4458Z" fill="#2F2E41"/>
<path d="M304.579 144.639C297.892 152.229 288.482 156.891 278.379 157.619C268.276 158.347 258.291 155.083 250.58 148.532L253.891 139.318C254.639 137.681 255.819 136.279 257.306 135.261C258.792 134.242 260.529 133.647 262.329 133.538L264.435 133.409L269.456 129.089C269.456 129.089 282.988 128.607 282.787 128.376L290.983 133.294L290.976 133.26L294.198 133.457C295.998 133.565 297.735 134.16 299.221 135.179C300.708 136.197 301.888 137.6 302.636 139.236L304.579 144.639Z" fill="#006E82"/>
<path d="M271.182 303.279L270.223 289.973C263.941 286.841 256.987 285.285 249.965 285.442C259.844 293.059 259.053 308.282 265.894 318.7C268.053 321.933 270.913 324.64 274.263 326.62C277.613 328.601 281.367 329.804 285.247 330.14L293.468 334.858C294.409 328.658 293.991 322.328 292.242 316.305C290.494 310.281 287.458 304.707 283.342 299.967C281.007 297.331 278.348 294.998 275.428 293.025C273.631 298.171 271.182 303.279 271.182 303.279Z" fill="#F2F2F2"/>
<path d="M21.2168 67.4443L20.2578 54.1389C13.9755 51.0064 7.02167 49.4509 0 49.6075C9.87854 57.2241 9.08729 72.4471 15.9287 82.8653C18.0874 86.0983 20.9479 88.8053 24.298 90.7858C27.6481 92.7662 31.4021 93.9692 35.2817 94.3057L43.5031 99.0236C44.4435 92.8234 44.0253 86.4935 42.2771 80.4701C40.5289 74.4467 37.4924 68.8729 33.3767 64.1327C31.0414 61.4963 28.3826 59.1638 25.463 57.1901C23.6659 62.3366 21.2168 67.4443 21.2168 67.4443Z" fill="#F2F2F2"/>
<path d="M307.147 330.36L300.734 330.359L297.683 305.686H307.148L307.147 330.36Z" fill="#9E616A"/>
<path d="M308.782 336.56L288.104 336.56V336.299C288.105 334.17 288.953 332.128 290.462 330.622C291.971 329.117 294.018 328.271 296.153 328.271H296.153L299.93 325.412L306.978 328.271L308.783 328.271L308.782 336.56Z" fill="#2F2E41"/>
<path d="M363.666 330.36L357.253 330.359L354.202 305.686H363.667L363.666 330.36Z" fill="#9E616A"/>
<path d="M365.301 336.56L344.624 336.56V336.299C344.624 334.17 345.472 332.128 346.981 330.622C348.49 329.117 350.537 328.271 352.672 328.271H352.672L356.449 325.412L363.497 328.271L365.302 328.271L365.301 336.56Z" fill="#2F2E41"/>
<path d="M353.912 198.306L359.306 249.418C359.306 249.418 366.486 300.596 365.138 307.658C363.789 314.72 365.475 315.728 365.475 315.728L353.171 314.854C353.171 314.854 353.508 310.483 351.485 308.465C349.463 306.448 350.474 300.395 350.474 300.395L326.606 217.137L312.111 260.852C312.111 260.852 309.751 308.937 309.414 309.61C309.077 310.282 308.065 319.362 308.065 319.362H295.592C295.592 319.362 297.278 313.981 294.918 312.3C292.558 310.619 290.535 311.964 292.558 308.937C294.581 305.911 295.255 302.212 294.581 300.531C293.907 298.849 293.907 292.124 293.907 292.124C293.907 292.124 294.918 201.333 300.649 198.306C306.38 195.28 353.912 198.306 353.912 198.306Z" fill="#2F2E41"/>
<path d="M328.369 94.8169C335.696 94.8169 341.635 88.8923 341.635 81.5838C341.635 74.2754 335.696 68.3507 328.369 68.3507C321.042 68.3507 315.102 74.2754 315.102 81.5838C315.102 88.8923 321.042 94.8169 328.369 94.8169Z" fill="#9E616A"/>
<path d="M358.497 203.877C332.805 209.169 298.758 200.07 298.758 200.07L307.84 160.799L304.611 119.7C304.217 114.674 307.087 109.963 311.551 108.294L317.716 105.99L322.811 98.7137L337.366 99.1901L343.184 106.829L347.776 109.259L357.73 114.526L357.774 114.547V114.569L354.65 144.795L352.766 163.019C352.766 163.019 358.488 183.516 357.314 186.234C356.14 188.948 357.161 187.637 357.446 189.088C357.73 190.539 358.602 190.631 358.734 193.489C358.87 196.343 358.497 203.877 358.497 203.877Z" fill="#0B92AA"/>
<path d="M389.555 337H191.096C190.978 337 190.866 336.953 190.782 336.87C190.699 336.787 190.653 336.674 190.653 336.557C190.653 336.439 190.699 336.327 190.782 336.244C190.866 336.161 190.978 336.114 191.096 336.113H389.555C389.673 336.113 389.786 336.16 389.87 336.243C389.953 336.326 390 336.439 390 336.557C390 336.674 389.953 336.787 389.87 336.87C389.786 336.953 389.673 337 389.555 337Z" fill="#CCCCCC"/>
<path d="M327.723 94.1811C330.05 94.1574 332.371 93.9355 334.659 93.5178C336.925 92.9971 341.925 89.1408 343.288 86.8626C344.3 85.17 344.908 82.5519 345.239 80.6537C345.687 78.1416 345.601 75.5638 344.986 73.0871C344.371 70.6104 343.242 68.29 341.671 66.2763C341.066 65.4327 340.243 64.768 339.29 64.3526C339.206 64.3222 339.119 64.2955 339.032 64.2731C337.65 63.9483 336.397 63.219 335.434 62.1788C335.247 61.9682 335.045 61.7714 334.83 61.5897C333.75 60.7269 332.48 60.1314 331.125 59.8518C328.935 59.3273 325.803 59.9846 321.816 61.807C319.813 62.7226 317.589 62.4672 315.876 62.1423C315.779 62.1264 315.681 62.1358 315.59 62.1697C315.498 62.2035 315.417 62.2606 315.355 62.3353C314.648 63.0329 313.702 63.4376 312.707 63.468C312.099 63.5103 311.482 64.3681 310.738 65.485C310.569 65.7386 310.372 66.0345 310.229 66.2151L310.2 65.876L309.865 66.2637C309.339 66.8731 308.976 67.6055 308.81 68.3925C308.644 69.1796 308.68 69.9958 308.916 70.7651C309.151 71.5343 309.578 72.2317 310.156 72.7922C310.734 73.3528 311.445 73.7582 312.223 73.9708C312.84 74.1177 313.47 74.2013 314.104 74.2204C314.489 74.2449 314.886 74.2703 315.268 74.3263C316.494 74.5441 317.643 75.0753 318.602 75.8682C319.561 76.6611 320.298 77.6885 320.74 78.8501C320.845 79.1186 321.009 79.3595 321.222 79.5543C321.435 79.7491 321.689 79.8926 321.966 79.9737C322.243 80.0547 322.535 80.0712 322.82 80.0219C323.104 79.9725 323.373 79.8586 323.606 79.689C323.994 79.3712 324.454 79.1518 324.945 79.0494C325.437 78.947 325.946 78.9647 326.429 79.101C326.849 79.32 327.181 79.6765 327.368 80.1105C327.596 80.5937 327.962 80.9984 328.421 81.273C329.985 82.0271 330.182 85.5414 329.704 88.4875C329.243 91.3273 328.239 93.3989 327.264 93.5251C326.513 93.6222 326.428 93.6778 326.377 93.812L326.331 93.9322L326.419 94.0413C326.838 94.1809 327.283 94.2286 327.723 94.1811Z" fill="#2F2E41"/>
<path d="M274.569 158.021C266.839 158.021 259.284 155.735 252.857 151.452C246.431 147.168 241.422 141.08 238.464 133.957C235.506 126.834 234.732 118.997 236.24 111.435C237.748 103.873 241.47 96.9273 246.935 91.4757C252.401 86.024 259.364 82.3114 266.944 80.8073C274.525 79.3032 282.383 80.0751 289.524 83.0256C296.664 85.976 302.768 90.9723 307.062 97.3828C311.356 103.793 313.648 111.33 313.648 119.04C313.636 129.375 309.515 139.283 302.189 146.591C294.863 153.899 284.929 158.009 274.569 158.021ZM274.569 81.0228C267.031 81.0228 259.662 83.2525 253.394 87.4298C247.127 91.6072 242.242 97.5446 239.357 104.491C236.473 111.438 235.718 119.082 237.188 126.456C238.659 133.831 242.289 140.605 247.619 145.922C252.949 151.239 259.74 154.859 267.133 156.326C274.526 157.793 282.189 157.04 289.154 154.163C296.118 151.285 302.07 146.413 306.258 140.161C310.446 133.909 312.681 126.559 312.681 119.04C312.67 108.961 308.651 99.2974 301.506 92.1704C294.361 85.0433 284.673 81.0343 274.569 81.0228Z" fill="#0B92AA"/>
<path d="M139.674 77.4807C160.99 77.4807 178.27 60.244 178.27 38.9815C178.27 17.7189 160.99 0.482224 139.674 0.482224C118.358 0.482224 101.078 17.7189 101.078 38.9815C101.078 60.244 118.358 77.4807 139.674 77.4807Z" fill="white"/>
<path d="M141.46 42.9086C148.411 42.9086 154.046 37.288 154.046 30.3547C154.046 23.4213 148.411 17.8008 141.46 17.8008C134.51 17.8008 128.875 23.4213 128.875 30.3547C128.875 37.288 134.51 42.9086 141.46 42.9086Z" fill="#FFB8B8"/>
<path d="M152.541 22.0613C152.541 22.0613 155.818 15.8127 148.609 15.2447C148.609 15.2447 142.463 9.68361 136.199 14.228C136.199 14.228 132.782 14.228 130.914 18.0849C130.914 18.0849 128.226 17.0683 127.636 19.7891C127.636 19.7891 125.669 25.4696 127.636 30.5821C129.602 35.6946 130.255 36.2627 130.255 36.2627C130.255 36.2627 128.876 29.9184 136.741 29.3503C144.606 28.7822 151.821 23.8674 152.477 30.116C153.132 36.3646 153.853 33.5418 153.853 33.5418C153.853 33.5418 160.078 24.6176 152.541 22.0613Z" fill="#2F2E41"/>
<path d="M168.7 64.581C162.013 72.1703 152.603 76.8323 142.5 77.5606C132.397 78.2889 122.413 75.0251 114.701 68.4737L118.012 59.2596C118.76 57.623 119.941 56.2204 121.427 55.2023C122.914 54.1841 124.65 53.5887 126.45 53.4799L128.556 53.351L133.578 49.0307C133.578 49.0307 147.109 48.5487 146.908 48.318L155.104 53.2356L155.097 53.2016L158.319 53.3985C160.119 53.5068 161.856 54.102 163.342 55.1202C164.829 56.1385 166.009 57.5413 166.757 59.1781L168.7 64.581Z" fill="#006E82"/>
<path d="M139.674 77.9629C131.945 77.963 124.389 75.6767 117.963 71.3934C111.536 67.1101 106.527 61.022 103.569 53.899C100.612 46.7761 99.8378 38.9382 101.346 31.3766C102.854 23.8149 106.576 16.8691 112.041 11.4174C117.506 5.96576 124.47 2.25313 132.05 0.749022C139.631 -0.755088 147.488 0.0168723 154.629 2.96729C161.77 5.9177 167.874 10.9141 172.168 17.3245C176.462 23.735 178.754 31.2717 178.754 38.9815C178.742 49.3164 174.621 59.2247 167.295 66.5326C159.968 73.8405 150.035 77.9512 139.674 77.9629ZM139.674 0.964559C132.136 0.964557 124.768 3.19421 118.5 7.37156C112.233 11.5489 107.348 17.4863 104.463 24.433C101.578 31.3797 100.823 39.0236 102.294 46.3982C103.765 53.7728 107.394 60.5467 112.725 65.8635C118.055 71.1803 124.846 74.801 132.239 76.2679C139.632 77.7348 147.295 76.9819 154.259 74.1045C161.223 71.2271 167.176 66.3544 171.364 60.1025C175.552 53.8507 177.787 46.5005 177.787 38.9815C177.775 28.9023 173.756 19.2392 166.611 12.1121C159.466 4.98501 149.779 0.975993 139.674 0.964559Z" fill="#0B92AA"/>
<path d="M49.5883 138.248C70.9043 138.248 88.1844 121.011 88.1844 99.7486C88.1844 78.486 70.9043 61.2493 49.5883 61.2493C28.2722 61.2493 10.9922 78.486 10.9922 99.7486C10.9922 121.011 28.2722 138.248 49.5883 138.248Z" fill="white"/>
<path d="M31.6993 87.2248C33.2953 82.1514 36.9245 77.4982 41.9435 75.7831C46.9629 74.068 54.3126 76.6807 58.0861 80.4319C64.9885 87.2937 66.6729 110.867 61.9307 118.316C60.9874 118.266 57.7327 118.229 56.778 118.194L55.4275 113.704V118.149C53.9066 118.102 52.3737 118.07 50.829 118.052C45.6498 117.988 40.6972 115.924 37.0124 112.293C33.3276 108.662 31.1977 103.747 31.0703 98.5819C30.9467 93.6408 31.0704 89.2241 31.6993 87.2248Z" fill="#2F2E41"/>
<path d="M49.016 104.039C55.0909 104.039 60.0156 99.127 60.0156 93.0673C60.0156 87.0076 55.0909 82.0953 49.016 82.0953C42.9411 82.0953 38.0164 87.0076 38.0164 93.0673C38.0164 99.127 42.9411 104.039 49.016 104.039Z" fill="#9E616A"/>
<path d="M39.5229 83.4312L52.188 77.1054C54.7772 78.2693 57.0072 80.1029 58.6466 82.4162C60.2861 84.7294 61.2752 87.4381 61.5115 90.2612L61.8271 94.033L56.5237 92.6863L55.9426 87.8633L55.042 92.3101L52.5945 91.6889L52.6178 84.2013L50.1687 91.6836L41.4273 89.6803L39.5229 83.4312Z" fill="#2F2E41"/>
<path d="M78.2292 125.226C71.5425 132.815 62.1321 137.477 52.0293 138.205C41.9266 138.934 31.9419 135.67 24.2307 129.118L27.5412 119.904C28.2893 118.268 29.4699 116.865 30.9563 115.847C32.4428 114.829 34.1791 114.233 35.979 114.125L38.085 113.996L43.1069 109.675C43.1069 109.675 56.638 109.193 56.4372 108.963L64.6334 113.88L64.6266 113.846L67.8486 114.043C69.6487 114.152 71.3851 114.747 72.8717 115.765C74.3582 116.783 75.5387 118.186 76.2864 119.823L78.2292 125.226Z" fill="#006E82"/>
<path d="M49.5883 138.73C41.8591 138.73 34.3035 136.444 27.8769 132.16C21.4503 127.877 16.4414 121.789 13.4836 114.666C10.5257 107.543 9.75182 99.7053 11.2597 92.1437C12.7676 84.582 16.4896 77.6362 21.9549 72.1845C27.4203 66.7329 34.3836 63.0202 41.9643 61.5161C49.545 60.012 57.4026 60.784 64.5434 63.7344C71.6843 66.6848 77.7876 71.6812 82.0818 78.0916C86.3759 84.5021 88.6678 92.0388 88.6678 99.7486C88.6561 110.084 84.535 119.992 77.2087 127.3C69.8825 134.608 59.9493 138.718 49.5883 138.73ZM49.5883 61.7317C42.0504 61.7317 34.6817 63.9613 28.4141 68.1387C22.1466 72.316 17.2616 78.2534 14.3769 85.2001C11.4923 92.1468 10.7375 99.7908 12.2081 107.165C13.6787 114.54 17.3086 121.314 22.6387 126.631C27.9688 131.947 34.7598 135.568 42.1529 137.035C49.546 138.502 57.2092 137.749 64.1734 134.872C71.1375 131.994 77.0899 127.121 81.2777 120.87C85.4656 114.618 87.7009 107.268 87.7009 99.7486C87.6894 89.6694 83.6703 80.0063 76.5253 72.8792C69.3803 65.7521 59.6929 61.7431 49.5883 61.7317Z" fill="#0B92AA"/>
<path d="M310.215 139.013L304.372 128.905C296.802 129.864 282.231 139.504 282.231 139.504L254.046 147.197C253.182 146.922 252.26 146.879 251.374 147.072C250.488 147.265 249.668 147.688 248.998 148.297C248.327 148.907 247.83 149.682 247.555 150.544C247.28 151.407 247.238 152.326 247.433 153.21C247.628 154.094 248.052 154.911 248.664 155.579C249.276 156.247 250.054 156.743 250.919 157.016C251.784 157.289 252.706 157.33 253.591 157.134C254.477 156.939 255.296 156.514 255.965 155.903L292.114 151.2L310.215 139.013Z" fill="#9E616A"/>
<path d="M308.203 140.845L321.285 129.915L323.188 121.117C323.555 119.389 323.431 117.592 322.828 115.931C322.226 114.269 321.169 112.809 319.778 111.715C317.883 110.244 315.498 109.547 313.107 109.763C310.715 109.979 308.495 111.093 306.896 112.88C302.049 118.301 296.598 125.789 298.148 130.672L298.163 130.722L308.203 140.845Z" fill="#0B92AA"/>
<path d="M107.696 178.814H58.5417C57.2244 178.813 55.9614 178.29 55.0299 177.361C54.0984 176.432 53.5745 175.172 53.573 173.858V143.66C53.5745 142.346 54.0984 141.086 55.0299 140.157C55.9614 139.228 57.2244 138.705 58.5417 138.703H107.696C109.013 138.705 110.276 139.228 111.208 140.157C112.139 141.086 112.663 142.346 112.665 143.66V173.858C112.663 175.172 112.139 176.432 111.208 177.361C110.276 178.29 109.013 178.813 107.696 178.814Z" fill="#E6E6E6"/>
<path d="M88.1664 174.925H61.9971C60.7634 174.923 59.5805 174.434 58.7081 173.564C57.8357 172.694 57.3449 171.514 57.3435 170.283V147.235C57.3449 146.004 57.8357 144.824 58.7081 143.954C59.5805 143.084 60.7634 142.595 61.9971 142.593H104.241C105.475 142.595 106.658 143.084 107.53 143.954C108.402 144.824 108.893 146.004 108.894 147.235V154.249C108.888 159.731 106.702 164.986 102.816 168.862C98.9305 172.738 93.6618 174.919 88.1664 174.925Z" fill="white"/>
<path d="M100.027 155.214H66.211C65.9185 155.214 65.638 155.098 65.4312 154.892C65.2243 154.685 65.1082 154.406 65.1082 154.114C65.1082 153.822 65.2243 153.542 65.4312 153.336C65.638 153.13 65.9185 153.014 66.211 153.014H100.027C100.319 153.014 100.6 153.13 100.807 153.336C101.013 153.542 101.13 153.822 101.13 154.114C101.13 154.406 101.013 154.685 100.807 154.892C100.6 155.098 100.319 155.214 100.027 155.214Z" fill="#006E82"/>
<path d="M71.5007 159.561H66.211C65.9185 159.561 65.638 159.445 65.4312 159.239C65.2244 159.032 65.1082 158.752 65.1082 158.461C65.1082 158.169 65.2244 157.889 65.4312 157.683C65.638 157.476 65.9185 157.361 66.211 157.361H71.5007C71.7932 157.361 72.0737 157.476 72.2806 157.683C72.4874 157.889 72.6036 158.169 72.6036 158.461C72.6036 158.752 72.4874 159.032 72.2806 159.239C72.0737 159.445 71.7932 159.561 71.5007 159.561Z" fill="#006E82"/>
<path d="M80.8695 163.908H66.2112C65.9191 163.907 65.6391 163.791 65.4328 163.585C65.2265 163.378 65.1106 163.099 65.1106 162.808C65.1106 162.516 65.2265 162.237 65.4328 162.031C65.6391 161.824 65.9191 161.708 66.2112 161.707H80.8695C81.1616 161.708 81.4415 161.824 81.6478 162.031C81.8542 162.237 81.9701 162.516 81.9701 162.808C81.9701 163.099 81.8542 163.378 81.6478 163.585C81.4415 163.791 81.1616 163.907 80.8695 163.908Z" fill="#006E82"/>
<path d="M51.8578 148.474C57.6005 148.474 62.2558 143.83 62.2558 138.102C62.2558 132.374 57.6005 127.73 51.8578 127.73C46.1151 127.73 41.4597 132.374 41.4597 138.102C41.4597 143.83 46.1151 148.474 51.8578 148.474Z" fill="#0B92AA"/>
<path d="M235.338 41.8473H186.184C184.866 41.8458 183.604 41.3231 182.672 40.394C181.741 39.4648 181.217 38.205 181.215 36.891V6.69256C181.217 5.37853 181.741 4.11875 182.672 3.18959C183.604 2.26043 184.866 1.73777 186.184 1.73628H235.338C236.655 1.73777 237.918 2.26042 238.85 3.18958C239.781 4.11874 240.305 5.37853 240.307 6.69256V36.891C240.305 38.205 239.781 39.4648 238.85 40.394C237.918 41.3231 236.655 41.8458 235.338 41.8473Z" fill="#E6E6E6"/>
<path d="M215.808 37.9575H189.639C188.405 37.9561 187.222 37.4667 186.35 36.5965C185.478 35.7263 184.987 34.5465 184.985 33.3158V10.2677C184.987 9.03703 185.478 7.85719 186.35 6.987C187.222 6.11681 188.405 5.62735 189.639 5.62599H231.883C233.117 5.62736 234.299 6.11683 235.172 6.98702C236.044 7.85721 236.535 9.03706 236.536 10.2677V17.2817C236.53 22.7634 234.344 28.0188 230.458 31.8949C226.572 35.771 221.304 37.9513 215.808 37.9575Z" fill="white"/>
<path d="M227.669 18.2466H193.853C193.561 18.2466 193.28 18.1307 193.073 17.9244C192.866 17.7181 192.75 17.4383 192.75 17.1465C192.75 16.8548 192.866 16.575 193.073 16.3686C193.28 16.1623 193.561 16.0464 193.853 16.0464H227.669C227.961 16.0464 228.242 16.1623 228.449 16.3686C228.655 16.575 228.772 16.8548 228.772 17.1465C228.772 17.4383 228.655 17.7181 228.449 17.9244C228.242 18.1307 227.961 18.2466 227.669 18.2466Z" fill="#006E82"/>
<path d="M199.143 22.5935H193.853C193.56 22.5935 193.28 22.4776 193.073 22.2713C192.866 22.065 192.75 21.7852 192.75 21.4934C192.75 21.2016 192.866 20.9218 193.073 20.7155C193.28 20.5092 193.56 20.3933 193.853 20.3933H199.143C199.435 20.3933 199.716 20.5092 199.922 20.7155C200.129 20.9218 200.245 21.2016 200.245 21.4934C200.245 21.7852 200.129 22.065 199.922 22.2713C199.716 22.4776 199.435 22.5935 199.143 22.5935Z" fill="#006E82"/>
<path d="M208.511 26.9405H193.853C193.561 26.9399 193.281 26.8237 193.075 26.6175C192.868 26.4112 192.752 26.1317 192.752 25.8404C192.752 25.549 192.868 25.2695 193.075 25.0633C193.281 24.857 193.561 24.7408 193.853 24.7402H208.511C208.804 24.7402 209.084 24.8561 209.291 25.0625C209.498 25.2688 209.614 25.5486 209.614 25.8404C209.614 26.1321 209.498 26.412 209.291 26.6183C209.084 26.8246 208.804 26.9405 208.511 26.9405Z" fill="#006E82"/>
<path d="M179.5 47.6777C185.242 47.6777 189.898 43.034 189.898 37.3058C189.898 31.5775 185.242 26.9338 179.5 26.9338C173.757 26.9338 169.102 31.5775 169.102 37.3058C169.102 43.034 173.757 47.6777 179.5 47.6777Z" fill="#0B92AA"/>
</g>
<defs>
<clipPath id="clip0_1253_1524">
<rect width="390" height="337" fill="white"/>
</clipPath>
</defs>
</svg>
