<svg xmlns="http://www.w3.org/2000/svg" xmlns:xlink="http://www.w3.org/1999/xlink" width="200" zoomAndPan="magnify" viewBox="0 0 150 129.000003" height="172" preserveAspectRatio="xMidYMid meet" version="1.2"><defs><clipPath id="09ec29ff79"><path d="M 0.578125 0 L 149.421875 0 L 149.421875 69 L 0.578125 69 Z M 0.578125 0 "/></clipPath><clipPath id="0528088ce0"><path d="M 63.816406 116.171875 L 68.078125 116.171875 L 68.078125 119.753906 L 63.816406 119.753906 Z M 63.816406 116.171875 "/></clipPath><clipPath id="5b923b657c"><path d="M 68.066406 117.449219 C 66.132812 120.425781 64.421875 119.902344 64.050781 119.234375 C 63.601562 118.636719 63.976562 116.777344 64.570312 116.332031 C 65.164062 115.882812 67.472656 116.554688 67.472656 116.554688 "/></clipPath></defs><g id="68faf96ede"><g clip-rule="nonzero" clip-path="url(#09ec29ff79)"><path style=" stroke:none;fill-rule:evenodd;fill:#80b5be;fill-opacity:1;" d="M 118.769531 -0.015625 C 127.53125 -0.015625 134.644531 7.097656 134.644531 15.859375 C 134.644531 24.621094 127.53125 31.734375 118.769531 31.734375 C 110.007812 31.734375 102.894531 24.621094 102.894531 15.859375 C 102.894531 7.097656 110.007812 -0.015625 118.769531 -0.015625 Z M 31.199219 -0.015625 C 39.960938 -0.015625 47.074219 7.097656 47.074219 15.859375 C 47.074219 24.621094 39.960938 31.734375 31.199219 31.734375 C 22.4375 31.734375 15.324219 24.621094 15.324219 15.859375 C 15.324219 7.097656 22.4375 -0.015625 31.199219 -0.015625 Z M 100.761719 37.261719 C 102.078125 36.417969 103.46875 35.6875 104.925781 35.078125 C 108.820312 37.890625 113.605469 39.546875 118.769531 39.546875 C 123.9375 39.546875 128.71875 37.890625 132.617188 35.078125 C 142.414062 39.171875 149.304688 48.847656 149.304688 60.125 C 149.304688 61.429688 149.210938 62.710938 149.035156 63.964844 C 148.996094 64.210938 148.820312 64.414062 148.578125 64.476562 C 140.058594 66.714844 129.800781 68.023438 118.769531 68.023438 C 111.550781 68.023438 104.660156 67.464844 98.371094 66.449219 C 101.707031 61.761719 103.667969 56.03125 103.667969 49.847656 C 103.667969 45.332031 102.621094 41.0625 100.761719 37.261719 Z M 51.597656 66.449219 C 45.308594 67.464844 38.417969 68.023438 31.199219 68.023438 C 20.167969 68.023438 9.910156 66.714844 1.390625 64.476562 C 1.148438 64.414062 0.972656 64.210938 0.9375 63.964844 C 0.757812 62.710938 0.664062 61.429688 0.664062 60.125 C 0.664062 48.847656 7.558594 39.171875 17.355469 35.078125 C 21.25 37.890625 26.03125 39.546875 31.199219 39.546875 C 36.363281 39.546875 41.148438 37.890625 45.042969 35.078125 C 46.5 35.6875 47.890625 36.417969 49.207031 37.261719 C 47.347656 41.0625 46.300781 45.332031 46.300781 49.847656 C 46.300781 56.03125 48.261719 61.761719 51.597656 66.449219 Z M 51.597656 66.449219 "/></g><path style=" stroke:none;fill-rule:evenodd;fill:#007084;fill-opacity:1;" d="M 74.984375 26.121094 C 88.078125 26.121094 98.710938 36.753906 98.710938 49.847656 C 98.710938 62.941406 88.078125 73.574219 74.984375 73.574219 C 61.890625 73.574219 51.257812 62.941406 51.257812 49.847656 C 51.257812 36.753906 61.890625 26.121094 74.984375 26.121094 Z M 95.675781 78.566406 C 110.316406 84.683594 120.617188 99.148438 120.617188 116 C 120.617188 118.019531 120.46875 120.003906 120.183594 121.945312 C 120.144531 122.1875 119.96875 122.386719 119.726562 122.453125 C 106.957031 125.832031 91.554688 127.804688 74.984375 127.804688 C 58.414062 127.804688 43.011719 125.832031 30.242188 122.453125 C 30 122.386719 29.824219 122.1875 29.785156 121.945312 C 29.5 120.003906 29.351562 118.019531 29.351562 116 C 29.351562 99.148438 39.652344 84.683594 54.292969 78.566406 C 60.113281 82.769531 67.261719 85.246094 74.984375 85.246094 C 82.707031 85.246094 89.855469 82.769531 95.675781 78.566406 Z M 95.675781 78.566406 "/><g clip-rule="nonzero" clip-path="url(#0528088ce0)"><g clip-rule="nonzero" clip-path="url(#5b923b657c)"><path style=" stroke:none;fill-rule:nonzero;fill:#007084;fill-opacity:1;" d="M 61.074219 113.355469 L 71.125 113.355469 L 71.125 123.105469 L 61.074219 123.105469 Z M 61.074219 113.355469 "/></g></g></g></svg>