<svg xmlns="http://www.w3.org/2000/svg" xmlns:xlink="http://www.w3.org/1999/xlink" width="59" zoomAndPan="magnify" viewBox="0 0 44.25 40.5" height="54" preserveAspectRatio="xMidYMid meet" version="1.2"><defs><clipPath id="08af76e9b7"><path d="M 8 0.0898438 L 30 0.0898438 L 30 22 L 8 22 Z M 8 0.0898438 "/></clipPath><clipPath id="2582c12734"><path d="M 0 23.144531 L 38.121094 23.144531 L 38.121094 39.152344 L 0 39.152344 Z M 0 23.144531 "/></clipPath><clipPath id="387a809385"><path d="M 30 12 L 43.511719 12 L 43.511719 26 L 30 26 Z M 30 12 "/></clipPath><clipPath id="2b7df9e2de"><path d="M 20.589844 28.148438 L 22.75 28.148438 L 22.75 29.996094 L 20.589844 29.996094 Z M 20.589844 28.148438 "/></clipPath><clipPath id="e97cbf4284"><path d="M 22.746094 28.820312 C 21.792969 30.339844 20.882812 30.074219 20.691406 29.730469 C 20.503906 29.425781 20.652344 28.476562 20.957031 28.25 C 21.261719 28.019531 22.476562 28.324219 22.476562 28.324219 "/></clipPath></defs><g id="2bb0044ca0"><g clip-rule="nonzero" clip-path="url(#08af76e9b7)"><path style=" stroke:none;fill-rule:nonzero;fill:#ffffff;fill-opacity:1;" d="M 19.011719 21.238281 C 24.832031 21.238281 29.570312 16.503906 29.570312 10.679688 C 29.570312 4.855469 24.832031 0.117188 19.011719 0.117188 C 13.1875 0.117188 8.449219 4.855469 8.449219 10.679688 C 8.449219 16.503906 13.1875 21.238281 19.011719 21.238281 "/></g><g clip-rule="nonzero" clip-path="url(#2582c12734)"><path style=" stroke:none;fill-rule:nonzero;fill:#ffffff;fill-opacity:1;" d="M 19.03125 23.21875 C 8.359375 23.21875 0 28.054688 0 34.230469 L 0 34.277344 C 0.0195312 36.964844 2.238281 39.152344 4.945312 39.152344 L 33.117188 39.152344 C 35.824219 39.152344 38.042969 36.964844 38.0625 34.277344 L 38.0625 34.230469 C 38.0625 28.054688 29.703125 23.21875 19.03125 23.21875 "/></g><g clip-rule="nonzero" clip-path="url(#387a809385)"><path style=" stroke:none;fill-rule:nonzero;fill:#ffffff;fill-opacity:1;" d="M 41.632812 17.300781 L 38.0625 17.300781 L 38.0625 13.730469 C 38.0625 12.90625 37.394531 12.238281 36.570312 12.238281 C 35.75 12.238281 35.082031 12.90625 35.082031 13.730469 L 35.082031 17.300781 L 31.511719 17.300781 C 30.6875 17.300781 30.019531 17.96875 30.019531 18.789062 C 30.019531 19.613281 30.6875 20.28125 31.511719 20.28125 L 35.082031 20.28125 L 35.082031 23.851562 C 35.082031 24.671875 35.75 25.339844 36.570312 25.339844 C 37.394531 25.339844 38.0625 24.671875 38.0625 23.851562 L 38.0625 20.28125 L 41.632812 20.28125 C 42.457031 20.28125 43.125 19.613281 43.125 18.789062 C 43.125 17.96875 42.457031 17.300781 41.632812 17.300781 "/></g><g clip-rule="nonzero" clip-path="url(#2b7df9e2de)"><g clip-rule="nonzero" clip-path="url(#e97cbf4284)"><path style=" stroke:none;fill-rule:nonzero;fill:#ffffff;fill-opacity:1;" d="M 19.171875 26.726562 L 24.304688 26.726562 L 24.304688 31.707031 L 19.171875 31.707031 Z M 19.171875 26.726562 "/></g></g></g></svg>