<svg xmlns="http://www.w3.org/2000/svg" xmlns:xlink="http://www.w3.org/1999/xlink" width="274" zoomAndPan="magnify" viewBox="0 0 205.5 203.999996" height="272" preserveAspectRatio="xMidYMid meet" version="1.2"><defs><clipPath id="ca8d55f5dd"><path d="M 71.804688 118.050781 L 75.328125 118.050781 L 75.328125 121.035156 L 71.804688 121.035156 Z M 71.804688 118.050781 "/></clipPath><clipPath id="d0b8a8e6fa"><path d="M 75.324219 119.101562 C 73.753906 121.644531 72.257812 121.121094 71.957031 120.597656 C 71.65625 120.074219 71.957031 118.578125 72.40625 118.203125 C 72.929688 117.828125 74.875 118.351562 74.875 118.351562 "/></clipPath></defs><g id="4dca53978b"><path style=" stroke:none;fill-rule:nonzero;fill:#026589;fill-opacity:1;" d="M 131.527344 173.652344 C 135.859375 173.652344 140.203125 173.738281 144.539062 173.652344 C 148.339844 173.578125 151.328125 170.566406 151.394531 166.769531 C 151.40625 166.078125 151.394531 165.386719 151.394531 164.695312 C 151.394531 160.84375 151.394531 156.992188 151.394531 153.140625 C 151.394531 142.992188 151.394531 132.84375 151.394531 122.691406 C 151.394531 120.738281 151.394531 118.785156 151.394531 116.835938 C 151.394531 114.664062 148.023438 114.660156 148.023438 116.835938 C 148.023438 123.515625 148.023438 130.195312 148.023438 136.875 C 148.023438 146.023438 148.023438 155.171875 148.023438 164.316406 C 148.023438 165.109375 148.027344 165.898438 148.023438 166.691406 C 148.007812 168.675781 146.53125 170.242188 144.523438 170.28125 C 143.277344 170.304688 142.027344 170.28125 140.78125 170.28125 C 133.3125 170.28125 125.84375 170.28125 118.375 170.28125 C 107.855469 170.28125 97.339844 170.28125 86.824219 170.28125 C 77.5625 170.28125 68.300781 170.28125 59.039062 170.28125 C 56.222656 170.28125 53.40625 170.28125 50.589844 170.28125 C 49.199219 170.28125 47.367188 170.53125 46.125 169.804688 C 44.273438 168.722656 44.398438 166.867188 44.398438 165.0625 C 44.398438 162.867188 44.398438 160.667969 44.398438 158.472656 C 44.398438 154.914062 44.398438 151.355469 44.398438 147.800781 C 44.398438 146.226562 44.398438 144.652344 44.398438 143.082031 C 44.398438 140.222656 44.398438 137.363281 44.398438 134.503906 C 44.398438 133.261719 44.398438 132.023438 44.398438 130.785156 C 44.398438 125.023438 44.398438 119.257812 44.398438 113.496094 C 44.398438 110.03125 44.398438 106.566406 44.398438 103.105469 C 44.398438 100.078125 44.398438 97.054688 44.398438 94.027344 C 44.398438 87.679688 44.398438 81.332031 44.398438 74.980469 C 44.398438 74.195312 44.398438 73.40625 44.398438 72.621094 C 44.398438 68.066406 44.398438 63.515625 44.398438 58.960938 C 44.398438 56.414062 44.398438 53.863281 44.398438 51.316406 C 44.398438 50.46875 44.398438 49.621094 44.398438 48.773438 C 44.398438 48.125 44.398438 47.476562 44.398438 46.828125 C 44.398438 46.746094 44.40625 46.667969 44.40625 46.585938 C 44.414062 46.382812 44.433594 46.183594 44.464844 45.988281 C 44.46875 45.953125 44.476562 45.921875 44.484375 45.890625 C 44.710938 44.753906 45.417969 43.828125 46.425781 43.355469 C 47.109375 43.0625 47.863281 43.007812 48.648438 43.007812 C 51.488281 43.007812 54.328125 43.007812 57.167969 43.007812 C 62.132812 43.007812 67.09375 43.007812 72.058594 43.007812 C 72.058594 43.582031 72.058594 44.15625 72.058594 44.730469 C 72.058594 46.378906 71.910156 48.152344 72.207031 49.804688 C 72.324219 50.519531 72.539062 51.214844 72.898438 51.878906 C 72.945312 51.964844 72.988281 52.050781 73.042969 52.136719 C 73.066406 52.179688 73.082031 52.21875 73.109375 52.261719 C 73.148438 52.320312 73.191406 52.371094 73.230469 52.429688 C 73.253906 52.460938 73.273438 52.5 73.296875 52.535156 C 73.324219 52.566406 73.351562 52.597656 73.378906 52.632812 C 73.503906 52.800781 73.632812 52.960938 73.769531 53.113281 C 73.8125 53.164062 73.859375 53.214844 73.90625 53.265625 C 74.046875 53.417969 74.195312 53.558594 74.347656 53.695312 C 74.398438 53.742188 74.449219 53.785156 74.5 53.828125 C 74.660156 53.960938 74.824219 54.085938 74.992188 54.203125 C 75.042969 54.238281 75.09375 54.277344 75.144531 54.308594 C 75.328125 54.429688 75.519531 54.542969 75.714844 54.644531 C 75.753906 54.664062 75.789062 54.6875 75.828125 54.707031 C 76.054688 54.820312 76.285156 54.921875 76.523438 55.011719 C 76.535156 55.015625 76.542969 55.019531 76.554688 55.023438 C 76.777344 55.105469 77.007812 55.171875 77.242188 55.234375 C 77.347656 55.261719 77.457031 55.285156 77.566406 55.304688 C 77.699219 55.335938 77.839844 55.359375 77.976562 55.378906 C 78.054688 55.390625 78.132812 55.414062 78.210938 55.421875 C 78.25 55.425781 78.285156 55.421875 78.320312 55.425781 C 78.546875 55.449219 78.777344 55.464844 79.007812 55.46875 C 79.027344 55.46875 79.046875 55.46875 79.066406 55.46875 C 79.480469 55.472656 79.898438 55.472656 80.3125 55.472656 C 81.148438 55.472656 81.988281 55.46875 82.824219 55.46875 C 86.871094 55.46875 90.917969 55.46875 94.96875 55.46875 C 98.800781 55.46875 102.632812 55.46875 106.464844 55.46875 C 106.671875 55.46875 106.878906 55.46875 107.085938 55.46875 C 109.433594 55.46875 111.867188 55.621094 114.238281 55.484375 C 115.253906 55.46875 116.273438 55.390625 117.199219 55.085938 C 117.257812 55.066406 117.308594 55.039062 117.363281 55.015625 C 118.019531 54.785156 118.621094 54.429688 119.085938 53.882812 C 119.601562 53.269531 119.890625 52.546875 120.0625 51.789062 C 120.371094 50.636719 120.425781 49.355469 120.398438 48.148438 C 120.441406 46.449219 120.320312 44.652344 119.542969 43.214844 C 119.164062 42.511719 118.625 41.972656 118.003906 41.546875 C 117.902344 41.480469 117.800781 41.417969 117.699219 41.355469 C 117.570312 41.28125 117.441406 41.207031 117.304688 41.140625 C 117.238281 41.105469 117.183594 41.066406 117.113281 41.035156 C 117.058594 41.007812 117 40.988281 116.945312 40.964844 C 116.867188 40.933594 116.792969 40.902344 116.714844 40.871094 C 116.632812 40.839844 116.546875 40.808594 116.464844 40.78125 C 115.925781 40.585938 115.363281 40.4375 114.800781 40.335938 C 114.734375 40.324219 114.667969 40.316406 114.601562 40.304688 C 114.339844 40.257812 114.074219 40.214844 113.8125 40.179688 C 110.605469 39.707031 107.304688 39.730469 104.082031 39.65625 C 102.4375 39.617188 100.789062 39.636719 99.140625 39.636719 C 99.121094 39.636719 99.101562 39.636719 99.082031 39.636719 C 96.710938 39.636719 94.339844 39.636719 91.96875 39.636719 C 90.808594 39.636719 89.652344 39.636719 88.492188 39.636719 C 84.136719 39.636719 79.785156 39.636719 75.429688 39.636719 C 75.429688 38.65625 75.429688 37.679688 75.429688 36.699219 C 75.429688 36.5625 75.429688 36.425781 75.425781 36.285156 C 75.429688 35.6875 75.425781 35.089844 75.429688 34.492188 C 75.460938 33.839844 75.550781 33.203125 75.765625 32.636719 C 76.316406 31.398438 77.511719 30.5625 79.019531 30.550781 C 79.859375 30.542969 80.699219 30.546875 81.539062 30.550781 C 81.734375 30.550781 81.933594 30.550781 82.132812 30.550781 C 87.664062 30.550781 93.195312 30.550781 98.730469 30.550781 C 102.582031 30.550781 106.4375 30.550781 110.289062 30.550781 C 111.195312 30.550781 112.097656 30.546875 113.003906 30.550781 C 113.144531 30.550781 113.285156 30.550781 113.421875 30.554688 C 113.585938 30.558594 113.746094 30.566406 113.910156 30.585938 C 113.914062 30.585938 113.914062 30.585938 113.917969 30.585938 C 114.261719 30.628906 114.589844 30.714844 114.90625 30.847656 C 114.960938 30.871094 115.011719 30.898438 115.066406 30.925781 C 115.195312 30.988281 115.316406 31.054688 115.429688 31.128906 C 115.46875 31.15625 115.503906 31.183594 115.542969 31.210938 C 115.648438 31.289062 115.753906 31.367188 115.84375 31.449219 C 116.667969 32.214844 116.992188 33.351562 116.992188 34.554688 C 116.992188 36.722656 120.363281 36.726562 120.363281 34.554688 C 120.363281 34.261719 120.351562 33.976562 120.324219 33.695312 C 120.324219 33.660156 120.316406 33.625 120.3125 33.589844 C 120.164062 32.011719 119.632812 30.566406 118.507812 29.34375 C 118.238281 29.050781 117.933594 28.800781 117.617188 28.566406 C 117.582031 28.539062 117.554688 28.511719 117.519531 28.484375 C 117.394531 28.394531 117.265625 28.308594 117.136719 28.226562 C 117.085938 28.195312 117.03125 28.164062 116.980469 28.132812 C 116.894531 28.082031 116.804688 28.035156 116.71875 27.988281 C 116.585938 27.917969 116.453125 27.851562 116.316406 27.792969 C 116.269531 27.773438 116.222656 27.75 116.175781 27.730469 C 115.984375 27.652344 115.792969 27.582031 115.597656 27.519531 C 115.585938 27.515625 115.574219 27.511719 115.5625 27.507812 C 115.363281 27.445312 115.15625 27.394531 114.953125 27.351562 C 114.847656 27.328125 114.738281 27.3125 114.632812 27.292969 C 114.542969 27.277344 114.457031 27.261719 114.367188 27.25 C 114.234375 27.234375 114.101562 27.21875 113.96875 27.207031 C 113.894531 27.203125 113.820312 27.199219 113.746094 27.195312 C 113.664062 27.1875 113.582031 27.179688 113.496094 27.175781 C 112.625 27.160156 111.753906 27.175781 110.882812 27.175781 C 110.082031 27.175781 109.277344 27.175781 108.476562 27.175781 C 104.613281 27.175781 100.75 27.175781 96.882812 27.175781 C 94.4375 27.175781 91.992188 27.175781 89.542969 27.175781 C 87.109375 27.175781 84.671875 27.175781 82.234375 27.175781 C 82.035156 27.175781 81.835938 27.175781 81.632812 27.175781 C 80.160156 27.175781 78.523438 27.027344 77.089844 27.421875 C 74.632812 28.097656 72.601562 30.234375 72.183594 32.769531 C 72.164062 32.871094 72.15625 32.976562 72.144531 33.078125 C 72.132812 33.164062 72.113281 33.246094 72.105469 33.332031 C 71.921875 34.933594 72.054688 36.609375 72.054688 38.21875 C 72.054688 38.691406 72.054688 39.164062 72.054688 39.636719 C 71.070312 39.636719 70.085938 39.636719 69.101562 39.636719 C 66.449219 39.636719 63.792969 39.636719 61.140625 39.636719 C 58.144531 39.636719 55.144531 39.636719 52.148438 39.636719 C 51.386719 39.636719 50.625 39.636719 49.863281 39.636719 C 49.308594 39.636719 48.753906 39.632812 48.199219 39.636719 C 48.097656 39.636719 47.996094 39.632812 47.894531 39.636719 C 46.160156 39.667969 44.59375 40.320312 43.394531 41.371094 C 43.390625 41.378906 43.382812 41.382812 43.378906 41.386719 C 43.242188 41.503906 43.117188 41.625 42.992188 41.753906 C 42.894531 41.851562 42.800781 41.957031 42.710938 42.0625 C 42.675781 42.101562 42.640625 42.140625 42.609375 42.179688 C 41.933594 42.988281 41.441406 43.96875 41.199219 45.074219 C 41.195312 45.089844 41.1875 45.109375 41.183594 45.125 C 41.148438 45.292969 41.125 45.460938 41.101562 45.632812 C 41.089844 45.699219 41.078125 45.765625 41.070312 45.832031 C 41.066406 45.859375 41.0625 45.882812 41.058594 45.90625 C 40.945312 47.066406 40.96875 48.257812 40.996094 49.441406 C 40.988281 52.101562 41.027344 54.769531 41.027344 57.429688 C 41.027344 59.652344 41.027344 61.875 41.027344 64.097656 C 41.027344 70.066406 41.027344 76.035156 41.027344 82.007812 C 41.027344 82.582031 41.027344 83.15625 41.027344 83.730469 C 41.027344 89.886719 41.027344 96.042969 41.027344 102.199219 C 41.027344 106.929688 41.027344 111.660156 41.027344 116.390625 C 41.027344 118.121094 41.027344 119.851562 41.027344 121.585938 C 41.027344 126.855469 41.027344 132.125 41.027344 137.394531 C 41.027344 140.394531 41.027344 143.394531 41.027344 146.394531 C 41.027344 146.453125 41.027344 146.515625 41.027344 146.574219 C 41.027344 146.984375 41.027344 147.390625 41.027344 147.800781 C 41.027344 153.445312 41.027344 159.09375 41.027344 164.738281 C 41.027344 166.726562 40.929688 168.664062 42.078125 170.445312 C 43.410156 172.511719 45.632812 173.640625 48.070312 173.652344 C 48.628906 173.65625 49.1875 173.652344 49.75 173.652344 C 56.5625 173.652344 63.378906 173.652344 70.191406 173.652344 C 80.828125 173.652344 91.460938 173.652344 102.097656 173.652344 C 111.90625 173.652344 121.71875 173.652344 131.527344 173.652344 Z M 116.398438 51.796875 C 116.398438 51.796875 116.394531 51.800781 116.394531 51.800781 C 116.394531 51.800781 116.394531 51.800781 116.390625 51.800781 C 116.394531 51.800781 116.394531 51.796875 116.398438 51.796875 Z M 116.464844 51.753906 C 116.460938 51.753906 116.457031 51.757812 116.453125 51.757812 C 116.460938 51.753906 116.464844 51.75 116.472656 51.746094 C 116.46875 51.75 116.46875 51.75 116.464844 51.753906 Z M 75.429688 45.878906 C 75.429688 44.921875 75.429688 43.964844 75.429688 43.007812 C 75.503906 43.007812 75.578125 43.007812 75.652344 43.007812 C 81.464844 43.007812 87.277344 43.007812 93.085938 43.007812 C 94.757812 43.007812 96.429688 43.007812 98.101562 43.007812 C 101.59375 43.007812 105.074219 43.023438 108.5625 43.15625 C 109.3125 43.183594 110.0625 43.21875 110.8125 43.265625 C 111.371094 43.304688 111.929688 43.34375 112.488281 43.402344 C 112.703125 43.421875 112.914062 43.441406 113.128906 43.46875 C 113.171875 43.472656 113.21875 43.480469 113.265625 43.484375 C 113.269531 43.484375 113.269531 43.484375 113.277344 43.484375 C 113.3125 43.492188 113.347656 43.496094 113.382812 43.503906 C 113.433594 43.511719 113.480469 43.519531 113.527344 43.527344 C 113.847656 43.578125 114.167969 43.636719 114.484375 43.707031 C 114.566406 43.726562 114.644531 43.75 114.726562 43.769531 C 114.886719 43.8125 115.050781 43.855469 115.210938 43.902344 C 115.429688 43.988281 115.824219 44.15625 115.578125 44.027344 C 115.582031 44.027344 115.582031 44.027344 115.585938 44.03125 C 115.667969 44.070312 115.746094 44.109375 115.824219 44.152344 C 115.921875 44.207031 116.015625 44.265625 116.113281 44.320312 C 116.234375 44.421875 116.328125 44.519531 116.164062 44.351562 C 116.171875 44.355469 116.175781 44.359375 116.183594 44.363281 C 116.261719 44.441406 116.339844 44.515625 116.417969 44.585938 C 116.417969 44.585938 116.417969 44.582031 116.417969 44.582031 C 116.425781 44.589844 116.429688 44.597656 116.4375 44.605469 C 116.441406 44.605469 116.441406 44.605469 116.441406 44.605469 C 116.441406 44.605469 116.441406 44.605469 116.4375 44.605469 C 116.433594 44.597656 116.425781 44.589844 116.417969 44.585938 C 116.492188 44.722656 116.53125 44.761719 116.535156 44.75 C 116.542969 44.761719 116.546875 44.769531 116.554688 44.777344 C 116.632812 44.941406 116.75 45.363281 116.648438 44.957031 C 116.652344 44.960938 116.65625 44.96875 116.660156 44.976562 C 116.679688 45.042969 116.703125 45.113281 116.726562 45.183594 C 116.753906 45.285156 116.78125 45.386719 116.808594 45.488281 C 116.832031 45.597656 116.855469 45.703125 116.878906 45.808594 C 116.886719 45.855469 116.898438 45.902344 116.90625 45.949219 C 116.90625 45.960938 116.910156 45.972656 116.910156 45.980469 C 116.910156 45.972656 116.90625 45.960938 116.90625 45.953125 C 116.90625 45.957031 116.910156 45.960938 116.910156 45.96875 C 116.914062 46 116.917969 46.03125 116.917969 46.0625 C 116.921875 46.066406 116.921875 46.074219 116.921875 46.074219 C 116.921875 46.082031 116.917969 46.058594 116.910156 45.980469 C 116.914062 46.023438 116.917969 46.070312 116.921875 46.113281 C 116.96875 46.675781 116.988281 47.238281 116.992188 47.800781 C 116.992188 48.316406 116.984375 48.832031 116.964844 49.34375 C 116.957031 49.523438 116.949219 49.703125 116.9375 49.886719 C 116.933594 49.933594 116.929688 49.984375 116.929688 50.03125 C 116.917969 50.140625 116.882812 50.464844 116.878906 50.53125 C 116.878906 50.542969 116.878906 50.554688 116.875 50.570312 C 116.859375 50.664062 116.84375 50.757812 116.824219 50.851562 C 116.78125 51.027344 116.738281 51.199219 116.695312 51.375 C 116.6875 51.398438 116.683594 51.410156 116.675781 51.429688 C 116.671875 51.441406 116.667969 51.449219 116.664062 51.460938 C 116.628906 51.519531 116.578125 51.601562 116.546875 51.660156 C 116.539062 51.667969 116.535156 51.679688 116.527344 51.6875 C 116.515625 51.703125 116.503906 51.714844 116.492188 51.726562 C 116.460938 51.746094 116.433594 51.761719 116.414062 51.773438 C 116.320312 51.78125 116.226562 51.820312 116.230469 51.832031 C 116.195312 51.84375 116.1875 51.847656 116.238281 51.847656 C 116.21875 51.851562 116.203125 51.855469 116.183594 51.863281 C 116.058594 51.894531 115.933594 51.925781 115.804688 51.957031 C 115.738281 51.96875 115.675781 51.984375 115.609375 51.996094 C 115.585938 52 115.5625 52 115.542969 52.003906 C 115.464844 52.011719 115.386719 52.019531 115.3125 52.023438 C 115.011719 52.042969 114.710938 52.058594 114.410156 52.066406 C 114.289062 52.070312 114.167969 52.082031 114.046875 52.082031 C 113.304688 52.097656 112.5625 52.101562 111.816406 52.101562 C 111.089844 52.101562 110.359375 52.097656 109.632812 52.097656 C 109.316406 52.097656 109.003906 52.097656 108.6875 52.097656 C 103.546875 52.097656 98.410156 52.097656 93.273438 52.097656 C 92.730469 52.097656 92.1875 52.097656 91.644531 52.097656 C 89.523438 52.097656 87.398438 52.097656 85.277344 52.097656 C 84.734375 52.097656 84.191406 52.097656 83.648438 52.097656 C 82.683594 52.097656 81.71875 52.097656 80.75 52.097656 C 80.488281 52.097656 80.222656 52.097656 79.957031 52.097656 C 79.523438 52.097656 79.085938 52.109375 78.65625 52.074219 C 78.5 52.0625 78.34375 52.042969 78.191406 52.015625 C 78.15625 52.007812 78.117188 52 78.078125 51.992188 C 77.902344 51.953125 77.722656 51.902344 77.550781 51.828125 C 77.546875 51.828125 77.546875 51.824219 77.542969 51.824219 C 76.921875 51.558594 76.421875 51.125 76.0625 50.597656 C 75.628906 49.90625 75.476562 49.066406 75.429688 48.195312 C 75.429688 47.828125 75.429688 47.460938 75.429688 47.097656 C 75.429688 46.753906 75.429688 46.414062 75.429688 46.074219 C 75.429688 46.007812 75.429688 45.941406 75.429688 45.878906 Z M 129.082031 39.636719 C 132.695312 39.636719 136.308594 39.636719 139.921875 39.636719 C 141.367188 39.636719 142.8125 39.632812 144.261719 39.636719 C 146.789062 39.644531 149.15625 40.804688 150.460938 43.03125 C 151.871094 45.441406 151.394531 48.851562 151.394531 51.539062 C 151.394531 58.074219 151.394531 64.609375 151.394531 71.148438 C 151.394531 73.320312 148.023438 73.316406 148.023438 71.148438 C 148.023438 68.414062 148.023438 65.683594 148.023438 62.949219 C 148.023438 58.921875 148.023438 54.890625 148.023438 50.859375 C 148.023438 49.617188 148.023438 48.371094 148.023438 47.125 C 148.023438 45.859375 147.808594 44.667969 146.757812 43.804688 C 145.726562 42.953125 144.539062 43.007812 143.300781 43.007812 C 141.527344 43.007812 139.753906 43.007812 137.984375 43.007812 C 135.015625 43.007812 132.050781 43.007812 129.082031 43.007812 C 126.910156 43.007812 126.914062 39.636719 129.082031 39.636719 Z M 65.484375 54.953125 C 63.570312 54.953125 61.652344 54.953125 59.738281 54.953125 C 58.585938 54.953125 57.433594 54.953125 56.285156 54.953125 C 55.414062 54.953125 54.640625 54.992188 53.941406 55.585938 C 53.140625 56.261719 53.007812 57.152344 53.007812 58.121094 C 53.007812 60.101562 53.007812 62.085938 53.007812 64.070312 C 53.007812 67.820312 53.007812 71.566406 53.007812 75.316406 C 53.007812 80.285156 53.007812 85.25 53.007812 90.21875 C 53.007812 95.777344 53.007812 101.339844 53.007812 106.898438 C 53.007812 112.496094 53.007812 118.097656 53.007812 123.695312 C 53.007812 128.785156 53.007812 133.871094 53.007812 138.960938 C 53.007812 142.910156 53.007812 146.855469 53.007812 150.804688 C 53.007812 153.074219 53.007812 155.34375 53.007812 157.613281 C 53.007812 157.925781 53.003906 158.238281 53.007812 158.550781 C 53.042969 160.21875 54.375 161.195312 55.945312 161.203125 C 58.03125 161.210938 60.121094 161.203125 62.207031 161.203125 C 66.386719 161.203125 70.5625 161.203125 74.742188 161.203125 C 80.078125 161.203125 85.414062 161.203125 90.75 161.203125 C 96.398438 161.203125 102.046875 161.203125 107.695312 161.203125 C 112.710938 161.203125 117.722656 161.203125 122.738281 161.203125 C 126.257812 161.203125 129.777344 161.203125 133.296875 161.203125 C 134.804688 161.203125 137.261719 161.601562 138.480469 160.574219 C 139.558594 159.660156 139.414062 158.367188 139.414062 157.097656 C 139.414062 155.214844 139.414062 153.332031 139.414062 151.453125 C 139.414062 146.003906 139.414062 140.554688 139.414062 135.105469 C 139.414062 132.074219 139.414062 129.042969 139.414062 126.011719 C 139.414062 123.839844 142.785156 123.84375 142.785156 126.011719 C 142.785156 126.867188 142.785156 127.726562 142.785156 128.582031 C 142.785156 133.597656 142.785156 138.613281 142.785156 143.628906 C 142.785156 148.191406 142.785156 152.753906 142.785156 157.3125 C 142.785156 159.273438 142.589844 161.117188 141.167969 162.65625 C 139.890625 164.039062 138.128906 164.574219 136.296875 164.574219 C 133.988281 164.574219 131.675781 164.574219 129.367188 164.574219 C 124.980469 164.574219 120.59375 164.574219 116.207031 164.574219 C 110.691406 164.574219 105.175781 164.574219 99.660156 164.574219 C 93.957031 164.574219 88.253906 164.574219 82.550781 164.574219 C 77.601562 164.574219 72.65625 164.574219 67.707031 164.574219 C 64.453125 164.574219 61.203125 164.574219 57.949219 164.574219 C 57.253906 164.574219 56.558594 164.578125 55.863281 164.574219 C 53.121094 164.558594 50.660156 162.90625 49.871094 160.222656 C 49.425781 158.707031 49.636719 156.863281 49.636719 155.304688 C 49.636719 152.140625 49.636719 148.980469 49.636719 145.820312 C 49.636719 141.179688 49.636719 136.542969 49.636719 131.90625 C 49.636719 126.398438 49.636719 120.894531 49.636719 115.390625 C 49.636719 109.65625 49.636719 103.921875 49.636719 98.1875 C 49.636719 92.773438 49.636719 87.359375 49.636719 81.949219 C 49.636719 77.492188 49.636719 73.039062 49.636719 68.582031 C 49.636719 65.695312 49.636719 62.808594 49.636719 59.921875 C 49.636719 59.257812 49.632812 58.589844 49.636719 57.925781 C 49.640625 55.859375 50.449219 53.976562 52.144531 52.726562 C 54.191406 51.21875 56.929688 51.582031 59.328125 51.582031 C 61.378906 51.582031 63.433594 51.582031 65.484375 51.582031 C 67.660156 51.582031 67.65625 54.953125 65.484375 54.953125 Z M 139.414062 73.757812 C 139.414062 68.574219 139.414062 63.386719 139.414062 58.203125 C 139.414062 57.496094 139.410156 56.863281 139.03125 56.238281 C 138.386719 55.175781 137.359375 54.953125 136.214844 54.953125 C 133.941406 54.953125 131.667969 54.953125 129.390625 54.953125 C 127.21875 54.953125 127.21875 51.582031 129.390625 51.582031 C 131.84375 51.582031 134.296875 51.53125 136.75 51.582031 C 139.144531 51.632812 141.324219 52.996094 142.277344 55.21875 C 142.691406 56.179688 142.785156 57.171875 142.785156 58.203125 C 142.785156 60.527344 142.785156 62.855469 142.785156 65.179688 C 142.785156 69.8125 142.785156 74.445312 142.785156 79.078125 C 142.785156 81.253906 139.414062 81.25 139.414062 79.078125 C 139.414062 77.304688 139.414062 75.53125 139.414062 73.757812 Z M 151.726562 75.921875 C 144.804688 82.585938 137.886719 89.253906 130.96875 95.917969 C 125.234375 101.441406 119.503906 106.964844 113.769531 112.488281 C 110.941406 115.214844 108.066406 117.898438 105.28125 120.667969 C 104.945312 121 104.726562 121.371094 104.558594 121.820312 C 104.078125 123.097656 103.621094 124.382812 103.152344 125.664062 C 101.613281 129.878906 100.070312 134.09375 98.53125 138.308594 C 98.214844 139.167969 97.902344 140.027344 97.585938 140.886719 C 97.148438 142.085938 98.496094 143.339844 99.660156 142.960938 C 102.941406 141.898438 106.21875 140.835938 109.5 139.773438 C 111.738281 139.046875 113.976562 138.324219 116.21875 137.597656 C 116.945312 137.363281 117.671875 137.125 118.398438 136.890625 C 118.777344 136.769531 119.234375 136.671875 119.578125 136.46875 C 119.9375 136.257812 120.25 135.886719 120.546875 135.601562 C 121.152344 135.019531 121.761719 134.433594 122.367188 133.847656 C 124.558594 131.734375 126.75 129.625 128.941406 127.511719 C 135.648438 121.050781 142.355469 114.589844 149.0625 108.128906 C 156.03125 101.414062 162.996094 94.703125 169.964844 87.992188 C 173.625 84.464844 177.390625 81.019531 180.957031 77.398438 C 181.011719 77.34375 181.066406 77.296875 181.117188 77.246094 C 181.582031 76.796875 182.046875 76.351562 182.507812 75.90625 C 183.460938 74.988281 184.414062 74.070312 185.367188 73.152344 C 186.769531 71.800781 188.246094 70.511719 189.269531 68.835938 C 189.78125 67.992188 190.160156 67.085938 190.425781 66.144531 C 190.59375 66.121094 190.765625 66.105469 190.9375 66.074219 C 192.996094 65.671875 194.449219 64.398438 195.902344 63 C 197.328125 61.628906 198.765625 60.265625 200.179688 58.878906 C 202.390625 56.710938 202.375 53.410156 200.265625 51.183594 C 198.972656 49.820312 197.65625 48.476562 196.351562 47.121094 C 195.207031 45.933594 194.085938 44.714844 192.914062 43.550781 C 190.800781 41.464844 187.585938 41.476562 185.417969 43.460938 C 184.695312 44.125 184 44.828125 183.292969 45.507812 C 179.144531 49.503906 174.996094 53.5 170.847656 57.5 C 164.472656 63.640625 158.097656 69.78125 151.726562 75.921875 Z M 185.367188 48.191406 C 186.117188 47.472656 186.863281 46.746094 187.613281 46.027344 C 187.996094 45.664062 188.390625 45.363281 188.949219 45.304688 C 190.175781 45.183594 191.078125 46.507812 191.835938 47.292969 C 193.1875 48.695312 194.539062 50.097656 195.890625 51.503906 C 196.414062 52.046875 196.9375 52.589844 197.464844 53.136719 C 197.761719 53.445312 198.117188 53.75 198.3125 54.132812 C 199.089844 55.65625 197.542969 56.738281 196.578125 57.667969 C 195.296875 58.898438 194.019531 60.128906 192.742188 61.363281 C 192.246094 61.839844 192.074219 62.019531 191.457031 62.351562 C 191.261719 62.457031 191.070312 62.539062 190.875 62.613281 C 190.796875 59.003906 189.164062 55.402344 186.207031 53.273438 C 184.703125 52.191406 182.796875 51.765625 181.089844 52.3125 C 182.515625 50.9375 183.941406 49.566406 185.367188 48.191406 Z M 180.96875 57.242188 C 180.964844 57.097656 180.96875 56.957031 180.972656 56.816406 C 180.980469 56.769531 181 56.644531 181.019531 56.546875 C 181.023438 56.535156 181.035156 56.5 181.050781 56.464844 C 181.085938 56.398438 181.148438 56.28125 181.160156 56.253906 C 181.1875 56.199219 181.195312 56.175781 181.199219 56.160156 C 181.222656 56.140625 181.253906 56.113281 181.320312 56.050781 C 181.371094 56 181.539062 55.851562 181.582031 55.808594 C 181.703125 55.722656 181.835938 55.644531 181.96875 55.574219 C 182.007812 55.570312 182.300781 55.457031 182.398438 55.429688 C 182.40625 55.429688 182.40625 55.425781 182.410156 55.425781 C 182.464844 55.421875 182.515625 55.414062 182.570312 55.417969 C 182.671875 55.417969 182.777344 55.425781 182.882812 55.425781 C 182.886719 55.425781 182.886719 55.425781 182.886719 55.425781 C 183.050781 55.460938 183.214844 55.5 183.375 55.550781 C 183.378906 55.550781 183.46875 55.585938 183.542969 55.609375 C 183.617188 55.648438 183.753906 55.710938 183.78125 55.726562 C 183.96875 55.828125 184.148438 55.941406 184.324219 56.058594 C 184.375 56.09375 184.425781 56.128906 184.476562 56.164062 C 184.503906 56.191406 184.554688 56.230469 184.574219 56.246094 C 184.957031 56.585938 185.316406 56.949219 185.636719 57.347656 C 185.660156 57.386719 185.851562 57.644531 185.898438 57.714844 C 186.054688 57.949219 186.207031 58.195312 186.347656 58.445312 C 186.644531 58.976562 186.789062 59.296875 186.945312 59.738281 C 187.332031 60.820312 187.496094 61.671875 187.523438 62.691406 C 187.175781 62.609375 186.816406 62.507812 186.402344 62.359375 C 185.65625 62.09375 184.679688 61.5625 183.808594 60.964844 C 183.730469 60.914062 183.65625 60.859375 183.582031 60.800781 C 183.546875 60.773438 183.503906 60.742188 183.488281 60.730469 C 183.28125 60.558594 183.074219 60.382812 182.878906 60.199219 C 182.535156 59.878906 182.214844 59.535156 181.917969 59.175781 C 181.902344 59.160156 181.898438 59.15625 181.890625 59.144531 C 181.882812 59.132812 181.878906 59.125 181.863281 59.105469 C 181.792969 59.003906 181.722656 58.90625 181.65625 58.804688 C 181.554688 58.648438 181.457031 58.488281 181.367188 58.324219 C 181.328125 58.253906 181.171875 57.890625 181.15625 57.871094 C 181.101562 57.710938 181.054688 57.550781 181.007812 57.390625 C 180.992188 57.34375 180.980469 57.304688 180.96875 57.28125 C 180.96875 57.269531 180.96875 57.261719 180.96875 57.242188 Z M 177.914062 55.375 C 177.46875 56.632812 177.5625 58.054688 178.160156 59.417969 C 179.117188 61.597656 181.066406 63.34375 183.101562 64.515625 C 184.273438 65.191406 185.5625 65.714844 186.890625 66 C 186.40625 67.132812 185.660156 68.183594 184.675781 69.136719 C 182.960938 70.792969 181.238281 72.445312 179.523438 74.097656 C 179.257812 74.351562 178.996094 74.605469 178.734375 74.859375 C 176.695312 76.824219 174.65625 78.789062 172.617188 80.753906 C 167.761719 85.429688 162.90625 90.109375 158.050781 94.785156 C 152.140625 100.480469 146.230469 106.171875 140.320312 111.867188 C 135.242188 116.757812 130.167969 121.648438 125.09375 126.539062 C 123.40625 128.164062 121.71875 129.789062 120.035156 131.410156 C 119.304688 132.113281 118.507812 132.792969 117.8125 133.535156 C 112.535156 135.246094 107.257812 136.957031 101.980469 138.667969 C 103.652344 134.085938 105.328125 129.507812 107.003906 124.929688 C 107.234375 124.292969 107.46875 123.65625 107.699219 123.019531 C 109.226562 121.550781 110.75 120.082031 112.273438 118.613281 C 116.40625 114.632812 120.539062 110.652344 124.667969 106.671875 C 130.230469 101.316406 135.789062 95.957031 141.347656 90.601562 C 147.28125 84.882812 153.214844 79.167969 159.152344 73.449219 C 164.394531 68.398438 169.636719 63.347656 174.878906 58.296875 C 175.890625 57.324219 176.902344 56.347656 177.914062 55.375 Z M 199.613281 135.351562 C 195.964844 130.082031 189.367188 126.375 182.875 127.5 C 186.175781 121.921875 188.371094 115.589844 186.144531 109.171875 C 184.9375 105.691406 182.53125 102.761719 179.066406 101.386719 C 176.183594 100.246094 172.773438 100.332031 169.882812 101.394531 C 166.433594 102.664062 163.660156 105.132812 162.359375 108.605469 C 162.039062 109.457031 162.714844 110.453125 163.539062 110.679688 C 164.484375 110.941406 165.292969 110.359375 165.613281 109.5 C 167.28125 105.050781 173.074219 103.003906 177.4375 104.378906 C 183.332031 106.234375 184.535156 113.898438 182.96875 119.316406 C 181.761719 123.488281 179.277344 127.15625 176.753906 130.632812 C 176.265625 131.304688 176.574219 132.351562 177.1875 132.808594 C 177.886719 133.332031 178.753906 133.246094 179.402344 132.679688 C 183.867188 128.757812 191.003906 131.09375 194.785156 134.804688 C 198.582031 138.527344 200.292969 143.921875 200.078125 149.144531 C 199.867188 154.234375 197.609375 159.480469 193.332031 162.53125 C 190.554688 164.511719 187.253906 165.582031 183.894531 165.804688 C 183.503906 164.117188 182.972656 162.460938 182.289062 160.871094 C 180.800781 157.394531 178.554688 153.992188 175.484375 151.722656 C 172.371094 149.425781 168.25 148.976562 165.144531 151.527344 C 163.777344 152.648438 162.855469 154.421875 162.96875 156.214844 C 163.101562 158.308594 164.265625 160.054688 165.546875 161.632812 C 167.457031 163.988281 170.011719 165.863281 172.773438 167.101562 C 175.398438 168.277344 178.238281 168.972656 181.101562 169.152344 C 181.527344 172.542969 181.296875 176.023438 180.410156 179.304688 C 178.757812 185.433594 174.703125 190.683594 169.40625 194.132812 C 163.996094 197.65625 157.582031 199.265625 151.152344 198.601562 C 144.648438 197.933594 138.363281 194.902344 133.625 190.4375 C 132.410156 189.296875 131.296875 188.058594 130.277344 186.746094 C 129.714844 186.023438 128.476562 186.15625 127.890625 186.746094 C 127.179688 187.457031 127.328125 188.410156 127.890625 189.128906 C 132.542969 195.117188 139.332031 199.464844 146.707031 201.234375 C 154.070312 202.996094 161.777344 202.046875 168.5 198.566406 C 175.015625 195.191406 180.289062 189.523438 182.878906 182.636719 C 184.492188 178.34375 185 173.675781 184.472656 169.132812 C 186.816406 168.945312 189.132812 168.402344 191.320312 167.480469 C 197.277344 164.96875 201.496094 159.695312 202.894531 153.402344 C 204.25 147.3125 203.195312 140.523438 199.613281 135.351562 Z M 178.328125 165.40625 C 175.664062 164.832031 173.199219 163.785156 170.984375 162.179688 C 169.976562 161.453125 169.03125 160.539062 168.207031 159.578125 C 167.363281 158.589844 166.261719 157.234375 166.335938 155.855469 C 166.390625 154.804688 167.332031 153.894531 168.335938 153.457031 C 169.597656 152.902344 170.992188 153.066406 172.210938 153.660156 C 175.070312 155.054688 177.074219 157.988281 178.507812 160.730469 C 179.335938 162.320312 179.976562 164.007812 180.4375 165.738281 C 179.726562 165.664062 179.023438 165.554688 178.328125 165.40625 Z M 97.402344 69.550781 C 96.460938 70.546875 95.519531 71.546875 94.578125 72.546875 C 90.496094 76.875 86.414062 81.203125 82.332031 85.535156 C 79.773438 88.246094 77.214844 90.960938 74.660156 93.671875 C 74.0625 94.304688 72.863281 94.34375 72.273438 93.671875 C 71.835938 93.175781 71.398438 92.679688 70.960938 92.183594 C 67.953125 88.773438 64.941406 85.367188 61.933594 81.957031 C 61.332031 81.269531 61.257812 80.25 61.933594 79.570312 C 62.550781 78.953125 63.71875 78.886719 64.320312 79.570312 C 64.757812 80.066406 65.195312 80.5625 65.632812 81.058594 C 68.257812 84.03125 70.882812 87.007812 73.503906 89.980469 C 74.035156 89.417969 74.566406 88.855469 75.097656 88.289062 C 79.179688 83.960938 83.261719 79.632812 87.34375 75.304688 C 89.902344 72.589844 92.460938 69.878906 95.019531 67.164062 C 96.511719 65.582031 98.890625 67.96875 97.402344 69.550781 Z M 97.402344 97.210938 C 96.460938 98.207031 95.519531 99.207031 94.578125 100.207031 C 90.496094 104.535156 86.414062 108.863281 82.332031 113.191406 C 79.773438 115.90625 77.214844 118.621094 74.660156 121.332031 C 74.0625 121.964844 72.863281 122.003906 72.273438 121.332031 C 71.835938 120.835938 71.398438 120.339844 70.960938 119.84375 C 67.953125 116.433594 64.941406 113.027344 61.933594 109.617188 C 61.332031 108.929688 61.257812 107.910156 61.933594 107.230469 C 62.550781 106.613281 63.71875 106.546875 64.320312 107.230469 C 64.757812 107.726562 65.195312 108.222656 65.632812 108.71875 C 68.257812 111.691406 70.882812 114.667969 73.503906 117.640625 C 74.035156 117.078125 74.566406 116.515625 75.097656 115.949219 C 79.179688 111.621094 83.261719 107.292969 87.34375 102.964844 C 89.902344 100.25 92.460938 97.539062 95.019531 94.824219 C 96.511719 93.242188 98.890625 95.628906 97.402344 97.210938 Z M 97.402344 124.871094 C 96.460938 125.867188 95.519531 126.867188 94.578125 127.867188 C 90.496094 132.195312 86.414062 136.523438 82.332031 140.851562 C 79.773438 143.566406 77.214844 146.28125 74.660156 148.992188 C 74.0625 149.625 72.863281 149.664062 72.273438 148.992188 C 71.835938 148.496094 71.398438 148 70.960938 147.503906 C 67.953125 144.09375 64.941406 140.6875 61.933594 137.277344 C 61.332031 136.589844 61.257812 135.570312 61.933594 134.890625 C 62.550781 134.273438 63.71875 134.207031 64.320312 134.890625 C 64.757812 135.386719 65.195312 135.882812 65.632812 136.378906 C 68.257812 139.351562 70.882812 142.328125 73.503906 145.300781 C 74.035156 144.738281 74.566406 144.175781 75.097656 143.609375 C 79.179688 139.28125 83.261719 134.953125 87.34375 130.625 C 89.902344 127.910156 92.460938 125.199219 95.019531 122.484375 C 96.511719 120.902344 98.890625 123.289062 97.402344 124.871094 Z M 149.070312 27.984375 C 150.796875 21.4375 152.519531 14.886719 154.246094 8.339844 C 154.800781 6.242188 158.050781 7.136719 157.5 9.238281 C 155.773438 15.785156 154.050781 22.332031 152.324219 28.878906 C 151.769531 30.980469 148.515625 30.085938 149.070312 27.984375 Z M 157.988281 33.363281 C 165.902344 23.382812 173.242188 12.949219 179.996094 2.148438 C 181.144531 0.308594 184.0625 2.003906 182.90625 3.847656 C 176 14.898438 168.46875 25.539062 160.371094 35.746094 C 159.804688 36.464844 158.574219 36.332031 157.988281 35.746094 C 157.289062 35.050781 157.421875 34.074219 157.988281 33.363281 Z M 106.734375 188.207031 C 108.445312 190.757812 108.621094 194.0625 107.398438 196.84375 C 106.222656 199.515625 103.640625 201.523438 100.757812 201.988281 C 97.71875 202.480469 94.480469 201.449219 92.460938 199.070312 C 90.453125 196.710938 89.734375 193.558594 90.59375 190.570312 C 91.195312 188.488281 94.449219 189.378906 93.847656 191.46875 C 93.523438 192.59375 93.496094 193.585938 93.8125 194.6875 C 94.109375 195.734375 94.632812 196.574219 95.488281 197.351562 C 96.890625 198.628906 98.96875 199.050781 100.765625 198.539062 C 102.539062 198.035156 104.027344 196.625 104.582031 194.804688 C 104.855469 193.910156 104.910156 192.917969 104.75 192.125 C 104.542969 191.121094 104.144531 190.253906 103.582031 189.589844 C 102.128906 187.863281 99.875 187.089844 97.507812 187.78125 C 95.414062 188.390625 94.53125 185.132812 96.609375 184.527344 C 100.4375 183.414062 104.519531 184.914062 106.734375 188.207031 Z M 27.789062 28.746094 C 26.949219 28.941406 26.113281 29.132812 25.273438 29.328125 C 20.113281 30.519531 14.957031 31.710938 9.796875 32.902344 C 10.078125 33.285156 10.355469 33.667969 10.636719 34.050781 C 13.882812 38.464844 17.128906 42.878906 20.375 47.296875 C 22.410156 50.0625 24.445312 52.828125 26.476562 55.597656 C 27.117188 56.464844 26.453125 57.847656 25.46875 58.074219 C 24.632812 58.265625 23.792969 58.460938 22.957031 58.652344 C 17.792969 59.847656 12.625 61.042969 7.460938 62.234375 C 7.734375 62.609375 8.003906 62.984375 8.277344 63.355469 C 11.496094 67.792969 14.714844 72.230469 17.933594 76.667969 C 19.9375 79.4375 21.945312 82.203125 23.953125 84.96875 C 24.585938 85.839844 23.933594 87.21875 22.945312 87.449219 C 22.109375 87.640625 21.269531 87.835938 20.433594 88.027344 C 15.269531 89.222656 10.109375 90.414062 4.945312 91.609375 C 5.222656 91.992188 5.503906 92.371094 5.78125 92.753906 C 9.007812 97.175781 12.234375 101.59375 15.460938 106.015625 C 17.480469 108.785156 19.5 111.554688 21.523438 114.324219 C 22.0625 115.0625 21.644531 116.207031 20.917969 116.632812 C 20.074219 117.125 19.144531 116.761719 18.609375 116.027344 C 17.863281 115.003906 17.117188 113.980469 16.371094 112.960938 C 13.144531 108.539062 9.917969 104.117188 6.695312 99.699219 C 4.671875 96.929688 2.652344 94.160156 0.628906 91.390625 C -0.00390625 90.519531 0.652344 89.140625 1.640625 88.910156 C 2.476562 88.71875 3.3125 88.523438 4.152344 88.332031 C 9.316406 87.136719 14.480469 85.945312 19.644531 84.75 C 19.375 84.375 19.105469 84.003906 18.832031 83.628906 C 15.613281 79.191406 12.394531 74.753906 9.175781 70.316406 C 7.167969 67.550781 5.160156 64.78125 3.15625 62.015625 C 2.523438 61.144531 3.175781 59.765625 4.164062 59.535156 C 5 59.34375 5.839844 59.148438 6.675781 58.957031 C 11.800781 57.773438 16.925781 56.585938 22.050781 55.402344 C 21.769531 55.019531 21.492188 54.640625 21.210938 54.257812 C 17.988281 49.835938 14.761719 45.417969 11.535156 40.996094 C 9.515625 38.226562 7.492188 35.457031 5.472656 32.6875 C 5.140625 32.238281 5.164062 31.652344 5.398438 31.160156 C 5.609375 30.699219 6.003906 30.320312 6.480469 30.210938 C 7.316406 30.015625 8.15625 29.824219 8.992188 29.628906 C 14.960938 28.25 20.925781 26.871094 26.890625 25.492188 C 29.007812 25.003906 29.902344 28.257812 27.789062 28.746094 Z M 53.273438 15.410156 C 53.273438 15.40625 53.273438 15.40625 53.273438 15.40625 C 53.300781 15.457031 53.320312 15.496094 53.328125 15.515625 C 53.308594 15.480469 53.292969 15.445312 53.273438 15.410156 Z M 51.382812 18.640625 C 49.832031 16.816406 49.253906 14.390625 49.921875 12.070312 C 50.183594 11.164062 51.097656 10.6875 51.996094 10.894531 C 52.878906 11.09375 53.417969 12.121094 53.175781 12.96875 C 53.136719 13.105469 53.097656 13.242188 53.066406 13.378906 C 53.066406 13.382812 53.046875 13.492188 53.035156 13.570312 C 53.027344 13.640625 53.019531 13.730469 53.015625 13.753906 C 53.011719 13.84375 53.007812 13.933594 53.007812 14.023438 C 53.007812 14.160156 53.019531 14.292969 53.023438 14.429688 C 53.023438 14.4375 53.023438 14.441406 53.023438 14.453125 C 53.058594 14.648438 53.09375 14.839844 53.148438 15.03125 C 53.1875 15.15625 53.230469 15.28125 53.273438 15.40625 C 53.265625 15.394531 53.261719 15.386719 53.253906 15.371094 C 53.261719 15.382812 53.265625 15.394531 53.273438 15.410156 C 53.296875 15.476562 53.363281 15.589844 53.328125 15.515625 C 53.402344 15.664062 53.476562 15.8125 53.566406 15.953125 C 53.628906 16.054688 53.695312 16.152344 53.761719 16.246094 C 53.765625 16.25 53.765625 16.25 53.769531 16.253906 C 53.917969 16.421875 54.066406 16.582031 54.234375 16.734375 C 54.25 16.746094 54.320312 16.808594 54.371094 16.855469 C 54.410156 16.882812 54.453125 16.914062 54.472656 16.925781 C 54.640625 17.042969 54.816406 17.148438 55 17.242188 C 55.066406 17.277344 55.132812 17.308594 55.199219 17.339844 C 55.210938 17.34375 55.21875 17.347656 55.234375 17.351562 C 55.410156 17.410156 55.589844 17.46875 55.773438 17.515625 C 55.863281 17.539062 55.957031 17.554688 56.046875 17.570312 C 55.9375 17.550781 56.046875 17.578125 56.125 17.585938 C 56.144531 17.589844 56.164062 17.59375 56.1875 17.597656 C 56.160156 17.59375 56.144531 17.589844 56.128906 17.585938 C 56.132812 17.585938 56.140625 17.589844 56.148438 17.589844 C 56.328125 17.597656 56.511719 17.609375 56.691406 17.605469 C 56.800781 17.601562 56.914062 17.589844 57.023438 17.585938 C 57.203125 17.542969 57.382812 17.515625 57.5625 17.464844 C 57.667969 17.433594 57.773438 17.398438 57.878906 17.363281 C 57.894531 17.359375 57.9375 17.339844 57.976562 17.324219 C 58.042969 17.292969 58.136719 17.246094 58.140625 17.246094 C 58.21875 17.203125 58.296875 17.160156 58.375 17.117188 C 58.527344 17.027344 58.667969 16.921875 58.816406 16.828125 C 58.5 17.03125 58.898438 16.75 58.984375 16.667969 C 59.148438 16.515625 59.289062 16.34375 59.441406 16.179688 C 59.1875 16.457031 59.542969 16.015625 59.605469 15.914062 C 59.703125 15.757812 59.777344 15.589844 59.867188 15.429688 C 59.871094 15.425781 59.871094 15.425781 59.871094 15.421875 C 59.875 15.40625 59.878906 15.398438 59.882812 15.382812 C 59.910156 15.292969 59.945312 15.203125 59.972656 15.113281 C 60.027344 14.929688 60.066406 14.742188 60.101562 14.554688 C 60.101562 14.507812 60.132812 14.277344 60.136719 14.195312 C 60.140625 14.011719 60.128906 13.835938 60.125 13.652344 C 60.125 13.636719 60.125 13.625 60.125 13.613281 C 60.113281 13.554688 60.105469 13.496094 60.09375 13.441406 C 60.046875 13.222656 59.988281 13.007812 59.917969 12.800781 C 59.90625 12.757812 59.890625 12.71875 59.875 12.679688 C 59.855469 12.636719 59.828125 12.566406 59.808594 12.53125 C 59.722656 12.375 59.640625 12.222656 59.546875 12.074219 C 59.496094 11.992188 59.441406 11.914062 59.386719 11.835938 C 59.382812 11.832031 59.382812 11.832031 59.378906 11.828125 C 59.226562 11.664062 59.082031 11.5 58.914062 11.347656 C 58.859375 11.300781 58.800781 11.25 58.746094 11.203125 C 58.738281 11.199219 58.738281 11.199219 58.730469 11.195312 C 58.582031 11.09375 58.429688 10.992188 58.269531 10.90625 C 58.210938 10.871094 57.996094 10.777344 57.941406 10.75 C 57.722656 10.671875 57.503906 10.601562 57.277344 10.546875 C 57.210938 10.527344 57.164062 10.515625 57.132812 10.507812 C 56.996094 10.488281 56.851562 10.484375 56.714844 10.480469 C 56.59375 10.476562 56.472656 10.476562 56.351562 10.480469 C 56.332031 10.484375 56.21875 10.492188 56.140625 10.496094 C 56.054688 10.515625 55.785156 10.5625 55.816406 10.554688 C 55.703125 10.582031 55.589844 10.617188 55.472656 10.648438 C 54.566406 10.914062 53.675781 10.332031 53.398438 9.472656 C 53.113281 8.597656 53.730469 7.644531 54.578125 7.398438 C 57.539062 6.535156 60.679688 7.71875 62.386719 10.257812 C 63.714844 12.238281 63.8125 14.796875 62.863281 16.945312 C 61.972656 18.960938 59.992188 20.503906 57.808594 20.859375 C 55.464844 21.242188 52.953125 20.484375 51.382812 18.640625 Z M 56.125 17.585938 C 56.097656 17.582031 56.074219 17.574219 56.046875 17.570312 C 56.066406 17.574219 56.09375 17.578125 56.128906 17.585938 C 56.125 17.585938 56.125 17.585938 56.125 17.585938 Z M 56.125 17.585938 "/><path style=" stroke:none;fill-rule:nonzero;fill:#007084;fill-opacity:1;" d="M 116.667969 51.449219 C 116.667969 51.453125 116.664062 51.457031 116.664062 51.460938 C 116.667969 51.449219 116.671875 51.441406 116.675781 51.429688 C 116.671875 51.4375 116.671875 51.445312 116.667969 51.449219 Z M 112.488281 43.402344 C 112.703125 43.421875 112.914062 43.441406 113.128906 43.46875 C 112.988281 43.453125 112.851562 43.4375 112.714844 43.421875 C 112.640625 43.414062 112.5625 43.410156 112.488281 43.402344 Z M 116.214844 44.382812 C 116.203125 44.375 116.195312 44.371094 116.183594 44.363281 C 116.261719 44.441406 116.339844 44.515625 116.417969 44.585938 C 116.417969 44.582031 116.417969 44.582031 116.417969 44.582031 C 116.347656 44.519531 116.277344 44.449219 116.214844 44.382812 Z M 73.230469 52.429688 C 73.164062 52.332031 73.101562 52.234375 73.042969 52.136719 C 73.066406 52.179688 73.082031 52.222656 73.109375 52.261719 C 73.148438 52.320312 73.191406 52.371094 73.230469 52.429688 Z M 116.882812 50.539062 C 116.882812 50.535156 116.878906 50.535156 116.878906 50.53125 C 116.878906 50.542969 116.878906 50.554688 116.875 50.570312 C 116.875 50.558594 116.878906 50.550781 116.882812 50.539062 Z M 113.382812 43.503906 C 113.433594 43.511719 113.480469 43.519531 113.527344 43.527344 C 113.515625 43.523438 113.503906 43.519531 113.492188 43.519531 C 113.457031 43.511719 113.421875 43.507812 113.382812 43.503906 Z M 116.648438 44.957031 C 116.617188 44.894531 116.582031 44.835938 116.554688 44.777344 C 116.632812 44.9375 116.75 45.359375 116.648438 44.957031 Z M 114.601562 40.304688 C 115.234375 40.417969 115.859375 40.566406 116.464844 40.78125 C 115.925781 40.585938 115.363281 40.4375 114.800781 40.335938 C 114.734375 40.324219 114.667969 40.316406 114.601562 40.304688 Z M 116.4375 44.605469 C 116.433594 44.597656 116.425781 44.589844 116.417969 44.585938 C 116.492188 44.722656 116.53125 44.761719 116.535156 44.75 C 116.507812 44.703125 116.472656 44.652344 116.441406 44.605469 C 116.441406 44.605469 116.441406 44.605469 116.4375 44.605469 Z M 116.90625 45.953125 C 116.90625 45.953125 116.90625 45.949219 116.90625 45.949219 C 116.90625 45.960938 116.910156 45.96875 116.910156 45.980469 C 116.910156 45.972656 116.90625 45.960938 116.90625 45.953125 Z M 116.921875 46.074219 C 116.921875 46.082031 116.917969 46.058594 116.910156 45.980469 C 116.914062 46.023438 116.917969 46.070312 116.921875 46.113281 C 116.921875 46.101562 116.921875 46.085938 116.921875 46.074219 Z M 72.207031 49.804688 C 72.324219 50.519531 72.539062 51.214844 72.898438 51.878906 C 72.550781 51.222656 72.335938 50.527344 72.207031 49.804688 Z M 79.957031 52.09375 C 79.523438 52.09375 79.085938 52.109375 78.65625 52.074219 C 79.351562 52.144531 80.082031 52.09375 80.75 52.09375 C 80.488281 52.09375 80.222656 52.09375 79.957031 52.09375 Z M 75.429688 47.097656 C 75.429688 46.753906 75.429688 46.414062 75.429688 46.074219 C 75.421875 46.757812 75.394531 47.484375 75.429688 48.195312 C 75.429688 47.828125 75.429688 47.460938 75.429688 47.097656 Z M 76.0625 50.597656 C 76.378906 51.105469 76.847656 51.53125 77.542969 51.824219 C 76.921875 51.558594 76.421875 51.125 76.0625 50.597656 Z M 78.078125 51.992188 C 77.898438 51.949219 77.722656 51.898438 77.554688 51.828125 C 77.550781 51.828125 77.550781 51.828125 77.550781 51.828125 C 77.722656 51.902344 77.902344 51.949219 78.078125 51.992188 Z M 114.046875 52.082031 C 114.066406 52.082031 114.085938 52.082031 114.101562 52.082031 C 114.207031 52.082031 114.308594 52.070312 114.410156 52.066406 C 114.289062 52.070312 114.167969 52.082031 114.046875 52.082031 Z M 116.53125 51.683594 C 116.535156 51.675781 116.539062 51.667969 116.546875 51.660156 C 116.539062 51.667969 116.535156 51.675781 116.527344 51.6875 C 116.53125 51.683594 116.53125 51.683594 116.53125 51.683594 Z M 108.6875 52.09375 C 109.730469 52.09375 110.773438 52.101562 111.816406 52.101562 C 111.089844 52.101562 110.359375 52.09375 109.632812 52.09375 C 109.316406 52.09375 109 52.09375 108.6875 52.09375 Z M 115.355469 52.023438 C 115.40625 52.019531 115.457031 52.011719 115.511719 52.007812 C 115.53125 52.003906 115.550781 52.003906 115.570312 52 C 115.574219 52 115.578125 52 115.582031 52 C 115.589844 52 115.601562 51.996094 115.609375 51.996094 C 115.585938 51.996094 115.5625 52 115.542969 52.003906 C 115.464844 52.011719 115.386719 52.019531 115.3125 52.023438 C 115.324219 52.023438 115.339844 52.023438 115.355469 52.023438 Z M 116.425781 51.769531 C 116.429688 51.769531 116.441406 51.765625 116.453125 51.757812 C 116.460938 51.753906 116.464844 51.75 116.472656 51.746094 C 116.476562 51.742188 116.484375 51.734375 116.492188 51.726562 C 116.460938 51.746094 116.433594 51.761719 116.414062 51.773438 C 116.417969 51.773438 116.421875 51.769531 116.425781 51.769531 Z M 116.855469 45.667969 C 116.84375 45.609375 116.824219 45.550781 116.808594 45.488281 C 116.832031 45.59375 116.855469 45.703125 116.878906 45.808594 C 116.871094 45.761719 116.863281 45.714844 116.855469 45.667969 Z M 116.9375 49.886719 C 116.933594 49.933594 116.929688 49.984375 116.929688 50.03125 C 116.929688 50.023438 116.929688 50.007812 116.929688 50.003906 C 116.933594 49.964844 116.933594 49.925781 116.9375 49.886719 Z M 116.691406 45.054688 C 116.6875 45.039062 116.6875 45.035156 116.683594 45.023438 C 116.675781 45.007812 116.667969 44.992188 116.65625 44.976562 C 116.679688 45.042969 116.703125 45.113281 116.726562 45.183594 C 116.714844 45.140625 116.699219 45.097656 116.691406 45.054688 Z M 116.398438 51.796875 C 116.402344 51.796875 116.402344 51.796875 116.40625 51.796875 C 116.402344 51.796875 116.402344 51.796875 116.398438 51.796875 Z M 114.484375 43.707031 C 114.566406 43.726562 114.644531 43.75 114.722656 43.769531 C 114.664062 43.753906 114.601562 43.734375 114.539062 43.71875 C 114.523438 43.714844 114.503906 43.710938 114.484375 43.707031 Z M 116.40625 51.804688 C 116.328125 51.859375 116.363281 51.835938 116.40625 51.804688 Z M 116.359375 51.808594 C 116.359375 51.808594 116.363281 51.808594 116.363281 51.808594 C 116.375 51.804688 116.382812 51.800781 116.394531 51.800781 C 116.394531 51.800781 116.394531 51.800781 116.390625 51.800781 C 116.382812 51.800781 116.375 51.804688 116.367188 51.804688 C 116.363281 51.808594 116.363281 51.808594 116.359375 51.808594 C 116.269531 51.832031 116.230469 51.839844 116.226562 51.832031 C 116.195312 51.84375 116.1875 51.847656 116.238281 51.847656 C 116.277344 51.832031 116.320312 51.820312 116.359375 51.808594 Z M 116.660156 51.472656 C 116.609375 51.574219 116.625 51.566406 116.660156 51.472656 Z M 116.183594 51.859375 C 116.058594 51.894531 115.933594 51.925781 115.804688 51.957031 C 115.859375 51.945312 115.914062 51.9375 115.96875 51.925781 C 116.042969 51.90625 116.113281 51.882812 116.183594 51.859375 Z M 113.746094 27.195312 C 113.664062 27.1875 113.582031 27.179688 113.5 27.175781 C 112.628906 27.160156 111.753906 27.175781 110.882812 27.175781 C 111.691406 27.175781 112.503906 27.171875 113.3125 27.175781 C 113.457031 27.179688 113.601562 27.1875 113.746094 27.195312 Z M 119.085938 53.882812 C 119.601562 53.273438 119.890625 52.546875 120.0625 51.789062 C 119.679688 53.226562 118.894531 54.445312 117.363281 55.015625 C 118.019531 54.785156 118.621094 54.429688 119.085938 53.882812 Z M 118.003906 41.546875 C 119.625 42.695312 120.222656 44.585938 120.335938 46.625 C 120.363281 47.101562 120.386719 47.617188 120.398438 48.148438 C 120.445312 46.449219 120.320312 44.652344 119.542969 43.214844 C 119.164062 42.511719 118.625 41.972656 118.003906 41.546875 Z M 114.238281 55.484375 C 113.472656 55.496094 112.703125 55.46875 111.976562 55.46875 C 110.347656 55.46875 108.71875 55.46875 107.085938 55.46875 C 109.433594 55.46875 111.867188 55.621094 114.238281 55.484375 Z M 78.324219 55.425781 C 78.207031 55.414062 78.09375 55.398438 77.976562 55.378906 C 78.054688 55.390625 78.132812 55.414062 78.210938 55.421875 C 78.25 55.425781 78.285156 55.425781 78.324219 55.425781 Z M 112.714844 40.046875 C 113.082031 40.085938 113.445312 40.128906 113.8125 40.179688 C 110.605469 39.707031 107.308594 39.730469 104.085938 39.65625 C 102.4375 39.621094 100.789062 39.636719 99.140625 39.636719 C 99.121094 39.636719 99.101562 39.636719 99.082031 39.636719 C 101.5 39.636719 103.910156 39.644531 106.324219 39.710938 C 108.457031 39.769531 110.59375 39.824219 112.714844 40.046875 Z M 72.058594 35.496094 C 72.058594 34.683594 72.042969 33.882812 72.144531 33.078125 C 72.132812 33.164062 72.113281 33.246094 72.105469 33.332031 C 71.921875 34.933594 72.058594 36.609375 72.058594 38.21875 C 72.058594 37.3125 72.058594 36.402344 72.058594 35.496094 Z M 114.757812 30.777344 C 114.476562 30.671875 114.199219 30.617188 113.917969 30.585938 C 114.261719 30.628906 114.589844 30.714844 114.90625 30.847656 C 114.855469 30.828125 114.8125 30.796875 114.757812 30.777344 Z M 75.429688 34.492188 C 75.402344 35.089844 75.417969 35.699219 75.425781 36.285156 C 75.429688 35.6875 75.425781 35.089844 75.429688 34.492188 Z M 79.019531 30.550781 C 79.859375 30.542969 80.699219 30.546875 81.539062 30.550781 C 80.3125 30.550781 78.722656 30.332031 77.558594 30.8125 C 76.59375 31.210938 76.0625 31.863281 75.765625 32.636719 C 76.320312 31.398438 77.511719 30.5625 79.019531 30.550781 Z M 116.164062 44.351562 C 116.148438 44.34375 116.128906 44.332031 116.113281 44.320312 C 116.234375 44.421875 116.328125 44.519531 116.164062 44.351562 Z M 120.316406 33.589844 C 120.164062 32.011719 119.632812 30.566406 118.507812 29.34375 C 118.238281 29.050781 117.933594 28.800781 117.617188 28.566406 C 119.273438 29.839844 120.117188 31.597656 120.316406 33.589844 Z M 148.023438 116.832031 C 148.023438 123.515625 148.023438 130.195312 148.023438 136.875 C 148.023438 146.023438 148.023438 155.171875 148.023438 164.316406 C 148.023438 165.109375 148.027344 165.898438 148.023438 166.691406 C 148.007812 168.675781 146.53125 170.242188 144.523438 170.28125 C 143.277344 170.304688 142.027344 170.28125 140.78125 170.28125 C 133.3125 170.28125 125.84375 170.28125 118.375 170.28125 C 107.855469 170.28125 97.339844 170.28125 86.824219 170.28125 C 77.5625 170.28125 68.300781 170.28125 59.039062 170.28125 C 56.222656 170.28125 53.40625 170.28125 50.589844 170.28125 C 49.199219 170.28125 47.367188 170.53125 46.125 169.804688 C 44.273438 168.722656 44.398438 166.867188 44.398438 165.0625 C 44.398438 162.867188 44.398438 160.667969 44.398438 158.46875 C 44.398438 154.914062 44.398438 151.355469 44.398438 147.800781 C 44.398438 149.972656 41.027344 149.972656 41.027344 147.800781 C 41.027344 153.445312 41.027344 159.09375 41.027344 164.738281 C 41.027344 166.726562 40.929688 168.664062 42.078125 170.445312 C 43.410156 172.511719 45.632812 173.640625 48.070312 173.652344 C 48.628906 173.65625 49.191406 173.652344 49.75 173.652344 C 56.5625 173.652344 63.378906 173.652344 70.191406 173.652344 C 80.828125 173.652344 91.460938 173.652344 102.097656 173.652344 C 111.90625 173.652344 121.71875 173.652344 131.527344 173.652344 C 135.859375 173.652344 140.203125 173.738281 144.539062 173.652344 C 148.339844 173.578125 151.328125 170.566406 151.394531 166.769531 C 151.40625 166.078125 151.394531 165.386719 151.394531 164.695312 C 151.394531 160.84375 151.394531 156.992188 151.394531 153.140625 C 151.394531 142.992188 151.394531 132.84375 151.394531 122.691406 C 151.394531 120.738281 151.394531 118.785156 151.394531 116.835938 C 151.394531 114.664062 148.023438 114.660156 148.023438 116.832031 Z M 46.425781 43.355469 C 47.109375 43.0625 47.863281 43.007812 48.648438 43.007812 C 51.488281 43.007812 54.328125 43.007812 57.167969 43.007812 C 54.085938 43.007812 51 42.960938 47.917969 43.007812 C 47.371094 43.019531 46.871094 43.144531 46.425781 43.355469 Z M 44.40625 46.585938 C 44.40625 46.617188 44.398438 46.640625 44.398438 46.671875 C 44.398438 46.722656 44.398438 46.777344 44.398438 46.828125 C 44.398438 46.746094 44.40625 46.667969 44.40625 46.585938 Z M 110.8125 43.265625 C 107.644531 43.03125 104.445312 43.007812 101.277344 43.007812 C 100.21875 43.007812 99.160156 43.007812 98.101562 43.007812 C 101.59375 43.007812 105.078125 43.023438 108.5625 43.15625 C 109.3125 43.183594 110.0625 43.21875 110.8125 43.265625 Z M 115.578125 44.027344 C 115.496094 43.996094 115.410156 43.964844 115.324219 43.9375 C 115.285156 43.921875 115.246094 43.914062 115.210938 43.902344 C 115.429688 43.988281 115.824219 44.15625 115.578125 44.027344 Z M 115.71875 44.085938 C 115.683594 44.070312 115.652344 44.054688 115.617188 44.039062 C 115.605469 44.035156 115.597656 44.035156 115.585938 44.03125 C 115.667969 44.070312 115.746094 44.109375 115.824219 44.152344 C 115.789062 44.128906 115.753906 44.109375 115.71875 44.085938 Z M 47.894531 39.636719 C 46.160156 39.667969 44.59375 40.320312 43.394531 41.371094 C 44.671875 40.273438 46.363281 39.640625 48.199219 39.636719 C 48.097656 39.636719 47.996094 39.632812 47.894531 39.636719 Z M 41.027344 51.25 C 41.027344 50.652344 41.011719 50.046875 40.996094 49.441406 C 40.988281 52.101562 41.027344 54.769531 41.027344 57.429688 C 41.027344 55.367188 41.027344 53.308594 41.027344 51.25 Z M 150.460938 43.03125 C 149.15625 40.804688 146.789062 39.644531 144.261719 39.636719 C 142.8125 39.632812 141.367188 39.636719 139.921875 39.636719 C 136.308594 39.636719 132.695312 39.636719 129.082031 39.636719 C 126.914062 39.636719 126.910156 43.007812 129.082031 43.007812 C 132.050781 43.007812 135.015625 43.007812 137.984375 43.007812 C 139.753906 43.007812 141.527344 43.007812 143.300781 43.007812 C 144.539062 43.007812 145.726562 42.953125 146.757812 43.804688 C 147.808594 44.667969 148.023438 45.859375 148.023438 47.125 C 148.023438 48.371094 148.023438 49.617188 148.023438 50.859375 C 148.023438 54.890625 148.023438 58.921875 148.023438 62.949219 C 148.023438 65.683594 148.023438 68.414062 148.023438 71.148438 C 148.023438 73.316406 151.394531 73.320312 151.394531 71.148438 C 151.394531 64.609375 151.394531 58.074219 151.394531 51.539062 C 151.394531 48.851562 151.871094 45.441406 150.460938 43.03125 Z M 150.460938 43.03125 "/><path style=" stroke:none;fill-rule:nonzero;fill:#09a3bd;fill-opacity:1;" d="M 120.335938 46.625 C 120.222656 44.585938 119.625 42.695312 118.003906 41.546875 C 117.902344 41.480469 117.800781 41.417969 117.699219 41.355469 C 117.574219 41.28125 117.441406 41.207031 117.304688 41.140625 C 117.238281 41.105469 117.183594 41.066406 117.113281 41.035156 C 117.058594 41.007812 117 40.988281 116.945312 40.96875 C 116.867188 40.933594 116.792969 40.902344 116.714844 40.871094 C 116.632812 40.839844 116.546875 40.8125 116.464844 40.78125 C 115.859375 40.566406 115.234375 40.417969 114.601562 40.304688 C 114.339844 40.257812 114.074219 40.21875 113.8125 40.179688 C 113.445312 40.128906 113.082031 40.085938 112.714844 40.046875 C 110.59375 39.824219 108.457031 39.769531 106.324219 39.710938 C 103.910156 39.644531 101.5 39.636719 99.082031 39.636719 C 96.710938 39.636719 94.339844 39.636719 91.96875 39.636719 C 90.808594 39.636719 89.652344 39.636719 88.492188 39.636719 C 84.136719 39.636719 79.785156 39.636719 75.429688 39.636719 C 75.429688 38.65625 75.429688 37.679688 75.429688 36.703125 C 75.429688 36.5625 75.429688 36.425781 75.425781 36.285156 C 75.417969 35.699219 75.402344 35.089844 75.429688 34.492188 C 75.460938 33.839844 75.550781 33.203125 75.765625 32.636719 C 76.0625 31.863281 76.59375 31.210938 77.558594 30.8125 C 78.722656 30.332031 80.3125 30.550781 81.539062 30.550781 C 81.738281 30.550781 81.933594 30.550781 82.132812 30.550781 C 87.664062 30.550781 93.195312 30.550781 98.730469 30.550781 C 102.582031 30.550781 106.4375 30.550781 110.289062 30.550781 C 111.195312 30.550781 112.097656 30.546875 113.003906 30.550781 C 113.144531 30.550781 113.285156 30.550781 113.421875 30.554688 C 113.585938 30.558594 113.75 30.566406 113.910156 30.585938 C 113.914062 30.585938 113.914062 30.585938 113.917969 30.585938 C 114.199219 30.617188 114.476562 30.671875 114.757812 30.777344 C 114.8125 30.796875 114.855469 30.828125 114.90625 30.847656 C 114.960938 30.871094 115.015625 30.902344 115.066406 30.925781 C 115.195312 30.988281 115.316406 31.054688 115.429688 31.128906 C 115.46875 31.15625 115.503906 31.183594 115.542969 31.210938 C 115.648438 31.289062 115.753906 31.367188 115.84375 31.449219 C 116.667969 32.214844 116.992188 33.355469 116.992188 34.554688 C 116.992188 36.726562 120.363281 36.726562 120.363281 34.554688 C 120.363281 34.261719 120.351562 33.976562 120.324219 33.695312 C 120.324219 33.660156 120.316406 33.625 120.316406 33.589844 C 120.117188 31.597656 119.273438 29.839844 117.617188 28.566406 C 117.582031 28.539062 117.554688 28.511719 117.519531 28.484375 C 117.394531 28.394531 117.265625 28.308594 117.136719 28.230469 C 117.085938 28.195312 117.035156 28.164062 116.980469 28.132812 C 116.894531 28.082031 116.804688 28.035156 116.71875 27.988281 C 116.585938 27.917969 116.453125 27.851562 116.316406 27.792969 C 116.269531 27.773438 116.222656 27.75 116.175781 27.730469 C 115.988281 27.652344 115.792969 27.582031 115.597656 27.519531 C 115.585938 27.515625 115.574219 27.511719 115.5625 27.507812 C 115.363281 27.445312 115.160156 27.394531 114.953125 27.351562 C 114.847656 27.328125 114.738281 27.3125 114.632812 27.292969 C 114.542969 27.277344 114.457031 27.261719 114.371094 27.25 C 114.238281 27.234375 114.105469 27.21875 113.96875 27.207031 C 113.894531 27.203125 113.820312 27.199219 113.746094 27.195312 C 113.601562 27.1875 113.460938 27.179688 113.316406 27.175781 C 112.503906 27.171875 111.695312 27.175781 110.882812 27.175781 C 110.082031 27.175781 109.277344 27.175781 108.476562 27.175781 C 104.613281 27.175781 100.75 27.175781 96.882812 27.175781 C 94.4375 27.175781 91.992188 27.175781 89.546875 27.175781 C 87.109375 27.175781 84.671875 27.175781 82.234375 27.175781 C 82.035156 27.175781 81.835938 27.179688 81.632812 27.175781 C 80.160156 27.175781 78.523438 27.027344 77.089844 27.421875 C 74.632812 28.097656 72.601562 30.234375 72.183594 32.769531 C 72.164062 32.875 72.15625 32.976562 72.144531 33.078125 C 72.042969 33.882812 72.058594 34.683594 72.058594 35.496094 C 72.058594 36.402344 72.058594 37.3125 72.058594 38.21875 C 72.058594 38.691406 72.058594 39.164062 72.058594 39.636719 C 71.074219 39.636719 70.089844 39.636719 69.105469 39.636719 C 66.449219 39.636719 63.796875 39.636719 61.140625 39.636719 C 58.144531 39.636719 55.144531 39.636719 52.148438 39.636719 C 51.386719 39.636719 50.625 39.636719 49.863281 39.636719 C 49.308594 39.636719 48.753906 39.632812 48.199219 39.636719 C 46.363281 39.640625 44.671875 40.273438 43.394531 41.371094 C 43.390625 41.378906 43.382812 41.382812 43.378906 41.386719 C 43.246094 41.503906 43.117188 41.625 42.992188 41.753906 C 42.894531 41.851562 42.800781 41.957031 42.710938 42.0625 C 42.675781 42.101562 42.640625 42.140625 42.609375 42.179688 C 41.933594 42.988281 41.441406 43.96875 41.199219 45.074219 C 41.195312 45.089844 41.1875 45.109375 41.1875 45.125 C 41.148438 45.292969 41.125 45.460938 41.101562 45.632812 C 41.09375 45.699219 41.078125 45.765625 41.070312 45.832031 C 41.070312 45.859375 41.0625 45.882812 41.0625 45.90625 C 40.945312 47.066406 40.96875 48.257812 40.996094 49.441406 C 41.011719 50.046875 41.027344 50.652344 41.027344 51.25 C 41.027344 53.308594 41.027344 55.371094 41.027344 57.429688 C 41.027344 59.652344 41.027344 61.875 41.027344 64.097656 C 41.027344 70.066406 41.027344 76.039062 41.027344 82.007812 C 41.027344 82.582031 41.027344 83.15625 41.027344 83.730469 C 41.027344 89.886719 41.027344 96.042969 41.027344 102.199219 C 41.027344 106.929688 41.027344 111.660156 41.027344 116.390625 C 41.027344 118.121094 41.027344 119.855469 41.027344 121.585938 C 41.027344 126.855469 41.027344 132.125 41.027344 137.394531 C 41.027344 140.394531 41.027344 143.394531 41.027344 146.394531 C 41.027344 146.453125 41.027344 146.515625 41.027344 146.574219 C 41.027344 146.984375 41.027344 147.390625 41.027344 147.800781 C 41.027344 149.972656 44.398438 149.976562 44.398438 147.800781 C 44.398438 146.226562 44.398438 144.65625 44.398438 143.082031 C 44.398438 140.222656 44.398438 137.363281 44.398438 134.503906 C 44.398438 133.261719 44.398438 132.023438 44.398438 130.785156 C 44.398438 125.023438 44.398438 119.257812 44.398438 113.496094 C 44.398438 110.03125 44.398438 106.570312 44.398438 103.105469 C 44.398438 100.078125 44.398438 97.054688 44.398438 94.027344 C 44.398438 87.679688 44.398438 81.332031 44.398438 74.984375 C 44.398438 74.195312 44.398438 73.40625 44.398438 72.621094 C 44.398438 68.066406 44.398438 63.515625 44.398438 58.960938 C 44.398438 56.414062 44.398438 53.867188 44.398438 51.316406 C 44.398438 50.46875 44.398438 49.621094 44.398438 48.773438 C 44.398438 48.125 44.398438 47.476562 44.398438 46.828125 C 44.398438 46.777344 44.398438 46.722656 44.398438 46.671875 C 44.398438 46.640625 44.40625 46.617188 44.40625 46.585938 C 44.414062 46.382812 44.433594 46.183594 44.464844 45.988281 C 44.46875 45.953125 44.476562 45.921875 44.484375 45.890625 C 44.710938 44.753906 45.417969 43.828125 46.425781 43.355469 C 46.871094 43.144531 47.371094 43.019531 47.917969 43.011719 C 51 42.960938 54.085938 43.011719 57.167969 43.011719 C 62.132812 43.011719 67.09375 43.011719 72.058594 43.011719 C 72.058594 43.585938 72.058594 44.160156 72.058594 44.734375 C 72.058594 46.378906 71.910156 48.15625 72.207031 49.804688 C 72.335938 50.527344 72.550781 51.222656 72.898438 51.878906 C 72.945312 51.964844 72.988281 52.050781 73.042969 52.136719 C 73.101562 52.234375 73.164062 52.332031 73.230469 52.429688 C 73.253906 52.464844 73.273438 52.5 73.296875 52.535156 C 73.324219 52.566406 73.351562 52.597656 73.378906 52.632812 C 73.503906 52.800781 73.632812 52.960938 73.769531 53.113281 C 73.8125 53.167969 73.859375 53.21875 73.90625 53.265625 C 74.046875 53.417969 74.195312 53.558594 74.347656 53.695312 C 74.398438 53.742188 74.449219 53.785156 74.5 53.828125 C 74.660156 53.960938 74.824219 54.085938 74.992188 54.203125 C 75.042969 54.238281 75.09375 54.277344 75.144531 54.308594 C 75.328125 54.429688 75.519531 54.542969 75.714844 54.644531 C 75.753906 54.664062 75.789062 54.6875 75.828125 54.707031 C 76.054688 54.820312 76.285156 54.921875 76.523438 55.011719 C 76.535156 55.015625 76.542969 55.019531 76.554688 55.023438 C 76.777344 55.105469 77.007812 55.171875 77.242188 55.234375 C 77.347656 55.261719 77.457031 55.285156 77.566406 55.304688 C 77.699219 55.335938 77.839844 55.359375 77.976562 55.378906 C 78.089844 55.398438 78.207031 55.414062 78.320312 55.429688 C 78.546875 55.449219 78.777344 55.464844 79.007812 55.46875 C 79.027344 55.46875 79.046875 55.46875 79.066406 55.46875 C 79.480469 55.472656 79.898438 55.472656 80.3125 55.472656 C 81.148438 55.472656 81.988281 55.46875 82.824219 55.46875 C 86.871094 55.46875 90.917969 55.46875 94.96875 55.46875 C 98.800781 55.46875 102.632812 55.46875 106.464844 55.46875 C 106.671875 55.46875 106.878906 55.46875 107.085938 55.46875 C 108.714844 55.46875 110.347656 55.46875 111.976562 55.46875 C 112.703125 55.46875 113.472656 55.496094 114.238281 55.484375 C 115.253906 55.46875 116.273438 55.390625 117.199219 55.085938 C 117.257812 55.066406 117.308594 55.039062 117.363281 55.015625 C 118.894531 54.445312 119.679688 53.226562 120.0625 51.789062 C 120.371094 50.640625 120.425781 49.355469 120.398438 48.148438 C 120.386719 47.617188 120.363281 47.101562 120.335938 46.625 Z M 114.101562 52.082031 C 114.085938 52.082031 114.066406 52.082031 114.046875 52.082031 C 113.304688 52.097656 112.558594 52.101562 111.816406 52.101562 C 110.773438 52.101562 109.730469 52.09375 108.6875 52.09375 C 103.546875 52.09375 98.410156 52.09375 93.273438 52.09375 C 92.730469 52.09375 92.1875 52.09375 91.644531 52.09375 C 89.523438 52.09375 87.398438 52.09375 85.277344 52.09375 C 84.734375 52.09375 84.191406 52.09375 83.648438 52.09375 C 82.683594 52.09375 81.71875 52.09375 80.75 52.09375 C 80.082031 52.09375 79.351562 52.144531 78.65625 52.074219 C 78.5 52.0625 78.34375 52.042969 78.191406 52.015625 C 78.15625 52.007812 78.117188 52 78.078125 51.992188 C 77.898438 51.949219 77.722656 51.898438 77.554688 51.828125 C 77.550781 51.828125 77.550781 51.828125 77.550781 51.828125 C 77.546875 51.828125 77.546875 51.824219 77.542969 51.824219 C 76.847656 51.53125 76.378906 51.105469 76.0625 50.597656 C 75.628906 49.90625 75.476562 49.066406 75.429688 48.195312 C 75.394531 47.484375 75.421875 46.757812 75.429688 46.074219 C 75.429688 46.007812 75.429688 45.941406 75.429688 45.878906 C 75.429688 44.921875 75.429688 43.964844 75.429688 43.007812 C 75.503906 43.007812 75.578125 43.007812 75.652344 43.007812 C 81.464844 43.007812 87.277344 43.007812 93.089844 43.007812 C 94.757812 43.007812 96.429688 43.007812 98.101562 43.007812 C 99.160156 43.007812 100.21875 43.007812 101.277344 43.007812 C 104.445312 43.007812 107.644531 43.03125 110.8125 43.265625 C 111.371094 43.304688 111.929688 43.34375 112.488281 43.402344 C 112.5625 43.410156 112.640625 43.414062 112.714844 43.421875 C 112.851562 43.4375 112.988281 43.453125 113.128906 43.46875 C 113.171875 43.472656 113.21875 43.480469 113.265625 43.484375 C 113.269531 43.484375 113.269531 43.484375 113.273438 43.484375 C 113.3125 43.492188 113.347656 43.496094 113.382812 43.503906 C 113.421875 43.507812 113.457031 43.511719 113.492188 43.519531 C 113.503906 43.519531 113.515625 43.523438 113.527344 43.527344 C 113.847656 43.578125 114.167969 43.636719 114.484375 43.707031 C 114.503906 43.714844 114.523438 43.714844 114.539062 43.71875 C 114.601562 43.734375 114.664062 43.753906 114.722656 43.769531 C 114.886719 43.8125 115.050781 43.855469 115.210938 43.90625 C 115.246094 43.917969 115.285156 43.921875 115.324219 43.9375 C 115.410156 43.964844 115.496094 43.996094 115.578125 44.027344 C 115.582031 44.027344 115.582031 44.027344 115.585938 44.03125 C 115.597656 44.035156 115.605469 44.039062 115.617188 44.042969 C 115.652344 44.054688 115.683594 44.070312 115.714844 44.085938 C 115.753906 44.109375 115.789062 44.132812 115.824219 44.152344 C 115.921875 44.207031 116.015625 44.265625 116.113281 44.320312 C 116.128906 44.332031 116.148438 44.34375 116.164062 44.351562 C 116.171875 44.355469 116.175781 44.359375 116.183594 44.363281 C 116.195312 44.371094 116.203125 44.378906 116.214844 44.382812 C 116.277344 44.449219 116.347656 44.519531 116.417969 44.582031 C 116.425781 44.589844 116.429688 44.597656 116.4375 44.605469 C 116.441406 44.605469 116.441406 44.605469 116.441406 44.605469 C 116.472656 44.65625 116.503906 44.703125 116.535156 44.75 C 116.539062 44.761719 116.546875 44.769531 116.550781 44.777344 C 116.582031 44.835938 116.613281 44.894531 116.648438 44.957031 C 116.652344 44.960938 116.652344 44.96875 116.65625 44.976562 C 116.667969 44.992188 116.675781 45.007812 116.683594 45.023438 C 116.6875 45.035156 116.6875 45.042969 116.691406 45.054688 C 116.699219 45.097656 116.714844 45.140625 116.726562 45.183594 C 116.753906 45.285156 116.78125 45.386719 116.808594 45.488281 C 116.824219 45.550781 116.84375 45.609375 116.855469 45.667969 C 116.863281 45.714844 116.871094 45.761719 116.878906 45.808594 C 116.886719 45.855469 116.898438 45.902344 116.90625 45.949219 C 116.90625 45.953125 116.90625 45.953125 116.90625 45.953125 C 116.90625 45.957031 116.90625 45.960938 116.910156 45.96875 C 116.914062 46 116.917969 46.03125 116.917969 46.0625 C 116.917969 46.066406 116.921875 46.074219 116.921875 46.074219 C 116.921875 46.089844 116.921875 46.101562 116.921875 46.113281 C 116.96875 46.675781 116.988281 47.238281 116.992188 47.800781 C 116.992188 48.316406 116.984375 48.832031 116.964844 49.34375 C 116.957031 49.523438 116.949219 49.703125 116.9375 49.886719 C 116.933594 49.925781 116.933594 49.964844 116.929688 50.003906 C 116.929688 50.007812 116.929688 50.023438 116.925781 50.03125 C 116.917969 50.140625 116.882812 50.464844 116.878906 50.53125 C 116.878906 50.535156 116.878906 50.535156 116.878906 50.539062 C 116.878906 50.550781 116.875 50.558594 116.875 50.570312 C 116.859375 50.664062 116.84375 50.757812 116.824219 50.851562 C 116.78125 51.027344 116.738281 51.199219 116.695312 51.375 C 116.6875 51.398438 116.683594 51.410156 116.675781 51.429688 C 116.671875 51.4375 116.671875 51.445312 116.667969 51.449219 C 116.667969 51.453125 116.664062 51.457031 116.664062 51.460938 C 116.628906 51.519531 116.578125 51.601562 116.546875 51.660156 C 116.539062 51.667969 116.535156 51.675781 116.53125 51.683594 C 116.53125 51.683594 116.53125 51.6875 116.527344 51.6875 C 116.515625 51.703125 116.503906 51.714844 116.492188 51.726562 C 116.484375 51.734375 116.476562 51.742188 116.472656 51.746094 C 116.46875 51.75 116.46875 51.75 116.464844 51.753906 C 116.460938 51.753906 116.457031 51.757812 116.453125 51.757812 C 116.441406 51.765625 116.429688 51.769531 116.425781 51.769531 C 116.421875 51.769531 116.417969 51.773438 116.414062 51.773438 C 116.320312 51.78125 116.226562 51.820312 116.226562 51.832031 C 116.230469 51.839844 116.269531 51.832031 116.359375 51.808594 C 116.363281 51.808594 116.363281 51.808594 116.367188 51.808594 C 116.375 51.804688 116.382812 51.804688 116.390625 51.800781 C 116.394531 51.800781 116.394531 51.800781 116.398438 51.796875 C 116.402344 51.796875 116.402344 51.796875 116.40625 51.796875 C 116.402344 51.796875 116.402344 51.796875 116.398438 51.796875 C 116.398438 51.800781 116.394531 51.800781 116.394531 51.800781 C 116.382812 51.804688 116.375 51.804688 116.363281 51.808594 C 116.363281 51.808594 116.359375 51.808594 116.359375 51.808594 C 116.320312 51.824219 116.277344 51.832031 116.238281 51.847656 C 116.21875 51.851562 116.203125 51.855469 116.183594 51.863281 C 116.113281 51.882812 116.042969 51.90625 115.96875 51.925781 C 115.914062 51.9375 115.859375 51.945312 115.804688 51.957031 C 115.738281 51.96875 115.675781 51.984375 115.609375 51.996094 C 115.601562 51.996094 115.589844 52 115.582031 52 C 115.578125 52 115.574219 52 115.570312 52.003906 C 115.550781 52.003906 115.53125 52.003906 115.511719 52.007812 C 115.457031 52.011719 115.40625 52.019531 115.355469 52.023438 C 115.339844 52.023438 115.324219 52.023438 115.3125 52.023438 C 115.011719 52.042969 114.710938 52.058594 114.410156 52.066406 C 114.308594 52.070312 114.207031 52.082031 114.101562 52.082031 Z M 116.40625 51.804688 C 116.363281 51.835938 116.328125 51.859375 116.40625 51.804688 Z M 116.660156 51.472656 C 116.625 51.566406 116.609375 51.574219 116.660156 51.472656 Z M 182.90625 3.847656 C 176.003906 14.898438 168.46875 25.539062 160.371094 35.746094 C 159.804688 36.464844 158.574219 36.332031 157.988281 35.746094 C 157.289062 35.050781 157.421875 34.074219 157.988281 33.363281 C 165.902344 23.382812 173.242188 12.949219 179.996094 2.148438 C 181.144531 0.308594 184.0625 2.003906 182.90625 3.847656 Z M 106.734375 188.207031 C 108.445312 190.757812 108.621094 194.0625 107.398438 196.84375 C 106.222656 199.515625 103.640625 201.523438 100.757812 201.988281 C 97.71875 202.480469 94.480469 201.449219 92.460938 199.070312 C 90.453125 196.710938 89.734375 193.558594 90.59375 190.570312 C 91.195312 188.488281 94.449219 189.378906 93.847656 191.46875 C 93.523438 192.59375 93.496094 193.585938 93.8125 194.6875 C 94.109375 195.734375 94.632812 196.574219 95.488281 197.351562 C 96.890625 198.628906 98.96875 199.050781 100.765625 198.539062 C 102.539062 198.035156 104.027344 196.625 104.582031 194.804688 C 104.855469 193.910156 104.910156 192.917969 104.75 192.125 C 104.542969 191.121094 104.144531 190.253906 103.582031 189.589844 C 102.128906 187.863281 99.875 187.089844 97.507812 187.78125 C 95.414062 188.390625 94.53125 185.132812 96.609375 184.527344 C 100.4375 183.414062 104.519531 184.914062 106.734375 188.207031 Z M 106.734375 188.207031 "/><path style=" stroke:none;fill-rule:nonzero;fill:#0a779f;fill-opacity:1;" d="M 200.265625 51.183594 C 198.972656 49.820312 197.65625 48.476562 196.351562 47.121094 C 195.207031 45.933594 194.085938 44.710938 192.914062 43.550781 C 190.800781 41.464844 187.585938 41.476562 185.417969 43.460938 C 184.695312 44.125 184 44.828125 183.292969 45.507812 C 179.144531 49.503906 174.996094 53.5 170.847656 57.5 C 164.472656 63.640625 158.097656 69.78125 151.726562 75.921875 C 144.804688 82.585938 137.886719 89.253906 130.96875 95.917969 C 125.234375 101.441406 119.503906 106.964844 113.769531 112.488281 C 110.941406 115.214844 108.066406 117.898438 105.28125 120.667969 C 104.949219 121 104.726562 121.371094 104.558594 121.820312 C 104.078125 123.097656 103.621094 124.382812 103.152344 125.664062 C 101.613281 129.878906 100.070312 134.09375 98.53125 138.308594 C 98.214844 139.167969 97.902344 140.027344 97.585938 140.886719 C 97.148438 142.085938 98.496094 143.339844 99.664062 142.960938 C 102.941406 141.898438 106.21875 140.835938 109.5 139.773438 C 111.738281 139.046875 113.976562 138.324219 116.21875 137.597656 C 116.945312 137.363281 117.671875 137.125 118.398438 136.890625 C 118.777344 136.769531 119.234375 136.671875 119.578125 136.46875 C 119.9375 136.257812 120.25 135.886719 120.546875 135.601562 C 121.152344 135.019531 121.761719 134.433594 122.367188 133.847656 C 124.558594 131.734375 126.75 129.625 128.941406 127.511719 C 135.648438 121.050781 142.355469 114.589844 149.0625 108.128906 C 156.03125 101.414062 162.996094 94.703125 169.964844 87.992188 C 173.625 84.464844 177.390625 81.019531 180.960938 77.398438 C 181.011719 77.34375 181.066406 77.296875 181.117188 77.246094 C 181.582031 76.796875 182.046875 76.351562 182.507812 75.90625 C 183.460938 74.988281 184.414062 74.070312 185.367188 73.152344 C 186.769531 71.800781 188.246094 70.511719 189.269531 68.835938 C 189.78125 67.992188 190.160156 67.085938 190.425781 66.144531 C 190.597656 66.121094 190.765625 66.105469 190.9375 66.074219 C 192.996094 65.671875 194.449219 64.398438 195.902344 63 C 197.328125 61.628906 198.765625 60.265625 200.179688 58.878906 C 202.390625 56.710938 202.375 53.410156 200.265625 51.183594 Z M 181.199219 56.160156 C 181.222656 56.140625 181.253906 56.113281 181.320312 56.050781 C 181.371094 56 181.539062 55.851562 181.582031 55.808594 C 181.703125 55.722656 181.835938 55.644531 181.96875 55.574219 C 182.007812 55.570312 182.300781 55.457031 182.398438 55.429688 C 182.40625 55.429688 182.40625 55.425781 182.410156 55.425781 C 182.464844 55.421875 182.519531 55.414062 182.570312 55.417969 C 182.675781 55.417969 182.78125 55.425781 182.882812 55.425781 C 182.886719 55.425781 182.886719 55.425781 182.886719 55.425781 C 183.050781 55.460938 183.214844 55.5 183.375 55.550781 C 183.378906 55.550781 183.472656 55.585938 183.542969 55.609375 C 183.617188 55.648438 183.753906 55.710938 183.78125 55.726562 C 183.96875 55.828125 184.148438 55.941406 184.324219 56.058594 C 184.375 56.09375 184.425781 56.128906 184.476562 56.164062 C 184.503906 56.191406 184.554688 56.230469 184.574219 56.246094 C 184.957031 56.585938 185.316406 56.949219 185.636719 57.347656 C 185.664062 57.386719 185.851562 57.644531 185.898438 57.714844 C 186.054688 57.949219 186.207031 58.195312 186.347656 58.445312 C 186.644531 58.976562 186.789062 59.296875 186.945312 59.738281 C 187.332031 60.820312 187.5 61.671875 187.523438 62.691406 C 187.175781 62.609375 186.816406 62.507812 186.402344 62.359375 C 185.65625 62.09375 184.679688 61.5625 183.808594 60.964844 C 183.734375 60.914062 183.65625 60.859375 183.582031 60.800781 C 183.546875 60.773438 183.503906 60.742188 183.488281 60.730469 C 183.28125 60.558594 183.074219 60.382812 182.878906 60.199219 C 182.535156 59.878906 182.214844 59.535156 181.917969 59.175781 C 181.90625 59.160156 181.898438 59.15625 181.890625 59.144531 C 181.882812 59.132812 181.878906 59.125 181.863281 59.105469 C 181.792969 59.003906 181.722656 58.90625 181.65625 58.804688 C 181.554688 58.648438 181.457031 58.488281 181.367188 58.324219 C 181.328125 58.253906 181.175781 57.890625 181.15625 57.871094 C 181.105469 57.710938 181.054688 57.550781 181.007812 57.390625 C 180.992188 57.34375 180.980469 57.304688 180.96875 57.28125 C 180.96875 57.269531 180.972656 57.261719 180.96875 57.242188 C 180.964844 57.097656 180.96875 56.957031 180.972656 56.816406 C 180.980469 56.765625 181 56.644531 181.023438 56.542969 C 181.023438 56.535156 181.035156 56.5 181.050781 56.464844 C 181.089844 56.398438 181.148438 56.28125 181.164062 56.253906 C 181.1875 56.199219 181.195312 56.175781 181.199219 56.160156 Z M 184.675781 69.136719 C 182.960938 70.792969 181.238281 72.445312 179.523438 74.097656 C 179.257812 74.351562 178.996094 74.605469 178.734375 74.859375 C 176.695312 76.824219 174.65625 78.789062 172.617188 80.753906 C 167.761719 85.429688 162.90625 90.109375 158.050781 94.785156 C 152.140625 100.480469 146.230469 106.171875 140.320312 111.867188 C 135.242188 116.757812 130.167969 121.648438 125.09375 126.539062 C 123.40625 128.164062 121.71875 129.789062 120.035156 131.410156 C 119.304688 132.113281 118.507812 132.792969 117.8125 133.535156 C 112.535156 135.246094 107.257812 136.957031 101.980469 138.667969 C 103.652344 134.085938 105.328125 129.507812 107.003906 124.929688 C 107.234375 124.292969 107.46875 123.65625 107.699219 123.019531 C 109.226562 121.550781 110.75 120.082031 112.273438 118.613281 C 116.40625 114.632812 120.539062 110.652344 124.667969 106.671875 C 130.230469 101.316406 135.789062 95.957031 141.347656 90.601562 C 147.28125 84.882812 153.214844 79.167969 159.152344 73.449219 C 164.394531 68.398438 169.636719 63.347656 174.878906 58.296875 C 175.890625 57.324219 176.902344 56.347656 177.914062 55.375 C 177.46875 56.632812 177.5625 58.050781 178.160156 59.417969 C 179.117188 61.597656 181.066406 63.34375 183.101562 64.515625 C 184.273438 65.191406 185.5625 65.710938 186.890625 66 C 186.40625 67.132812 185.660156 68.183594 184.675781 69.136719 Z M 196.578125 57.667969 C 195.296875 58.898438 194.019531 60.128906 192.742188 61.363281 C 192.246094 61.839844 192.074219 62.019531 191.457031 62.351562 C 191.261719 62.457031 191.070312 62.539062 190.875 62.613281 C 190.796875 59.003906 189.164062 55.402344 186.207031 53.273438 C 184.703125 52.191406 182.796875 51.765625 181.089844 52.3125 C 182.515625 50.9375 183.941406 49.566406 185.367188 48.191406 C 186.117188 47.472656 186.863281 46.746094 187.613281 46.027344 C 187.996094 45.664062 188.390625 45.363281 188.949219 45.304688 C 190.175781 45.183594 191.078125 46.507812 191.835938 47.292969 C 193.1875 48.695312 194.539062 50.097656 195.890625 51.503906 C 196.414062 52.046875 196.9375 52.589844 197.464844 53.136719 C 197.761719 53.445312 198.117188 53.75 198.3125 54.132812 C 199.089844 55.65625 197.542969 56.738281 196.578125 57.667969 Z M 149.070312 27.984375 C 150.796875 21.4375 152.519531 14.886719 154.246094 8.339844 C 154.800781 6.242188 158.050781 7.136719 157.5 9.238281 C 155.773438 15.785156 154.050781 22.332031 152.324219 28.878906 C 151.769531 30.980469 148.515625 30.085938 149.070312 27.984375 Z M 27.789062 28.746094 C 26.949219 28.941406 26.113281 29.132812 25.273438 29.328125 C 20.113281 30.519531 14.957031 31.710938 9.796875 32.902344 C 10.078125 33.285156 10.355469 33.667969 10.636719 34.050781 C 13.882812 38.464844 17.128906 42.878906 20.375 47.296875 C 22.410156 50.0625 24.445312 52.828125 26.476562 55.597656 C 27.117188 56.464844 26.453125 57.847656 25.46875 58.074219 C 24.632812 58.265625 23.792969 58.460938 22.957031 58.652344 C 17.792969 59.847656 12.625 61.042969 7.460938 62.234375 C 7.734375 62.609375 8.003906 62.984375 8.277344 63.355469 C 11.496094 67.792969 14.714844 72.230469 17.933594 76.667969 C 19.9375 79.4375 21.945312 82.203125 23.953125 84.96875 C 24.585938 85.839844 23.933594 87.21875 22.945312 87.449219 C 22.109375 87.640625 21.269531 87.835938 20.433594 88.027344 C 15.269531 89.222656 10.109375 90.414062 4.945312 91.609375 C 5.222656 91.992188 5.503906 92.371094 5.78125 92.753906 C 9.007812 97.175781 12.234375 101.59375 15.460938 106.015625 C 17.480469 108.785156 19.5 111.554688 21.523438 114.324219 C 22.0625 115.0625 21.644531 116.207031 20.917969 116.632812 C 20.074219 117.125 19.144531 116.761719 18.609375 116.027344 C 17.863281 115.003906 17.117188 113.980469 16.371094 112.960938 C 13.144531 108.539062 9.917969 104.117188 6.695312 99.699219 C 4.671875 96.929688 2.652344 94.160156 0.628906 91.390625 C -0.00390625 90.519531 0.652344 89.140625 1.640625 88.910156 C 2.476562 88.71875 3.3125 88.523438 4.152344 88.332031 C 9.316406 87.136719 14.480469 85.945312 19.644531 84.75 C 19.375 84.375 19.105469 84.003906 18.832031 83.628906 C 15.613281 79.191406 12.394531 74.753906 9.175781 70.316406 C 7.167969 67.550781 5.160156 64.78125 3.15625 62.015625 C 2.523438 61.144531 3.175781 59.765625 4.164062 59.535156 C 5 59.34375 5.839844 59.148438 6.675781 58.957031 C 11.800781 57.773438 16.925781 56.585938 22.050781 55.402344 C 21.769531 55.019531 21.492188 54.640625 21.210938 54.257812 C 17.988281 49.835938 14.761719 45.417969 11.535156 40.996094 C 9.515625 38.226562 7.492188 35.457031 5.472656 32.6875 C 5.140625 32.238281 5.164062 31.652344 5.398438 31.160156 C 5.609375 30.699219 6.003906 30.320312 6.480469 30.210938 C 7.316406 30.015625 8.15625 29.824219 8.992188 29.628906 C 14.960938 28.25 20.925781 26.871094 26.890625 25.492188 C 29.007812 25.003906 29.902344 28.257812 27.789062 28.746094 Z M 27.789062 28.746094 "/><path style=" stroke:none;fill-rule:nonzero;fill:#007084;fill-opacity:1;" d="M 142.785156 58.203125 C 142.785156 60.527344 142.785156 62.855469 142.785156 65.179688 C 142.785156 69.8125 142.785156 74.445312 142.785156 79.078125 C 142.785156 81.253906 139.414062 81.25 139.414062 79.078125 C 139.414062 77.304688 139.414062 75.53125 139.414062 73.757812 C 139.414062 68.574219 139.414062 63.386719 139.414062 58.203125 C 139.414062 57.496094 139.410156 56.863281 139.03125 56.238281 C 138.386719 55.175781 137.359375 54.953125 136.214844 54.953125 C 133.941406 54.953125 131.667969 54.953125 129.390625 54.953125 C 127.21875 54.953125 127.21875 51.582031 129.390625 51.582031 C 131.84375 51.582031 134.296875 51.53125 136.75 51.582031 C 139.144531 51.632812 141.324219 52.996094 142.277344 55.21875 C 142.691406 56.179688 142.785156 57.171875 142.785156 58.203125 Z M 95.019531 67.164062 C 92.460938 69.878906 89.902344 72.589844 87.34375 75.304688 C 83.261719 79.632812 79.179688 83.960938 75.097656 88.289062 C 74.566406 88.855469 74.035156 89.417969 73.503906 89.980469 C 70.882812 87.007812 68.257812 84.03125 65.632812 81.058594 C 65.195312 80.5625 64.757812 80.066406 64.320312 79.570312 C 63.714844 78.886719 62.550781 78.953125 61.933594 79.570312 C 61.253906 80.25 61.328125 81.269531 61.933594 81.957031 C 64.941406 85.367188 67.953125 88.773438 70.960938 92.183594 C 71.398438 92.679688 71.835938 93.175781 72.273438 93.671875 C 72.863281 94.34375 74.0625 94.304688 74.660156 93.671875 C 77.214844 90.960938 79.773438 88.246094 82.332031 85.53125 C 86.414062 81.203125 90.496094 76.875 94.578125 72.546875 C 95.519531 71.546875 96.460938 70.546875 97.402344 69.550781 C 98.890625 67.96875 96.511719 65.582031 95.019531 67.164062 Z M 95.019531 94.824219 C 92.460938 97.539062 89.902344 100.25 87.34375 102.964844 C 83.261719 107.292969 79.179688 111.621094 75.097656 115.949219 C 74.566406 116.515625 74.035156 117.078125 73.503906 117.640625 C 70.882812 114.667969 68.257812 111.691406 65.632812 108.71875 C 65.195312 108.222656 64.757812 107.726562 64.320312 107.230469 C 63.714844 106.546875 62.550781 106.613281 61.933594 107.230469 C 61.253906 107.910156 61.328125 108.929688 61.933594 109.617188 C 64.941406 113.027344 67.953125 116.433594 70.960938 119.84375 C 71.398438 120.339844 71.835938 120.835938 72.273438 121.332031 C 72.863281 122.003906 74.0625 121.964844 74.660156 121.332031 C 77.214844 118.621094 79.773438 115.90625 82.332031 113.191406 C 86.414062 108.863281 90.496094 104.535156 94.578125 100.207031 C 95.519531 99.207031 96.460938 98.207031 97.402344 97.210938 C 98.890625 95.628906 96.511719 93.242188 95.019531 94.824219 Z M 95.019531 122.484375 C 92.460938 125.199219 89.902344 127.910156 87.34375 130.625 C 83.261719 134.953125 79.179688 139.28125 75.097656 143.609375 C 74.566406 144.175781 74.035156 144.738281 73.503906 145.300781 C 70.882812 142.328125 68.257812 139.351562 65.632812 136.378906 C 65.195312 135.882812 64.757812 135.386719 64.320312 134.890625 C 63.714844 134.207031 62.550781 134.273438 61.933594 134.890625 C 61.253906 135.570312 61.328125 136.589844 61.933594 137.277344 C 64.941406 140.683594 67.953125 144.09375 70.960938 147.503906 C 71.398438 148 71.835938 148.496094 72.273438 148.992188 C 72.863281 149.664062 74.0625 149.625 74.660156 148.992188 C 77.214844 146.28125 79.773438 143.566406 82.332031 140.851562 C 86.414062 136.523438 90.496094 132.195312 94.578125 127.867188 C 95.519531 126.867188 96.460938 125.867188 97.402344 124.871094 C 98.890625 123.289062 96.511719 120.902344 95.019531 122.484375 Z M 53.273438 15.410156 C 53.292969 15.445312 53.308594 15.480469 53.328125 15.515625 C 53.320312 15.496094 53.300781 15.457031 53.273438 15.40625 C 53.273438 15.40625 53.273438 15.40625 53.273438 15.410156 Z M 62.386719 10.257812 C 60.679688 7.71875 57.539062 6.535156 54.578125 7.398438 C 53.730469 7.644531 53.117188 8.597656 53.398438 9.472656 C 53.675781 10.332031 54.566406 10.914062 55.472656 10.652344 C 55.589844 10.617188 55.703125 10.582031 55.816406 10.554688 C 55.785156 10.5625 56.054688 10.515625 56.144531 10.496094 C 56.21875 10.492188 56.332031 10.484375 56.351562 10.480469 C 56.472656 10.476562 56.59375 10.476562 56.714844 10.480469 C 56.851562 10.484375 56.996094 10.488281 57.132812 10.507812 C 57.164062 10.515625 57.210938 10.527344 57.277344 10.546875 C 57.503906 10.601562 57.722656 10.671875 57.941406 10.75 C 57.996094 10.777344 58.210938 10.871094 58.269531 10.90625 C 58.429688 10.992188 58.582031 11.09375 58.730469 11.195312 C 58.738281 11.199219 58.742188 11.199219 58.746094 11.203125 C 58.800781 11.25 58.859375 11.300781 58.914062 11.347656 C 59.082031 11.5 59.230469 11.664062 59.378906 11.828125 C 59.382812 11.832031 59.382812 11.832031 59.386719 11.835938 C 59.441406 11.914062 59.496094 11.992188 59.546875 12.074219 C 59.640625 12.222656 59.722656 12.375 59.808594 12.53125 C 59.828125 12.566406 59.855469 12.636719 59.875 12.679688 C 59.890625 12.71875 59.90625 12.757812 59.917969 12.800781 C 59.988281 13.007812 60.046875 13.222656 60.09375 13.441406 C 60.105469 13.496094 60.113281 13.554688 60.125 13.613281 C 60.125 13.625 60.125 13.636719 60.125 13.652344 C 60.128906 13.835938 60.140625 14.011719 60.136719 14.195312 C 60.132812 14.277344 60.105469 14.507812 60.101562 14.554688 C 60.066406 14.742188 60.027344 14.929688 59.972656 15.113281 C 59.945312 15.203125 59.910156 15.292969 59.882812 15.382812 C 59.878906 15.398438 59.875 15.40625 59.871094 15.421875 C 59.871094 15.425781 59.871094 15.425781 59.867188 15.429688 C 59.777344 15.589844 59.703125 15.757812 59.605469 15.914062 C 59.542969 16.015625 59.1875 16.457031 59.441406 16.179688 C 59.289062 16.34375 59.148438 16.515625 58.984375 16.667969 C 58.898438 16.75 58.5 17.03125 58.816406 16.828125 C 58.667969 16.921875 58.527344 17.027344 58.375 17.117188 C 58.296875 17.160156 58.21875 17.203125 58.140625 17.246094 C 58.136719 17.246094 58.042969 17.292969 57.976562 17.324219 C 57.9375 17.339844 57.894531 17.359375 57.878906 17.363281 C 57.773438 17.398438 57.667969 17.433594 57.5625 17.464844 C 57.382812 17.515625 57.203125 17.546875 57.023438 17.585938 C 56.914062 17.589844 56.800781 17.601562 56.691406 17.605469 C 56.511719 17.609375 56.328125 17.597656 56.148438 17.589844 C 56.140625 17.589844 56.132812 17.585938 56.128906 17.585938 C 56.148438 17.589844 56.160156 17.59375 56.1875 17.597656 C 56.164062 17.59375 56.144531 17.589844 56.125 17.585938 C 56.046875 17.578125 55.9375 17.550781 56.046875 17.570312 C 55.957031 17.554688 55.863281 17.539062 55.773438 17.515625 C 55.589844 17.46875 55.414062 17.410156 55.234375 17.351562 C 55.21875 17.347656 55.210938 17.34375 55.199219 17.339844 C 55.132812 17.308594 55.066406 17.277344 55 17.242188 C 54.816406 17.148438 54.640625 17.042969 54.472656 16.925781 C 54.453125 16.914062 54.410156 16.882812 54.371094 16.855469 C 54.320312 16.808594 54.25 16.746094 54.234375 16.734375 C 54.066406 16.582031 53.917969 16.421875 53.769531 16.253906 C 53.765625 16.25 53.765625 16.25 53.761719 16.246094 C 53.695312 16.152344 53.628906 16.054688 53.566406 15.953125 C 53.476562 15.8125 53.402344 15.664062 53.328125 15.515625 C 53.363281 15.589844 53.296875 15.476562 53.273438 15.410156 C 53.265625 15.398438 53.261719 15.382812 53.253906 15.371094 C 53.261719 15.386719 53.265625 15.394531 53.273438 15.40625 C 53.230469 15.28125 53.1875 15.15625 53.148438 15.03125 C 53.09375 14.839844 53.058594 14.648438 53.023438 14.453125 C 53.023438 14.445312 53.023438 14.4375 53.023438 14.429688 C 53.019531 14.292969 53.007812 14.160156 53.007812 14.023438 C 53.007812 13.933594 53.011719 13.84375 53.015625 13.753906 C 53.019531 13.730469 53.027344 13.640625 53.035156 13.570312 C 53.050781 13.492188 53.066406 13.382812 53.070312 13.378906 C 53.097656 13.242188 53.136719 13.105469 53.175781 12.96875 C 53.417969 12.121094 52.878906 11.09375 51.996094 10.894531 C 51.097656 10.6875 50.183594 11.164062 49.921875 12.074219 C 49.253906 14.390625 49.832031 16.816406 51.382812 18.640625 C 52.953125 20.484375 55.464844 21.242188 57.808594 20.859375 C 59.992188 20.503906 61.972656 18.960938 62.863281 16.945312 C 63.8125 14.796875 63.714844 12.238281 62.386719 10.257812 Z M 56.128906 17.585938 C 56.09375 17.578125 56.066406 17.574219 56.046875 17.570312 C 56.074219 17.574219 56.097656 17.582031 56.125 17.585938 C 56.125 17.585938 56.125 17.585938 56.128906 17.585938 Z M 56.128906 17.585938 "/><g clip-rule="nonzero" clip-path="url(#ca8d55f5dd)"><g clip-rule="nonzero" clip-path="url(#d0b8a8e6fa)"><path style=" stroke:none;fill-rule:nonzero;fill:#007084;fill-opacity:1;" d="M 68.964844 115.210938 L 78.382812 115.210938 L 78.382812 124.414062 L 68.964844 124.414062 Z M 68.964844 115.210938 "/></g></g></g></svg>