<svg width="21" height="20" viewBox="0 0 21 20" fill="none" xmlns="http://www.w3.org/2000/svg">
<path d="M6.42969 1.90625L7.09375 2.53125C7.17188 2.64844 7.25 2.76562 7.25 2.88281C7.25 3 7.17188 3.11719 7.09375 3.19531L4.28125 6.04688L3.65625 6.63281C3.57812 6.71094 3.46094 6.78906 3.30469 6.78906C3.1875 6.78906 3.07031 6.71094 2.99219 6.63281L1.11719 4.79688C1.03906 4.71875 0.960938 4.60156 0.960938 4.44531C0.960938 4.32812 1.03906 4.21094 1.11719 4.13281L1.74219 3.50781C1.82031 3.42969 1.9375 3.39062 2.05469 3.39062C2.21094 3.39062 2.32812 3.42969 2.40625 3.50781L3.26562 4.36719L5.76562 1.90625C5.84375 1.82812 5.96094 1.75 6.11719 1.75C6.23438 1.75 6.35156 1.82812 6.42969 1.90625ZM6.42969 8.11719L7.09375 8.78125C7.17188 8.85938 7.25 8.97656 7.25 9.13281C7.25 9.25 7.17188 9.36719 7.09375 9.44531L4.28125 12.2578L3.65625 12.8828C3.57812 12.9609 3.46094 13.0391 3.30469 13.0391C3.1875 13.0391 3.07031 12.9609 2.99219 12.8828L1.11719 11.0078C1.03906 10.9297 0.960938 10.8125 0.960938 10.6953C0.960938 10.5781 1.03906 10.4609 1.11719 10.3438L1.74219 9.75781C1.82031 9.67969 1.9375 9.60156 2.05469 9.60156C2.21094 9.60156 2.32812 9.67969 2.40625 9.75781L3.26562 10.6172L5.76562 8.11719C5.84375 8.03906 5.96094 8 6.11719 8C6.23438 8 6.35156 8.03906 6.42969 8.11719ZM3.5 14.875C4.51562 14.875 5.375 15.7344 5.375 16.75C5.375 17.8047 4.51562 18.625 3.5 18.625C2.44531 18.625 1.58594 17.8047 1.58594 16.75C1.58594 15.7344 2.44531 14.875 3.5 14.875ZM20.375 15.5C20.6875 15.5 21 15.8125 21 16.125V17.375C21 17.7266 20.6875 18 20.375 18H9.125C8.77344 18 8.5 17.7266 8.5 17.375V16.125C8.5 15.8125 8.77344 15.5 9.125 15.5H20.375ZM20.375 3C20.6875 3 21 3.3125 21 3.625V4.875C21 5.22656 20.6875 5.5 20.375 5.5H9.125C8.77344 5.5 8.5 5.22656 8.5 4.875V3.625C8.5 3.3125 8.77344 3 9.125 3H20.375ZM20.375 9.25C20.6875 9.25 21 9.5625 21 9.875V11.125C21 11.4766 20.6875 11.75 20.375 11.75H9.125C8.77344 11.75 8.5 11.4766 8.5 11.125V9.875C8.5 9.5625 8.77344 9.25 9.125 9.25H20.375Z" fill="#006E82"/>
</svg>
