<svg width="24" height="20" viewBox="0 0 24 20" fill="none" xmlns="http://www.w3.org/2000/svg">
<path d="M11.9375 6.32031C12.0156 6.24219 12.1328 6.20312 12.25 6.20312C12.3281 6.20312 12.4453 6.24219 12.5234 6.32031L19.75 12.2188V18.625C19.75 18.9766 19.4375 19.25 19.125 19.25H14.7109C14.3984 19.25 14.0859 18.9766 14.0859 18.625V14.875C14.0859 14.5625 13.8125 14.25 13.4609 14.25H10.9609C10.6484 14.25 10.3359 14.5625 10.3359 14.875V18.625C10.3359 18.9766 10.0625 19.25 9.75 19.25H5.375C5.02344 19.25 4.75 18.9766 4.75 18.625V12.2578L11.9375 6.32031ZM23.3047 10.3438C23.4219 10.4219 23.5 10.5781 23.5 10.6953C23.5 10.8125 23.4609 10.9297 23.3828 11.0078L22.3672 12.2188C22.2891 12.3359 22.1719 12.375 22.0156 12.375C21.8984 12.375 21.7812 12.3359 21.7031 12.2578L12.5234 4.71875C12.4453 4.64062 12.3281 4.60156 12.25 4.60156C12.1328 4.60156 12.0156 4.64062 11.9375 4.71875L2.75781 12.2578C2.67969 12.3359 2.5625 12.375 2.44531 12.375C2.28906 12.375 2.17188 12.3359 2.09375 12.2188L1.07812 11.0078C1.03906 10.9297 0.960938 10.8125 0.960938 10.6953C0.960938 10.5781 1.03906 10.4219 1.15625 10.3438L11.0391 2.17969C11.3516 1.94531 11.7812 1.78906 12.25 1.78906C12.6797 1.78906 13.1094 1.94531 13.4219 2.17969L16.9375 5.07031V2.25781C16.9375 1.98438 17.1328 1.78906 17.4062 1.78906H19.5938C19.8281 1.78906 20.0625 1.98438 20.0625 2.25781V7.64844L23.3047 10.3438Z" fill="#777777"/>
</svg>
